<?xml version="1.0" encoding="utf-8"?>
<!-- Generator: Adobe Illustrator 19.2.0, SVG Export Plug-In . SVG Version: 6.00 Build 0)  -->
<svg version="1.1" id="Layer_1" xmlns="http://www.w3.org/2000/svg" xmlns:xlink="http://www.w3.org/1999/xlink" x="0px" y="0px"
	 viewBox="0 0 142.7 830.2" style="enable-background:new 0 0 142.7 830.2;" xml:space="preserve">
<style type="text/css">
	.st0{clip-path:url(#SVGID_2_);}
	.st1{clip-path:url(#SVGID_4_);fill:none;}
	.st2{clip-path:url(#SVGID_6_);fill:none;}
	.st3{clip-path:url(#SVGID_8_);}
	.st4{fill:#FFFFFF;}
	.st5{fill:#F2E0C3;}
	.st6{clip-path:url(#SVGID_10_);}
</style>
<g>
	<g>
		<defs>
			<rect id="SVGID_1_" x="-0.5" width="143.3" height="830.2"/>
		</defs>
		<clipPath id="SVGID_2_">
			<use xlink:href="#SVGID_1_"  style="overflow:visible;"/>
		</clipPath>
		<g class="st0">
			<g>
				<defs>
					<rect id="SVGID_3_" y="-75.6" width="1133.3" height="914.5"/>
				</defs>
				<clipPath id="SVGID_4_">
					<use xlink:href="#SVGID_3_"  style="overflow:visible;"/>
				</clipPath>
				<rect x="-80.9" y="-167.2" class="st1" width="1297" height="1092.5"/>
			</g>
			<g>
				<defs>
					<rect id="SVGID_5_" x="-0.5" width="143.3" height="830.2"/>
				</defs>
				<clipPath id="SVGID_6_">
					<use xlink:href="#SVGID_5_"  style="overflow:visible;"/>
				</clipPath>
				<rect y="-75.6" class="st2" width="1133.3" height="1224.8"/>
			</g>
			<g>
				<defs>
					<rect id="SVGID_7_" x="-0.5" width="143.3" height="830.2"/>
				</defs>
				<clipPath id="SVGID_8_">
					<use xlink:href="#SVGID_7_"  style="overflow:visible;"/>
				</clipPath>
				<g class="st3">
					<g>
						<g>
							<g id="XMLID_331_">
								<g id="XMLID_332_">
									<g id="XMLID_333_">
										<polygon class="st4" points="76.4,96.1 142.3,30.3 209.3,96.2 142.3,293.7 										"/>
										<path class="st5" d="M142.3,35.6L205,97.2l-62.7,184.7L80.6,97.1L142.3,35.6 M142.2,25L72.1,95l70.1,210.4l71.3-210.2
											L142.2,25L142.2,25z"/>
									</g>
								</g>
							</g>
							<g id="XMLID_328_">
								<g id="XMLID_329_">
									<g id="XMLID_330_">
										<polygon class="st4" points="87.9,109 142.4,54.7 197.7,109.1 142.4,272.2 										"/>
										<path class="st5" d="M142.4,59.9l51,50.2l-51,150.4L92.2,110L142.4,59.9 M142.4,49.3L83.6,108l58.7,176L202,108.1
											L142.4,49.3L142.4,49.3z"/>
									</g>
								</g>
							</g>
							<g id="XMLID_325_">
								<g id="XMLID_326_">
									<g id="XMLID_327_">
										<polygon class="st4" points="100,120.9 142.4,78.4 185.7,121 142.4,248.3 										"/>
										<path class="st5" d="M142.4,83.7l38.9,38.3l-38.9,114.6L104.1,122L142.4,83.7 M142.4,73.2l-46.8,46.7L142.4,260L190,119.9
											L142.4,73.2L142.4,73.2z"/>
									</g>
								</g>
							</g>
							<g id="XMLID_322_">
								<g id="XMLID_323_">
									<g id="XMLID_324_">
										<polygon class="st4" points="111.1,130.9 142.5,99.5 174.6,131 142.6,225.4 										"/>
										<path class="st5" d="M142.6,104.7l27.7,27.3l-27.7,81.7L115.3,132L142.6,104.7 M142.5,94.1l-35.8,35.7L142.5,237l36.4-107
											L142.5,94.1L142.5,94.1z"/>
									</g>
								</g>
							</g>
							<g id="XMLID_319_">
								<g id="XMLID_320_">
									<g id="XMLID_321_">
										<polygon class="st4" points="121.9,141.9 142.7,121.3 163.7,142 142.7,204.1 										"/>
										<path class="st5" d="M142.7,126.6l16.8,16.5l-16.7,49.3L126.3,143L142.7,126.6 M142.6,116l-25,25l24.9,74.8L168,141
											L142.6,116L142.6,116z"/>
									</g>
								</g>
							</g>
							<g id="XMLID_316_">
								<g id="XMLID_317_">
									<g id="XMLID_318_">
										<polygon class="st4" points="132.1,150.8 142.7,140.1 153.5,150.8 142.7,182.6 										"/>
										<path class="st5" d="M142.7,145.4l6.5,6.4l-6.4,19.1l-6.4-19.1L142.7,145.4 M142.7,134.9l-14.9,14.8l14.9,44.7l15.1-44.6
											L142.7,134.9L142.7,134.9z"/>
									</g>
								</g>
							</g>
							<g id="XMLID_313_">
								<g id="XMLID_314_">
									<g id="XMLID_315_">
										<polygon class="st4" points="140.9,158.4 142.8,156.6 144.7,158.4 142.8,163.8 										"/>
										<polygon class="st5" points="142.7,151.2 136.7,157.3 142.7,175.6 149,157.3 										"/>
									</g>
								</g>
							</g>
						</g>
						<g>
							<g id="XMLID_310_">
								<g id="XMLID_311_">
									<g id="XMLID_312_">
										<polygon class="st4" points="-65.1,96.1 0.8,30.3 67.7,96.2 0.8,293.7 										"/>
										<path class="st5" d="M0.8,35.6l62.7,61.7L0.8,281.9L-60.8,97.1L0.8,35.6 M0.8,25l-70.2,70L0.8,305.4L72.1,95.2L0.8,25
											L0.8,25z"/>
									</g>
								</g>
							</g>
							<g id="XMLID_307_">
								<g id="XMLID_308_">
									<g id="XMLID_309_">
										<polygon class="st4" points="-53.6,109 0.8,54.7 56.2,109.1 0.8,272.2 										"/>
										<path class="st5" d="M0.9,59.9l51,50.2l-51,150.4L-49.3,110L0.9,59.9 M0.8,49.3L-57.9,108L0.8,284l59.7-175.9L0.8,49.3
											L0.8,49.3z"/>
									</g>
								</g>
							</g>
							<g id="XMLID_304_">
								<g id="XMLID_305_">
									<g id="XMLID_306_">
										<polygon class="st4" points="-41.6,120.9 1,78.4 44.2,121 1,248.3 										"/>
										<path class="st5" d="M1,83.7L39.9,122L1,236.6L-37.3,122L1,83.7 M0.9,73.2l-46.8,46.7L0.9,260l47.6-140.1L0.9,73.2
											L0.9,73.2z"/>
									</g>
								</g>
							</g>
							<g id="XMLID_301_">
								<g id="XMLID_302_">
									<g id="XMLID_303_">
										<polygon class="st4" points="-30.5,130.9 1.1,99.5 33.1,131 1.1,225.4 										"/>
										<path class="st5" d="M1.1,104.7L28.8,132L1.1,213.6l-27.3-81.7L1.1,104.7 M1.1,94.1l-35.8,35.7L1.1,237.2L37.5,130
											L1.1,94.1L1.1,94.1z"/>
									</g>
								</g>
							</g>
							<g id="XMLID_298_">
								<g id="XMLID_299_">
									<g id="XMLID_300_">
										<polygon class="st4" points="-19.5,141.9 1.1,121.3 22.2,142 1.1,204.1 										"/>
										<path class="st5" d="M1.1,126.6l16.8,16.5L1.2,192.4L-15.3,143L1.1,126.6 M1.1,116l-24.9,25l24.9,74.8L26.5,141L1.1,116
											L1.1,116z"/>
									</g>
								</g>
							</g>
							<g id="XMLID_295_">
								<g id="XMLID_296_">
									<g id="XMLID_297_">
										<polygon class="st4" points="-9.4,150.8 1.2,140.1 12.1,150.8 1.2,182.6 										"/>
										<path class="st5" d="M1.2,145.4l6.5,6.4l-6.4,19.1l-6.4-19.1L1.2,145.4 M1.2,134.9l-14.9,14.8l14.9,44.7l15.1-44.7
											L1.2,134.9L1.2,134.9z"/>
									</g>
								</g>
							</g>
							<g id="XMLID_292_">
								<g id="XMLID_293_">
									<g id="XMLID_294_">
										<polygon class="st4" points="-0.5,158.4 1.3,156.6 3.2,158.4 1.3,163.8 										"/>
										<polygon class="st5" points="1.3,151.2 -4.8,157.3 1.3,175.6 7.4,157.3 										"/>
									</g>
								</g>
							</g>
						</g>
					</g>
					<g>
						<g>
							<g id="XMLID_1401_">
								<g id="XMLID_1402_">
									<g id="XMLID_1403_">
										<polygon class="st4" points="5.8,166.3 71.6,100.4 138.7,166.4 71.7,363.8 										"/>
										<path class="st5" d="M71.7,105.8l62.7,61.7L71.7,352L10.1,167.3L71.7,105.8 M71.6,95.2l-70.1,70l70.1,210.3L143,165.3
											L71.6,95.2L71.6,95.2z"/>
									</g>
								</g>
							</g>
							<g id="XMLID_1397_">
								<g id="XMLID_1398_">
									<g id="XMLID_1399_">
										<polygon class="st4" points="17.3,179.2 71.8,124.8 127.2,179.3 71.8,342.4 										"/>
										<path class="st5" d="M71.8,130l51,50.2l-51,150.4L21.6,180.2L71.8,130 M71.7,119.5L13,178.2l58.7,176l59.7-175.9
											L71.7,119.5L71.7,119.5z"/>
									</g>
								</g>
							</g>
							<g id="XMLID_1393_">
								<g id="XMLID_1394_">
									<g id="XMLID_1395_">
										<polygon class="st4" points="29.4,191 71.9,148.6 115.1,191.1 71.9,318.5 										"/>
										<path class="st5" d="M71.9,153.9l38.9,38.3L71.9,306.7L33.7,192.1L71.9,153.9 M71.9,143.3L25.1,190l46.8,140.2L119.4,190
											L71.9,143.3L71.9,143.3z"/>
									</g>
								</g>
							</g>
							<g id="XMLID_1389_">
								<g id="XMLID_1390_">
									<g id="XMLID_1391_">
										<polygon class="st4" points="40.5,201.1 71.9,169.6 104,201.1 71.9,295.5 										"/>
										<path class="st5" d="M71.9,174.9l27.7,27.3l-27.7,81.7l-27.2-81.7L71.9,174.9 M71.9,164.3L36.1,200l35.8,107.2L108.3,200
											L71.9,164.3L71.9,164.3z"/>
									</g>
								</g>
							</g>
							<g id="XMLID_1385_">
								<g id="XMLID_1386_">
									<g id="XMLID_1387_">
										<polygon class="st4" points="51.3,212.1 72,191.5 93.1,212.1 72.1,274.3 										"/>
										<path class="st5" d="M72.1,196.7l16.8,16.5l-16.7,49.3l-16.5-49.4L72.1,196.7 M72,186.1L47.1,211L72,285.9l25.4-74.8
											L72,186.1L72,186.1z"/>
									</g>
								</g>
							</g>
							<g id="XMLID_1381_">
								<g id="XMLID_1382_">
									<g id="XMLID_1383_">
										<polygon class="st4" points="61.5,220.9 72.2,210.3 83,220.9 72.2,252.8 										"/>
										<path class="st5" d="M72.2,215.6l6.5,6.4l-6.4,19.1L65.8,222L72.2,215.6 M72.1,205l-14.9,14.8l14.9,44.7l15.1-44.6
											L72.1,205L72.1,205z"/>
									</g>
								</g>
							</g>
							<g id="XMLID_1377_">
								<g id="XMLID_1378_">
									<g id="XMLID_1379_">
										<polygon class="st4" points="70.4,228.5 72.2,226.7 74,228.6 72.2,234 										"/>
										<polygon class="st5" points="72.2,221.4 66.1,227.5 72.2,245.7 78.4,227.5 										"/>
									</g>
								</g>
							</g>
						</g>
					</g>
					<g>
						<g>
							<g id="XMLID_184_">
								<g id="XMLID_185_">
									<g id="XMLID_186_">
										<polygon class="st4" points="76.4,187.3 142.3,121.6 209.3,187.5 142.3,384.9 										"/>
										<path class="st5" d="M142.3,126.8l62.7,61.7l-62.6,184.7L80.7,188.4L142.3,126.8 M142.2,116.2l-70.1,70.1l70.1,210.4
											l71.3-210.2L142.2,116.2L142.2,116.2z"/>
									</g>
								</g>
							</g>
							<g id="XMLID_181_">
								<g id="XMLID_182_">
									<g id="XMLID_183_">
										<polygon class="st4" points="87.9,200.2 142.4,145.9 197.7,200.4 142.4,363.5 										"/>
										<path class="st5" d="M142.4,151.2l51,50.2l-51,150.4L92.2,201.3L142.4,151.2 M142.4,140.6l-58.7,58.7l58.7,176l59.7-175.9
											L142.4,140.6L142.4,140.6z"/>
									</g>
								</g>
							</g>
							<g id="XMLID_178_">
								<g id="XMLID_179_">
									<g id="XMLID_180_">
										<polygon class="st4" points="100,212.1 142.4,169.7 185.7,212.2 142.4,339.5 										"/>
										<path class="st5" d="M142.4,175l38.9,38.3l-38.9,114.6l-38.3-114.6L142.4,175 M142.4,164.4l-46.8,46.7l46.8,140.2
											L190,211.2L142.4,164.4L142.4,164.4z"/>
									</g>
								</g>
							</g>
							<g id="XMLID_175_">
								<g id="XMLID_176_">
									<g id="XMLID_177_">
										<polygon class="st4" points="111.1,222.2 142.5,190.7 174.6,222.3 142.6,316.7 										"/>
										<path class="st5" d="M142.6,196l27.7,27.3L142.6,305l-27.3-81.7L142.6,196 M142.5,185.5l-35.8,35.7l35.8,107.2l36.4-107.2
											L142.5,185.5L142.5,185.5z"/>
									</g>
								</g>
							</g>
							<g id="XMLID_172_">
								<g id="XMLID_173_">
									<g id="XMLID_174_">
										<polygon class="st4" points="121.9,233.2 142.7,212.5 163.7,233.3 142.7,295.3 										"/>
										<path class="st5" d="M142.7,217.8l16.8,16.5l-16.7,49.3l-16.5-49.4L142.7,217.8 M142.6,207.3l-24.9,24.9l24.9,74.8
											l25.4-74.8L142.6,207.3L142.6,207.3z"/>
									</g>
								</g>
							</g>
							<g id="XMLID_169_">
								<g id="XMLID_170_">
									<g id="XMLID_171_">
										<polygon class="st4" points="132.1,242 142.7,231.4 153.5,242 142.7,273.9 										"/>
										<path class="st5" d="M142.7,236.7l6.5,6.4l-6.4,19.1l-6.4-19.1L142.7,236.7 M142.7,226.2L127.8,241l14.9,44.7l15.1-44.6
											L142.7,226.2L142.7,226.2z"/>
									</g>
								</g>
							</g>
							<g id="XMLID_166_">
								<g id="XMLID_167_">
									<g id="XMLID_168_">
										<polygon class="st4" points="140.9,249.6 142.8,247.8 144.7,249.6 142.8,255.1 										"/>
										<polygon class="st5" points="142.7,242.5 136.7,248.6 142.7,266.8 149,248.6 										"/>
									</g>
								</g>
							</g>
						</g>
						<g>
							<g id="XMLID_163_">
								<g id="XMLID_164_">
									<g id="XMLID_165_">
										<polygon class="st4" points="-65.1,187.3 0.8,121.6 67.7,187.5 0.8,384.9 										"/>
										<path class="st5" d="M0.8,126.8l62.7,61.7L0.8,373.2l-61.7-184.8L0.8,126.8 M0.8,116.2l-70.1,70.1L0.8,396.7l71.3-210.2
											L0.8,116.2L0.8,116.2z"/>
									</g>
								</g>
							</g>
							<g id="XMLID_160_">
								<g id="XMLID_161_">
									<g id="XMLID_162_">
										<polygon class="st4" points="-53.6,200.2 0.8,145.9 56.2,200.4 0.8,363.5 										"/>
										<path class="st5" d="M0.9,151.2l51,50.2l-51,150.4l-50.2-150.4L0.9,151.2 M0.8,140.6l-58.7,58.7l58.7,176l59.7-175.9
											L0.8,140.6L0.8,140.6z"/>
									</g>
								</g>
							</g>
							<g id="XMLID_157_">
								<g id="XMLID_158_">
									<g id="XMLID_159_">
										<polygon class="st4" points="-41.6,212.1 1,169.7 44.2,212.2 1,339.5 										"/>
										<path class="st5" d="M1,175l38.9,38.3L1,327.8l-38.3-114.6L1,175 M0.9,164.4l-46.8,46.7L0.9,351.3l47.6-140.1L0.9,164.4
											L0.9,164.4z"/>
									</g>
								</g>
							</g>
							<g id="XMLID_154_">
								<g id="XMLID_155_">
									<g id="XMLID_156_">
										<polygon class="st4" points="-30.5,222.2 1.1,190.7 33.1,222.3 1.1,316.7 										"/>
										<path class="st5" d="M1.1,196l27.7,27.3L1.1,304.9l-27.3-81.7L1.1,196 M1.1,185.5l-35.8,35.7L1.1,328.4l36.3-107.2
											L1.1,185.5L1.1,185.5z"/>
									</g>
								</g>
							</g>
							<g id="XMLID_151_">
								<g id="XMLID_152_">
									<g id="XMLID_153_">
										<polygon class="st4" points="-19.5,233.2 1.1,212.5 22.2,233.3 1.1,295.3 										"/>
										<path class="st5" d="M1.1,217.8l16.8,16.5L1.2,283.6l-16.5-49.4L1.1,217.8 M1.1,207.3l-24.9,24.9L1.1,307l25.4-74.8
											L1.1,207.3L1.1,207.3z"/>
									</g>
								</g>
							</g>
							<g id="XMLID_148_">
								<g id="XMLID_149_">
									<g id="XMLID_150_">
										<polygon class="st4" points="-9.4,242 1.2,231.4 12.1,242 1.2,273.9 										"/>
										<path class="st5" d="M1.2,236.7l6.5,6.4l-6.4,19.1l-6.4-19.1L1.2,236.7 M1.2,226.2L-13.7,241l14.9,44.7L16.3,241
											L1.2,226.2L1.2,226.2z"/>
									</g>
								</g>
							</g>
							<g id="XMLID_145_">
								<g id="XMLID_146_">
									<g id="XMLID_147_">
										<polygon class="st4" points="-0.5,249.6 1.3,247.8 3.2,249.6 1.3,255.1 										"/>
										<polygon class="st5" points="1.3,242.5 -4.8,248.6 1.3,266.8 7.4,248.6 										"/>
									</g>
								</g>
							</g>
						</g>
					</g>
					<g>
						<g>
							<g id="XMLID_654_">
								<g id="XMLID_655_">
									<g id="XMLID_776_">
										<polygon class="st4" points="3.6,257 71.6,189.1 140.9,257.1 71.6,461 										"/>
										<path class="st5" d="M71.6,191.7l67,65.9L71.7,455L5.8,257.5L71.6,191.7 M71.6,186.4L1.5,256.5l70.1,210.3L143,256.6
											L71.6,186.4L71.6,186.4z"/>
									</g>
								</g>
							</g>
							<g id="XMLID_650_">
								<g id="XMLID_651_">
									<g id="XMLID_652_">
										<polygon class="st4" points="15.1,269.9 71.8,213.4 129.3,270 71.8,439.5 										"/>
										<path class="st5" d="M71.8,216l55.4,54.5L71.8,433.7L17.3,270.4L71.8,216 M71.7,210.8L13,269.5l58.7,176l59.7-175.9
											L71.7,210.8L71.7,210.8z"/>
									</g>
								</g>
							</g>
							<g id="XMLID_630_">
								<g id="XMLID_631_">
									<g id="XMLID_648_">
										<polygon class="st4" points="27.2,281.8 71.9,237.2 117.3,281.8 71.9,415.6 										"/>
										<path class="st5" d="M71.9,239.9l43.2,42.5L71.9,409.7L29.4,282.3L71.9,239.9 M71.9,234.5l-46.8,46.7l46.8,140.2
											l47.6-140.1L71.9,234.5L71.9,234.5z"/>
									</g>
								</g>
							</g>
							<g id="XMLID_626_">
								<g id="XMLID_627_">
									<g id="XMLID_628_">
										<polygon class="st4" points="38.3,291.9 71.9,258.2 106.2,291.9 71.9,392.7 										"/>
										<path class="st5" d="M71.9,260.8l32.1,31.5l-32.1,94.4l-31.5-94.5L71.9,260.8 M71.9,255.6l-35.8,35.7l35.8,107.2
											l36.4-107.2L71.9,255.6L71.9,255.6z"/>
									</g>
								</g>
							</g>
							<g id="XMLID_622_">
								<g id="XMLID_623_">
									<g id="XMLID_624_">
										<polygon class="st4" points="49.2,302.9 72,280.1 95.2,303 72,371.4 										"/>
										<path class="st5" d="M72,282.7l21.1,20.8l-21.1,62l-20.8-62.1L72,282.7 M72,277.4l-24.9,24.9L72,377.2l25.4-74.8L72,277.4
											L72,277.4z"/>
									</g>
								</g>
							</g>
							<g id="XMLID_618_">
								<g id="XMLID_619_">
									<g id="XMLID_620_">
										<polygon class="st4" points="59.4,311.6 72.1,298.9 85.1,311.7 72.1,349.9 										"/>
										<path class="st5" d="M72.2,301.6L83,312.2L72.2,344l-10.6-31.8L72.2,301.6 M72.1,296.3l-14.9,14.8l14.9,44.7l15.1-44.6
											L72.1,296.3L72.1,296.3z"/>
									</g>
								</g>
							</g>
							<g id="XMLID_614_">
								<g id="XMLID_615_">
									<g id="XMLID_616_">
										<polygon class="st4" points="68.3,319.3 72.2,315.3 76.2,319.3 72.2,331.1 										"/>
										<path class="st5" d="M72.2,317.9l1.9,1.8l-1.9,5.5l-1.8-5.5L72.2,317.9 M72.2,312.7l-6.1,6.1l6.1,18.2l6.2-18.2
											L72.2,312.7L72.2,312.7z"/>
									</g>
								</g>
							</g>
						</g>
					</g>
					<g>
						<g>
							<g id="XMLID_121_">
								<g id="XMLID_122_">
									<g id="XMLID_123_">
										<polygon class="st4" points="74.2,278.2 142.2,210.2 211.4,278.2 142.2,482 										"/>
										<path class="st5" d="M142.3,212.8l67,65.9l-67,197.4L76.4,278.6L142.3,212.8 M142.2,207.6l-70.1,70.1L142.2,488
											l71.3-210.2L142.2,207.6L142.2,207.6z"/>
									</g>
								</g>
							</g>
							<g id="XMLID_118_">
								<g id="XMLID_119_">
									<g id="XMLID_120_">
										<polygon class="st4" points="85.7,291 142.4,234.5 199.9,291.1 142.4,460.7 										"/>
										<path class="st5" d="M142.4,237.2l55.4,54.5l-55.4,163.2L87.9,291.6L142.4,237.2 M142.4,231.9l-58.7,58.7l58.7,176
											l59.7-175.9L142.4,231.9L142.4,231.9z"/>
									</g>
								</g>
							</g>
							<g id="XMLID_115_">
								<g id="XMLID_116_">
									<g id="XMLID_117_">
										<polygon class="st4" points="97.8,302.9 142.4,258.3 187.8,303 142.4,436.7 										"/>
										<path class="st5" d="M142.4,261l43.2,42.5l-43.2,127.4L100,303.4L142.4,261 M142.4,255.7l-46.8,46.7l46.8,140.2L190,302.4
											L142.4,255.7L142.4,255.7z"/>
									</g>
								</g>
							</g>
							<g id="XMLID_112_">
								<g id="XMLID_113_">
									<g id="XMLID_114_">
										<polygon class="st4" points="108.9,312.9 142.5,279.4 176.8,313 142.5,413.8 										"/>
										<path class="st5" d="M142.5,282l32.1,31.5l-32.1,94.4L111,313.4L142.5,282 M142.5,276.7l-35.8,35.7l35.8,107.2l36.4-107.2
											L142.5,276.7L142.5,276.7z"/>
									</g>
								</g>
							</g>
							<g id="XMLID_109_">
								<g id="XMLID_110_">
									<g id="XMLID_111_">
										<polygon class="st4" points="119.8,324 142.6,301.2 165.9,324 142.7,392.5 										"/>
										<path class="st5" d="M142.7,303.9l21.1,20.8l-21.1,62l-20.8-62.1L142.7,303.9 M142.6,298.5l-24.9,24.9l24.9,74.8
											l25.4-74.8L142.6,298.5L142.6,298.5z"/>
									</g>
								</g>
							</g>
							<g id="XMLID_106_">
								<g id="XMLID_107_">
									<g id="XMLID_108_">
										<polygon class="st4" points="129.9,332.8 142.7,320 155.7,332.8 142.7,371.1 										"/>
										<path class="st5" d="M142.7,322.7l10.8,10.6l-10.8,31.8l-10.6-31.8L142.7,322.7 M142.7,317.4l-14.9,14.8l14.9,44.7
											l15.1-44.6L142.7,317.4L142.7,317.4z"/>
									</g>
								</g>
							</g>
							<g id="XMLID_103_">
								<g id="XMLID_104_">
									<g id="XMLID_105_">
										<polygon class="st4" points="138.8,340.3 142.8,336.4 146.8,340.4 142.8,352.3 										"/>
										<path class="st5" d="M142.8,339.1l1.9,1.8l-1.9,5.5l-1.8-5.5L142.8,339.1 M142.7,333.8l-6.1,6.1l6.1,18.2l6.2-18.2
											L142.7,333.8L142.7,333.8z"/>
									</g>
								</g>
							</g>
						</g>
						<g>
							<g id="XMLID_142_">
								<g id="XMLID_143_">
									<g id="XMLID_144_">
										<polygon class="st4" points="-67.3,278.2 0.8,210.2 69.9,278.2 0.8,482 										"/>
										<path class="st5" d="M0.8,212.8l67,65.9l-67,197.4l-65.9-197.6L0.8,212.8 M0.8,207.6l-70.1,70.1L0.8,487.9l71.3-210.2
											L0.8,207.6L0.8,207.6z"/>
									</g>
								</g>
							</g>
							<g id="XMLID_139_">
								<g id="XMLID_140_">
									<g id="XMLID_141_">
										<polygon class="st4" points="-55.7,291 0.8,234.5 58.4,291.1 0.8,460.7 										"/>
										<path class="st5" d="M0.8,237.2l55.4,54.5L0.8,454.8l-54.5-163.3L0.8,237.2 M0.8,231.9l-58.7,58.7l58.7,176l59.7-175.9
											L0.8,231.9L0.8,231.9z"/>
									</g>
								</g>
							</g>
							<g id="XMLID_136_">
								<g id="XMLID_137_">
									<g id="XMLID_138_">
										<polygon class="st4" points="-43.7,302.9 0.9,258.3 46.3,303 1,436.7 										"/>
										<path class="st5" d="M1,261l43.2,42.5L1,430.8l-42.5-127.4L1,261 M0.9,255.7l-46.8,46.7L0.9,442.5l47.6-140.1L0.9,255.7
											L0.9,255.7z"/>
									</g>
								</g>
							</g>
							<g id="XMLID_133_">
								<g id="XMLID_134_">
									<g id="XMLID_135_">
										<polygon class="st4" points="-32.6,312.9 1.1,279.4 35.2,313 1.1,413.8 										"/>
										<path class="st5" d="M1.1,282l32.1,31.5L1.1,407.9l-31.5-94.5L1.1,282 M1.1,276.7l-35.8,35.7L1.1,419.7l36.4-107.2
											L1.1,276.7L1.1,276.7z"/>
									</g>
								</g>
							</g>
							<g id="XMLID_130_">
								<g id="XMLID_131_">
									<g id="XMLID_132_">
										<polygon class="st4" points="-21.7,324 1.1,301.2 24.4,324 1.1,392.5 										"/>
										<path class="st5" d="M1.1,303.9l21.1,20.8l-21.1,62l-20.8-62.1L1.1,303.9 M1.1,298.5l-24.9,24.9l24.9,74.8l25.4-74.8
											L1.1,298.5L1.1,298.5z"/>
									</g>
								</g>
							</g>
							<g id="XMLID_127_">
								<g id="XMLID_128_">
									<g id="XMLID_129_">
										<polygon class="st4" points="-11.5,332.8 1.2,320 14.2,332.8 1.2,371.1 										"/>
										<path class="st5" d="M1.2,322.7L12,333.3L1.2,365.1l-10.6-31.8L1.2,322.7 M1.2,317.4l-14.9,14.8l14.9,44.7l15.1-44.6
											L1.2,317.4L1.2,317.4z"/>
									</g>
								</g>
							</g>
							<g id="XMLID_124_">
								<g id="XMLID_125_">
									<g id="XMLID_126_">
										<polygon class="st4" points="-2.7,340.3 1.3,336.4 5.3,340.4 1.3,352.3 										"/>
										<path class="st5" d="M1.3,339.1l1.9,1.8l-1.9,5.5l-1.8-5.5L1.3,339.1 M1.3,333.8l-6.1,6.1l6.1,18.2l6.2-18.2L1.3,333.8
											L1.3,333.8z"/>
									</g>
								</g>
							</g>
						</g>
					</g>
				</g>
			</g>
			<g>
				<defs>
					<rect id="SVGID_9_" x="-0.5" width="143.3" height="830.2"/>
				</defs>
				<clipPath id="SVGID_10_">
					<use xlink:href="#SVGID_9_"  style="overflow:visible;"/>
				</clipPath>
				<g class="st6">
					<g>
						<g>
							<g id="XMLID_1657_">
								<g id="XMLID_1658_">
									<g id="XMLID_1659_">
										<polygon class="st4" points="143.2,542.8 210.2,740.3 143.2,806.2 77.2,740.4 										"/>
										<path class="st5" d="M143.2,800.9l-61.7-61.6l61.7-184.8l62.7,184.7L143.2,800.9 M143.1,811.5l71.3-70.2l-71.3-210.2
											L73,741.4L143.1,811.5L143.1,811.5z"/>
									</g>
								</g>
							</g>
							<g id="XMLID_1654_">
								<g id="XMLID_1655_">
									<g id="XMLID_1656_">
										<polygon class="st4" points="143.3,564.3 198.6,727.4 143.3,781.8 88.8,727.5 										"/>
										<path class="st5" d="M143.3,776.6l-50.2-50.1L143.3,576l51,150.4L143.3,776.6 M143.3,787.1l59.6-58.7l-59.6-175.9
											l-58.7,176L143.3,787.1L143.3,787.1z"/>
									</g>
								</g>
							</g>
							<g id="XMLID_1651_">
								<g id="XMLID_1652_">
									<g id="XMLID_1653_">
										<polygon class="st4" points="143.3,588.2 186.6,715.5 143.3,758.1 100.9,715.6 										"/>
										<path class="st5" d="M143.3,752.8L105,714.5l38.3-114.6l38.9,114.6L143.3,752.8 M143.3,763.3l47.6-46.8l-47.6-140.1
											L96.6,716.6L143.3,763.3L143.3,763.3z"/>
									</g>
								</g>
							</g>
							<g id="XMLID_1648_">
								<g id="XMLID_1649_">
									<g id="XMLID_1650_">
										<polygon class="st4" points="143.5,611.1 175.5,705.5 143.4,737 111.9,705.6 										"/>
										<path class="st5" d="M143.5,731.8l-27.3-27.2l27.3-81.7l27.7,81.7L143.5,731.8 M143.4,742.3l36.4-35.8l-36.4-107.1
											l-35.8,107.2L143.4,742.3L143.4,742.3z"/>
									</g>
								</g>
							</g>
							<g id="XMLID_1645_">
								<g id="XMLID_1646_">
									<g id="XMLID_1647_">
										<polygon class="st4" points="143.6,632.4 164.6,694.5 143.6,715.2 122.8,694.5 										"/>
										<path class="st5" d="M143.6,709.9l-16.4-16.4l16.5-49.4l16.7,49.3L143.6,709.9 M143.5,720.5l25.4-24.9l-25.4-74.8
											l-24.9,74.8L143.5,720.5L143.5,720.5z"/>
									</g>
								</g>
							</g>
							<g id="XMLID_1642_">
								<g id="XMLID_1643_">
									<g id="XMLID_1644_">
										<polygon class="st4" points="143.6,653.9 154.4,685.7 143.6,696.3 133,685.7 										"/>
										<path class="st5" d="M143.6,691.1l-6.3-6.4l6.4-19.1l6.4,19.1L143.6,691.1 M143.6,701.6l15.1-14.9l-15.1-44.6l-14.9,44.7
											L143.6,701.6L143.6,701.6z"/>
									</g>
								</g>
							</g>
							<g id="XMLID_1639_">
								<g id="XMLID_1640_">
									<g id="XMLID_1641_">
										<polygon class="st4" points="143.7,672.7 145.6,678.1 143.7,679.9 141.8,678.1 										"/>
										<polygon class="st5" points="149.9,679.2 143.6,660.9 137.6,679.2 143.6,685.3 										"/>
									</g>
								</g>
							</g>
						</g>
						<g>
							<g id="XMLID_1636_">
								<g id="XMLID_1637_">
									<g id="XMLID_1638_">
										<polygon class="st4" points="0.8,542.9 67.8,740.4 0.8,806.2 -65.1,740.4 										"/>
										<path class="st5" d="M0.8,801l-61.6-61.6L0.9,554.6l62.6,184.7L0.8,801 M0.8,811.5l71.3-70.2L0.8,531.1l-70.1,210.4
											L0.8,811.5L0.8,811.5z"/>
									</g>
								</g>
							</g>
							<g id="XMLID_1633_">
								<g id="XMLID_1634_">
									<g id="XMLID_1635_">
										<polygon class="st4" points="0.9,564.3 56.2,727.5 0.9,781.9 -53.5,727.5 										"/>
										<path class="st5" d="M0.9,776.6l-50.2-50.1L0.9,576.1l51,150.4L0.9,776.6 M0.9,787.2l59.7-58.7l-59.7-176l-58.7,176
											L0.9,787.2L0.9,787.2z"/>
									</g>
								</g>
							</g>
							<g id="XMLID_1630_">
								<g id="XMLID_1631_">
									<g id="XMLID_1632_">
										<polygon class="st4" points="1,588.3 44.2,715.6 1,758.1 -41.6,715.6 										"/>
										<path class="st5" d="M1,752.8l-38.3-38.2L1,600l38.9,114.6L1,752.8 M0.9,763.4l47.6-46.8L0.9,576.5l-46.8,140.2L0.9,763.4
											L0.9,763.4z"/>
									</g>
								</g>
							</g>
							<g id="XMLID_1627_">
								<g id="XMLID_1628_">
									<g id="XMLID_1629_">
										<polygon class="st4" points="1.1,611.1 33.1,705.5 1.1,737.1 -30.5,705.6 										"/>
										<path class="st5" d="M1.1,731.8l-27.3-27.2l27.3-81.7l27.7,81.7L1.1,731.8 M1.1,742.4l36.4-35.8L1.1,599.4l-35.8,107.3
											L1.1,742.4L1.1,742.4z"/>
									</g>
								</g>
							</g>
							<g id="XMLID_1624_">
								<g id="XMLID_1625_">
									<g id="XMLID_1626_">
										<polygon class="st4" points="1.2,632.5 22.2,694.5 1.2,715.3 -19.5,694.6 										"/>
										<path class="st5" d="M1.2,709.9l-16.4-16.4l16.5-49.4L18,693.4L1.2,709.9 M1.2,720.5l25.4-24.9L1.2,620.7l-24.9,74.8
											L1.2,720.5L1.2,720.5z"/>
									</g>
								</g>
							</g>
							<g id="XMLID_1621_">
								<g id="XMLID_1622_">
									<g id="XMLID_1623_">
										<polygon class="st4" points="1.2,653.9 12.1,685.7 1.2,696.4 -9.4,685.7 										"/>
										<path class="st5" d="M1.2,691.1l-6.3-6.4l6.4-19.1l6.4,19.1L1.2,691.1 M1.2,701.6l15.1-14.8L1.2,642.1l-14.9,44.7
											L1.2,701.6L1.2,701.6z"/>
									</g>
								</g>
							</g>
							<g id="XMLID_1618_">
								<g id="XMLID_1619_">
									<g id="XMLID_1620_">
										<polygon class="st4" points="1.3,672.7 3.2,678.2 1.3,680 -0.5,678.2 										"/>
										<polygon class="st5" points="7.4,679.2 1.3,660.9 -4.8,679.2 1.3,685.3 										"/>
									</g>
								</g>
							</g>
						</g>
					</g>
					<g>
						<g>
							<g id="XMLID_1312_">
								<g id="XMLID_1316_">
									<g id="XMLID_1320_">
										<polygon class="st4" points="72.6,472.7 139.6,670.1 72.5,736.1 6.7,670.2 										"/>
										<path class="st5" d="M72.6,730.7l-61.7-61.5l61.7-184.8L135.3,669L72.6,730.7 M72.5,741.3l71.3-70.1L72.5,460.9L2.4,671.2
											L72.5,741.3L72.5,741.3z"/>
									</g>
								</g>
							</g>
							<g id="XMLID_1300_">
								<g id="XMLID_1304_">
									<g id="XMLID_1308_">
										<polygon class="st4" points="72.7,494 128,657.2 72.7,711.7 18.2,657.3 										"/>
										<path class="st5" d="M72.7,706.5l-50.2-50.1l50.2-150.5l51,150.4L72.7,706.5 M72.6,716.9l59.7-58.7L72.6,482.3l-58.7,176
											L72.6,716.9L72.6,716.9z"/>
									</g>
								</g>
							</g>
							<g id="XMLID_1288_">
								<g id="XMLID_1292_">
									<g id="XMLID_1296_">
										<polygon class="st4" points="72.8,518 116,645.4 72.8,687.9 30.3,645.5 										"/>
										<path class="st5" d="M72.8,682.6l-38.2-38.2l38.3-114.6l38.8,114.6L72.8,682.6 M72.8,693.2l47.6-46.8L72.8,506.3L26,646.5
											L72.8,693.2L72.8,693.2z"/>
									</g>
								</g>
							</g>
							<g id="XMLID_1276_">
								<g id="XMLID_1280_">
									<g id="XMLID_1284_">
										<polygon class="st4" points="72.8,541 104.9,635.4 72.8,666.9 41.4,635.4 										"/>
										<path class="st5" d="M72.8,661.6l-27.2-27.2l27.2-81.7l27.7,81.7L72.8,661.6 M72.8,672.1l36.4-35.7L72.8,529.2L37,636.4
											L72.8,672.1L72.8,672.1z"/>
									</g>
								</g>
							</g>
							<g id="XMLID_1264_">
								<g id="XMLID_1268_">
									<g id="XMLID_1272_">
										<polygon class="st4" points="73,562.2 94,624.3 72.9,645 52.2,624.3 										"/>
										<path class="st5" d="M73,639.8l-16.4-16.4L73.1,574l16.7,49.3L73,639.8 M72.9,650.3l25.4-24.9l-25.4-74.8L48,625.4
											L72.9,650.3L72.9,650.3z"/>
									</g>
								</g>
							</g>
							<g id="XMLID_1252_">
								<g id="XMLID_1256_">
									<g id="XMLID_1260_">
										<polygon class="st4" points="73.1,583.7 83.8,615.6 73.1,626.2 62.4,615.6 										"/>
										<path class="st5" d="M73.1,620.9l-6.4-6.4l6.4-19.1l6.4,19.1L73.1,620.9 M73,631.5l15.1-14.9L73,572l-14.9,44.7L73,631.5
											L73,631.5z"/>
									</g>
								</g>
							</g>
							<g id="XMLID_1240_">
								<g id="XMLID_1244_">
									<g id="XMLID_1248_">
										<polygon class="st4" points="73.1,602.5 74.9,607.9 73.1,609.8 71.3,608 										"/>
										<polygon class="st5" points="79.3,609 73.1,590.8 67,609 73.1,615.1 										"/>
									</g>
								</g>
							</g>
						</g>
					</g>
					<g>
						<g>
							<g id="XMLID_1066_">
								<g id="XMLID_1067_">
									<g id="XMLID_1068_">
										<polygon class="st4" points="143.2,451.6 210.2,649 143.2,714.9 77.2,649.1 										"/>
										<path class="st5" d="M143.2,709.7l-61.6-61.6l61.7-184.8L205.9,648L143.2,709.7 M143.1,720.2l71.3-70.2l-71.3-210.2
											L73,650.2L143.1,720.2L143.1,720.2z"/>
									</g>
								</g>
							</g>
							<g id="XMLID_1063_">
								<g id="XMLID_1064_">
									<g id="XMLID_1065_">
										<polygon class="st4" points="143.3,473 198.6,636.1 143.3,690.6 88.8,636.3 										"/>
										<path class="st5" d="M143.3,685.3l-50.2-50.1l50.2-150.4l51,150.4L143.3,685.3 M143.3,695.9l59.7-58.7l-59.7-175.9
											l-58.7,176L143.3,695.9L143.3,695.9z"/>
									</g>
								</g>
							</g>
							<g id="XMLID_1060_">
								<g id="XMLID_1061_">
									<g id="XMLID_1062_">
										<polygon class="st4" points="143.3,497 186.6,624.3 143.3,666.8 100.9,624.3 										"/>
										<path class="st5" d="M143.3,661.5L105,623.3l38.3-114.6l38.9,114.6L143.3,661.5 M143.3,672.1l47.6-46.8l-47.6-140.1
											L96.6,625.4L143.3,672.1L143.3,672.1z"/>
									</g>
								</g>
							</g>
							<g id="XMLID_1057_">
								<g id="XMLID_1058_">
									<g id="XMLID_1059_">
										<polygon class="st4" points="143.5,519.8 175.5,614.2 143.4,645.8 111.9,614.3 										"/>
										<path class="st5" d="M143.5,640.5l-27.3-27.2l27.3-81.7l27.7,81.7L143.5,640.5 M143.4,651l36.4-35.7l-36.4-107.2
											l-35.8,107.2L143.4,651L143.4,651z"/>
									</g>
								</g>
							</g>
							<g id="XMLID_1054_">
								<g id="XMLID_1055_">
									<g id="XMLID_1056_">
										<polygon class="st4" points="143.6,541.2 164.6,603.2 143.6,624 122.8,603.3 										"/>
										<path class="st5" d="M143.6,618.6l-16.4-16.4l16.5-49.4l16.7,49.3L143.6,618.6 M143.5,629.2l25.4-24.9l-25.4-74.8
											l-24.9,74.8L143.5,629.2L143.5,629.2z"/>
									</g>
								</g>
							</g>
							<g id="XMLID_1051_">
								<g id="XMLID_1052_">
									<g id="XMLID_1053_">
										<polygon class="st4" points="143.6,562.6 154.4,594.4 143.6,605.1 133,594.4 										"/>
										<path class="st5" d="M143.6,599.8l-6.3-6.4l6.4-19.1l6.4,19.1L143.6,599.8 M143.6,610.3l15.1-14.9l-15.1-44.6l-14.9,44.7
											L143.6,610.3L143.6,610.3z"/>
									</g>
								</g>
							</g>
							<g id="XMLID_1048_">
								<g id="XMLID_1049_">
									<g id="XMLID_1050_">
										<polygon class="st4" points="143.7,581.4 145.6,586.9 143.7,588.7 141.8,586.9 										"/>
										<polygon class="st5" points="149.9,587.9 143.6,569.6 137.6,587.9 143.6,594 										"/>
									</g>
								</g>
							</g>
						</g>
						<g>
							<g id="XMLID_1045_">
								<g id="XMLID_1046_">
									<g id="XMLID_1047_">
										<polygon class="st4" points="0.8,451.6 67.8,649 0.8,714.9 -65.1,649.1 										"/>
										<path class="st5" d="M0.8,709.7l-61.6-61.6L0.9,463.3L63.5,648L0.8,709.7 M0.8,720.2L72.1,650L0.8,439.8l-70.1,210.4
											L0.8,720.2L0.8,720.2z"/>
									</g>
								</g>
							</g>
							<g id="XMLID_1042_">
								<g id="XMLID_1043_">
									<g id="XMLID_1044_">
										<polygon class="st4" points="0.9,473 56.2,636.1 0.9,690.6 -53.5,636.3 										"/>
										<path class="st5" d="M0.9,685.3l-50.2-50.1L0.9,484.8l51,150.4L0.9,685.3 M0.9,695.9l59.7-58.7l-59.7-176l-58.7,176
											L0.9,695.9L0.9,695.9z"/>
									</g>
								</g>
							</g>
							<g id="XMLID_1039_">
								<g id="XMLID_1040_">
									<g id="XMLID_1041_">
										<polygon class="st4" points="1,497 44.2,624.3 1,666.8 -41.6,624.3 										"/>
										<path class="st5" d="M1,661.5l-38.3-38.2L1,508.7l38.9,114.6L1,661.5 M0.9,672.1l47.6-46.8L0.9,485.2l-46.8,140.2
											L0.9,672.1L0.9,672.1z"/>
									</g>
								</g>
							</g>
							<g id="XMLID_1036_">
								<g id="XMLID_1037_">
									<g id="XMLID_1038_">
										<polygon class="st4" points="1.1,519.8 33.1,614.2 1.1,645.8 -30.5,614.3 										"/>
										<path class="st5" d="M1.1,640.5l-27.3-27.2l27.3-81.7l27.7,81.7L1.1,640.5 M1.1,651l36.3-35.7L1.1,508.1l-35.8,107.2
											L1.1,651L1.1,651z"/>
									</g>
								</g>
							</g>
							<g id="XMLID_1033_">
								<g id="XMLID_1034_">
									<g id="XMLID_1035_">
										<polygon class="st4" points="1.2,541.2 22.2,603.2 1.2,624 -19.5,603.3 										"/>
										<path class="st5" d="M1.2,618.6l-16.4-16.4l16.5-49.4L18,602.1L1.2,618.6 M1.2,629.2l25.4-24.9L1.2,529.4l-24.9,74.8
											L1.2,629.2L1.2,629.2z"/>
									</g>
								</g>
							</g>
							<g id="XMLID_1030_">
								<g id="XMLID_1031_">
									<g id="XMLID_1032_">
										<polygon class="st4" points="1.2,562.6 12.1,594.4 1.2,605.1 -9.4,594.4 										"/>
										<path class="st5" d="M1.2,599.8l-6.3-6.4l6.4-19.1l6.4,19.1L1.2,599.8 M1.2,610.3l15.1-14.8L1.2,550.8l-14.9,44.7
											L1.2,610.3L1.2,610.3z"/>
									</g>
								</g>
							</g>
							<g id="XMLID_1027_">
								<g id="XMLID_1028_">
									<g id="XMLID_1029_">
										<polygon class="st4" points="1.3,581.4 3.2,586.9 1.3,588.7 -0.5,586.9 										"/>
										<polygon class="st5" points="7.4,587.9 1.3,569.6 -4.8,587.9 1.3,594 										"/>
									</g>
								</g>
							</g>
						</g>
					</g>
					<g>
						<g>
							<g id="XMLID_877_">
								<g id="XMLID_878_">
									<g id="XMLID_879_">
										<polygon class="st4" points="72.5,375.5 141.8,579.4 72.5,647.4 4.5,579.5 										"/>
										<path class="st5" d="M72.5,644.8L6.7,579l65.9-197.6l66.9,197.4L72.5,644.8 M72.5,650l71.3-70.1L72.5,369.7L2.4,580
											L72.5,650L72.5,650z"/>
									</g>
								</g>
							</g>
							<g id="XMLID_874_">
								<g id="XMLID_875_">
									<g id="XMLID_876_">
										<polygon class="st4" points="72.7,396.9 130.1,566.5 72.7,623.1 16,566.6 										"/>
										<path class="st5" d="M72.7,620.4L18.2,566l54.5-163.3L128,566L72.7,620.4 M72.6,625.7l59.7-58.7L72.6,391L13.9,567
											L72.6,625.7L72.6,625.7z"/>
									</g>
								</g>
							</g>
							<g id="XMLID_871_">
								<g id="XMLID_872_">
									<g id="XMLID_873_">
										<polygon class="st4" points="72.8,420.9 118.2,554.7 72.8,599.2 28.1,554.7 										"/>
										<path class="st5" d="M72.8,596.6l-42.5-42.4l42.5-127.4L116,554.1L72.8,596.6 M72.8,601.9l47.6-46.8l-47.6-140L26,555.3
											L72.8,601.9L72.8,601.9z"/>
									</g>
								</g>
							</g>
							<g id="XMLID_868_">
								<g id="XMLID_869_">
									<g id="XMLID_870_">
										<polygon class="st4" points="72.8,443.8 107.1,544.6 72.8,578.3 39.2,544.6 										"/>
										<path class="st5" d="M72.8,575.6l-31.5-31.5l31.5-94.5l32.1,94.4L72.8,575.6 M72.8,580.9l36.4-35.7L72.8,437.9L37,545.1
											L72.8,580.9L72.8,580.9z"/>
									</g>
								</g>
							</g>
							<g id="XMLID_865_">
								<g id="XMLID_866_">
									<g id="XMLID_867_">
										<polygon class="st4" points="72.9,465.1 96.1,533.5 72.9,556.4 50.1,533.6 										"/>
										<path class="st5" d="M72.9,553.8l-20.8-20.7L72.9,471L94,533L72.9,553.8 M72.9,559.1l25.4-24.9l-25.4-74.8L48,534.1
											L72.9,559.1L72.9,559.1z"/>
									</g>
								</g>
							</g>
							<g id="XMLID_862_">
								<g id="XMLID_863_">
									<g id="XMLID_864_">
										<polygon class="st4" points="73,486.6 86,524.8 73,537.6 60.2,524.8 										"/>
										<path class="st5" d="M73.1,534.9l-10.6-10.6l10.6-31.8l10.8,31.8L73.1,534.9 M73,540.2l15.1-14.9L73,480.7l-14.9,44.7
											L73,540.2L73,540.2z"/>
									</g>
								</g>
							</g>
							<g id="XMLID_859_">
								<g id="XMLID_860_">
									<g id="XMLID_861_">
										<polygon class="st4" points="73.1,505.4 77.1,517.2 73.1,521.2 69.2,517.2 										"/>
										<path class="st5" d="M73.1,518.5l-1.8-1.8l1.8-5.5l1.9,5.5L73.1,518.5 M73.1,523.8l6.2-6.1l-6.2-18.2L67,517.7L73.1,523.8
											L73.1,523.8z"/>
									</g>
								</g>
							</g>
						</g>
					</g>
					<g>
						<g>
							<g id="XMLID_708_">
								<g id="XMLID_709_">
									<g id="XMLID_710_">
										<polygon class="st4" points="142.1,354.5 211.3,558.3 142.1,626.3 74.1,558.3 										"/>
										<path class="st5" d="M142.2,623.7l-65.9-65.8l65.9-197.6l67,197.4L142.2,623.7 M142.1,628.9l71.3-70.1l-71.3-210.2
											L72,558.9L142.1,628.9L142.1,628.9z"/>
									</g>
								</g>
							</g>
							<g id="XMLID_705_">
								<g id="XMLID_706_">
									<g id="XMLID_707_">
										<polygon class="st4" points="142.3,375.8 199.8,545.4 142.3,601.9 85.6,545.4 										"/>
										<path class="st5" d="M142.3,599.3l-54.5-54.4l54.5-163.3l55.4,163.2L142.3,599.3 M142.3,604.6l59.7-58.7L142.3,370
											L83.5,546L142.3,604.6L142.3,604.6z"/>
									</g>
								</g>
							</g>
							<g id="XMLID_702_">
								<g id="XMLID_703_">
									<g id="XMLID_704_">
										<polygon class="st4" points="142.3,399.8 187.7,533.5 142.3,578.2 97.7,533.6 										"/>
										<path class="st5" d="M142.3,575.5l-42.5-42.4l42.5-127.4L185.6,533L142.3,575.5 M142.3,580.8l47.6-46.8l-47.6-140
											L95.6,534.1L142.3,580.8L142.3,580.8z"/>
									</g>
								</g>
							</g>
							<g id="XMLID_699_">
								<g id="XMLID_700_">
									<g id="XMLID_701_">
										<polygon class="st4" points="142.4,422.6 176.6,523.5 142.4,557.1 108.8,523.6 										"/>
										<path class="st5" d="M142.4,554.5L110.9,523l31.5-94.5l32.1,94.4L142.4,554.5 M142.4,559.8l36.4-35.7l-36.4-107.2
											L106.6,524L142.4,559.8L142.4,559.8z"/>
									</g>
								</g>
							</g>
							<g id="XMLID_696_">
								<g id="XMLID_697_">
									<g id="XMLID_698_">
										<polygon class="st4" points="142.6,444 165.8,512.5 142.5,535.3 119.7,512.5 										"/>
										<path class="st5" d="M142.6,532.6L121.8,512l20.8-62.1l21.1,62L142.6,532.6 M142.5,538l25.4-24.9l-25.4-74.8l-25,74.7
											L142.5,538L142.5,538z"/>
									</g>
								</g>
							</g>
							<g id="XMLID_693_">
								<g id="XMLID_694_">
									<g id="XMLID_695_">
										<polygon class="st4" points="142.6,465.4 155.6,503.7 142.6,516.5 129.8,503.7 										"/>
										<path class="st5" d="M142.6,513.8L132,503.2l10.6-31.8l10.8,31.8L142.6,513.8 M142.6,519.1l15.1-14.9l-15.1-44.6
											l-14.9,44.7L142.6,519.1L142.6,519.1z"/>
									</g>
								</g>
							</g>
							<g id="XMLID_690_">
								<g id="XMLID_691_">
									<g id="XMLID_692_">
										<polygon class="st4" points="142.7,484.2 146.7,496.1 142.7,500 138.7,496.1 										"/>
										<path class="st5" d="M142.7,497.4l-1.8-1.8l1.8-5.5l1.9,5.5L142.7,497.4 M142.6,502.7l6.2-6.1l-6.2-18.2l-6.1,18.2
											L142.6,502.7L142.6,502.7z"/>
									</g>
								</g>
							</g>
						</g>
						<g>
							<g id="XMLID_687_">
								<g id="XMLID_688_">
									<g id="XMLID_689_">
										<polygon class="st4" points="0.7,354.5 69.8,558.3 0.7,626.3 -67.4,558.3 										"/>
										<path class="st5" d="M0.7,623.7l-65.9-65.8L0.7,360.3l67,197.4L0.7,623.7 M0.7,628.9L72,558.8L0.7,348.5l-70.1,210.3
											L0.7,628.9L0.7,628.9z"/>
									</g>
								</g>
							</g>
							<g id="XMLID_684_">
								<g id="XMLID_685_">
									<g id="XMLID_686_">
										<polygon class="st4" points="0.7,375.8 58.3,545.4 0.7,601.9 -55.8,545.4 										"/>
										<path class="st5" d="M0.7,599.3L-53.7,545L0.7,381.7l55.4,163.1L0.7,599.3 M0.7,604.6l59.7-58.7L0.7,370L-58,546
											L0.7,604.6L0.7,604.6z"/>
									</g>
								</g>
							</g>
							<g id="XMLID_681_">
								<g id="XMLID_682_">
									<g id="XMLID_683_">
										<polygon class="st4" points="0.9,399.8 46.2,533.5 0.8,578.2 -43.8,533.6 										"/>
										<path class="st5" d="M0.9,575.5l-42.5-42.4L0.9,405.6L44.1,533L0.9,575.5 M0.8,580.8L48.4,534L0.8,394L-46,534.1
											L0.8,580.8L0.8,580.8z"/>
									</g>
								</g>
							</g>
							<g id="XMLID_678_">
								<g id="XMLID_679_">
									<g id="XMLID_680_">
										<polygon class="st4" points="1,422.6 35.1,523.5 1,557.1 -32.7,523.6 										"/>
										<path class="st5" d="M1,554.5L-30.6,523L1,428.6L33,523L1,554.5 M1,559.8L37.4,524L1,416.8L-34.9,524L1,559.8L1,559.8z"/>
									</g>
								</g>
							</g>
							<g id="XMLID_675_">
								<g id="XMLID_676_">
									<g id="XMLID_677_">
										<polygon class="st4" points="1,444 24.3,512.5 1,535.3 -21.8,512.5 										"/>
										<path class="st5" d="M1,532.6L-19.7,512L1,449.8l21.1,62L1,532.6 M1,538l25.4-25L1,438.2L-23.9,513L1,538L1,538z"/>
									</g>
								</g>
							</g>
							<g id="XMLID_672_">
								<g id="XMLID_673_">
									<g id="XMLID_674_">
										<polygon class="st4" points="1.1,465.4 14.1,503.7 1.1,516.5 -11.6,503.7 										"/>
										<path class="st5" d="M1.1,513.8l-10.6-10.6l10.6-31.8l10.8,31.8L1.1,513.8 M1.1,519.1l15.1-14.9L1.1,459.6l-14.9,44.7
											L1.1,519.1L1.1,519.1z"/>
									</g>
								</g>
							</g>
							<g id="XMLID_669_">
								<g id="XMLID_670_">
									<g id="XMLID_671_">
										<polygon class="st4" points="1.2,484.2 5.2,496.1 1.2,500 -2.8,496.1 										"/>
										<path class="st5" d="M1.2,497.4l-1.8-1.8l1.8-5.5l1.9,5.5L1.2,497.4 M1.2,502.7l6.2-6.1l-6.2-18.2l-6.1,18.2L1.2,502.7
											L1.2,502.7z"/>
									</g>
								</g>
							</g>
						</g>
					</g>
				</g>
			</g>
		</g>
	</g>
</g>
</svg>
