<?xml version="1.0" encoding="utf-8"?>
<!-- Generator: Adobe Illustrator 19.2.0, SVG Export Plug-In . SVG Version: 6.00 Build 0)  -->
<svg version="1.1" id="Layer_1" xmlns="http://www.w3.org/2000/svg" xmlns:xlink="http://www.w3.org/1999/xlink" x="0px" y="0px"
	 viewBox="0 0 107.1 1214.2" style="enable-background:new 0 0 107.1 1214.2;" xml:space="preserve">
<style type="text/css">
	.st0{clip-path:url(#SVGID_2_);}
	.st1{fill:#F2E0C3;stroke:#FFFFFF;stroke-width:3;stroke-miterlimit:10;}
	.st2{fill:none;stroke:#FFFFFF;stroke-width:3;stroke-miterlimit:10;}
</style>
<title>bg-2</title>
<g>
	<defs>
		<rect id="SVGID_1_" width="107.1" height="1214.2"/>
	</defs>
	<clipPath id="SVGID_2_">
		<use xlink:href="#SVGID_1_"  style="overflow:visible;"/>
	</clipPath>
	<g class="st0">
		<g>
			<polygon class="st1" points="0,155.3 53.5,102.3 107.7,155.5 53.5,314.9 			"/>
			<polygon class="st1" points="-54,335.9 -0.4,388.9 53.7,335.7 -0.4,176.3 			"/>
			<polygon class="st1" points="54,335.9 107.5,388.9 161.6,335.7 107.5,176.3 			"/>
			<polygon class="st1" points="0,407.3 53.5,354.3 107.7,407.5 53.5,566.9 			"/>
			<polygon class="st1" points="-54,598.9 -0.4,651.9 53.7,598.7 -0.4,439.3 			"/>
			<polygon class="st1" points="54,598.9 107.5,651.9 161.6,598.7 107.5,439.3 			"/>
			<polygon class="st1" points="0,652.3 53.5,599.3 107.7,652.5 53.5,811.9 			"/>
			<polygon class="st1" points="-54,843.9 -0.4,896.9 53.7,843.7 -0.4,684.3 			"/>
			<polygon class="st1" points="54,843.9 107.5,896.9 161.6,843.7 107.5,684.3 			"/>
			<polygon class="st1" points="0,915.3 53.5,862.3 107.7,915.5 53.5,1074.9 			"/>
			<polygon class="st1" points="-54,1095.9 -0.4,1148.9 53.7,1095.7 -0.4,936.3 			"/>
			<polygon class="st1" points="54,1095.9 107.5,1148.9 161.6,1095.7 107.5,936.3 			"/>
		</g>
		<line class="st2" x1="42.4" y1="113.5" x2="96.7" y2="187.2"/>
		<line class="st2" x1="31.8" y1="124.2" x2="85.9" y2="219"/>
		<line class="st2" x1="21.3" y1="134.9" x2="75.1" y2="250.9"/>
		<line class="st2" x1="10.6" y1="145.8" x2="64.3" y2="282.7"/>
		<line class="st2" x1="64.9" y1="113.5" x2="10.6" y2="187.2"/>
		<line class="st2" x1="75.5" y1="124.2" x2="21.3" y2="219"/>
		<line class="st2" x1="86" y1="134.9" x2="32.2" y2="250.9"/>
		<line class="st2" x1="96.7" y1="145.8" x2="43" y2="282.7"/>
		<line class="st2" x1="-11.6" y1="377.8" x2="42.7" y2="304"/>
		<line class="st2" x1="-22.1" y1="367" x2="32" y2="272.3"/>
		<line class="st2" x1="-32.7" y1="356.3" x2="21.1" y2="240.3"/>
		<line class="st2" x1="-43.4" y1="345.4" x2="10.4" y2="208.5"/>
		<line class="st2" x1="10.9" y1="377.8" x2="-43.4" y2="304"/>
		<line class="st2" x1="21.5" y1="367" x2="-32.6" y2="272.3"/>
		<line class="st2" x1="32.1" y1="356.3" x2="-21.8" y2="240.3"/>
		<line class="st2" x1="42.7" y1="345.4" x2="-11" y2="208.5"/>
		<line class="st2" x1="96.4" y1="377.8" x2="150.7" y2="304"/>
		<line class="st2" x1="85.8" y1="367" x2="139.9" y2="272.3"/>
		<line class="st2" x1="75.3" y1="356.3" x2="129.1" y2="240.3"/>
		<line class="st2" x1="64.6" y1="345.4" x2="118.3" y2="208.5"/>
		<line class="st2" x1="118.9" y1="377.8" x2="64.6" y2="304"/>
		<line class="st2" x1="129.5" y1="367" x2="75.3" y2="272.3"/>
		<line class="st2" x1="140" y1="356.3" x2="86.2" y2="240.3"/>
		<line class="st2" x1="150.7" y1="345.4" x2="97" y2="208.5"/>
		<line class="st2" x1="42.4" y1="365.5" x2="96.7" y2="439.2"/>
		<line class="st2" x1="31.8" y1="376.2" x2="85.9" y2="471"/>
		<line class="st2" x1="21.3" y1="386.9" x2="75.1" y2="502.9"/>
		<line class="st2" x1="10.6" y1="397.8" x2="64.3" y2="534.7"/>
		<line class="st2" x1="64.9" y1="365.5" x2="10.6" y2="439.2"/>
		<line class="st2" x1="75.5" y1="376.2" x2="21.3" y2="471"/>
		<line class="st2" x1="86" y1="386.9" x2="32.2" y2="502.9"/>
		<line class="st2" x1="96.7" y1="397.8" x2="43" y2="534.7"/>
		<line class="st2" x1="-11.6" y1="640.8" x2="42.7" y2="567"/>
		<line class="st2" x1="-22.1" y1="630" x2="32" y2="535.3"/>
		<line class="st2" x1="-32.7" y1="619.3" x2="21.1" y2="503.3"/>
		<line class="st2" x1="-43.4" y1="608.4" x2="10.4" y2="471.5"/>
		<line class="st2" x1="10.9" y1="640.8" x2="-43.4" y2="567"/>
		<line class="st2" x1="21.5" y1="630" x2="-32.6" y2="535.3"/>
		<line class="st2" x1="32.1" y1="619.3" x2="-21.8" y2="503.3"/>
		<line class="st2" x1="42.7" y1="608.4" x2="-11" y2="471.5"/>
		<line class="st2" x1="96.4" y1="640.8" x2="150.7" y2="567"/>
		<line class="st2" x1="85.8" y1="630" x2="139.9" y2="535.3"/>
		<line class="st2" x1="75.3" y1="619.3" x2="129.1" y2="503.3"/>
		<line class="st2" x1="64.6" y1="608.4" x2="118.3" y2="471.5"/>
		<line class="st2" x1="118.9" y1="640.8" x2="64.6" y2="567"/>
		<line class="st2" x1="129.5" y1="630" x2="75.3" y2="535.3"/>
		<line class="st2" x1="140" y1="619.3" x2="86.2" y2="503.3"/>
		<line class="st2" x1="150.7" y1="608.4" x2="97" y2="471.5"/>
		<line class="st2" x1="42.4" y1="610.5" x2="96.7" y2="684.2"/>
		<line class="st2" x1="31.8" y1="621.2" x2="85.9" y2="716"/>
		<line class="st2" x1="21.3" y1="631.9" x2="75.1" y2="747.9"/>
		<line class="st2" x1="10.6" y1="642.8" x2="64.3" y2="779.7"/>
		<line class="st2" x1="64.9" y1="610.5" x2="10.6" y2="684.2"/>
		<line class="st2" x1="75.5" y1="621.2" x2="21.3" y2="716"/>
		<line class="st2" x1="86" y1="631.9" x2="32.2" y2="747.9"/>
		<line class="st2" x1="96.7" y1="642.8" x2="43" y2="779.7"/>
		<line class="st2" x1="-11.6" y1="885.8" x2="42.7" y2="812"/>
		<line class="st2" x1="-22.1" y1="875" x2="32" y2="780.3"/>
		<line class="st2" x1="-32.7" y1="864.3" x2="21.1" y2="748.3"/>
		<line class="st2" x1="-43.4" y1="853.4" x2="10.4" y2="716.5"/>
		<line class="st2" x1="10.9" y1="885.8" x2="-43.4" y2="812"/>
		<line class="st2" x1="21.5" y1="875" x2="-32.6" y2="780.3"/>
		<line class="st2" x1="32.1" y1="864.3" x2="-21.8" y2="748.3"/>
		<line class="st2" x1="42.7" y1="853.4" x2="-11" y2="716.5"/>
		<line class="st2" x1="96.4" y1="885.8" x2="150.7" y2="812"/>
		<line class="st2" x1="85.8" y1="875" x2="139.9" y2="780.3"/>
		<line class="st2" x1="75.3" y1="864.3" x2="129.1" y2="748.3"/>
		<line class="st2" x1="64.6" y1="853.4" x2="118.3" y2="716.5"/>
		<line class="st2" x1="118.9" y1="885.8" x2="64.6" y2="812"/>
		<line class="st2" x1="129.5" y1="875" x2="75.3" y2="780.3"/>
		<line class="st2" x1="140" y1="864.3" x2="86.2" y2="748.3"/>
		<line class="st2" x1="150.7" y1="853.4" x2="97" y2="716.5"/>
		<line class="st2" x1="42.4" y1="873.5" x2="96.7" y2="947.2"/>
		<line class="st2" x1="31.8" y1="884.2" x2="85.9" y2="979"/>
		<line class="st2" x1="21.3" y1="894.9" x2="75.1" y2="1010.9"/>
		<line class="st2" x1="10.6" y1="905.8" x2="64.3" y2="1042.7"/>
		<line class="st2" x1="64.9" y1="873.5" x2="10.6" y2="947.2"/>
		<line class="st2" x1="75.5" y1="884.2" x2="21.3" y2="979"/>
		<line class="st2" x1="86" y1="894.9" x2="32.2" y2="1010.9"/>
		<line class="st2" x1="96.7" y1="905.8" x2="43" y2="1042.7"/>
		<line class="st2" x1="-11.6" y1="1137.8" x2="42.7" y2="1064"/>
		<line class="st2" x1="-22.1" y1="1127" x2="32" y2="1032.3"/>
		<line class="st2" x1="-32.7" y1="1116.3" x2="21.1" y2="1000.3"/>
		<line class="st2" x1="-43.4" y1="1105.4" x2="10.4" y2="968.5"/>
		<line class="st2" x1="10.9" y1="1137.8" x2="-43.4" y2="1064"/>
		<line class="st2" x1="21.5" y1="1127" x2="-32.6" y2="1032.3"/>
		<line class="st2" x1="32.1" y1="1116.3" x2="-21.8" y2="1000.3"/>
		<line class="st2" x1="42.7" y1="1105.4" x2="-11" y2="968.5"/>
		<line class="st2" x1="96.4" y1="1137.8" x2="150.7" y2="1064"/>
		<line class="st2" x1="85.8" y1="1127" x2="139.9" y2="1032.3"/>
		<line class="st2" x1="75.3" y1="1116.3" x2="129.1" y2="1000.3"/>
		<line class="st2" x1="64.6" y1="1105.4" x2="118.3" y2="968.5"/>
		<line class="st2" x1="118.9" y1="1137.8" x2="64.6" y2="1064"/>
		<line class="st2" x1="129.5" y1="1127" x2="75.3" y2="1032.3"/>
		<line class="st2" x1="140" y1="1116.3" x2="86.2" y2="1000.3"/>
		<line class="st2" x1="150.7" y1="1105.4" x2="97" y2="968.5"/>
	</g>
</g>
</svg>
