<?xml version="1.0" encoding="utf-8"?>
<!-- Generator: Adobe Illustrator 19.2.0, SVG Export Plug-In . SVG Version: 6.00 Build 0)  -->
<svg version="1.1" id="Layer_1" xmlns="http://www.w3.org/2000/svg" xmlns:xlink="http://www.w3.org/1999/xlink" x="0px" y="0px"
	 viewBox="0 0 107.1 1214.2" style="enable-background:new 0 0 107.1 1214.2;" xml:space="preserve">
<style type="text/css">
	.st0{clip-path:url(#SVGID_2_);}
	.st1{fill:none;stroke:#AED7A0;stroke-width:5;stroke-miterlimit:10;}
</style>
<title>bg-2</title>
<g>
	<defs>
		<rect id="SVGID_1_" x="0" width="107.1" height="1214.2"/>
	</defs>
	<clipPath id="SVGID_2_">
		<use xlink:href="#SVGID_1_"  style="overflow:visible;"/>
	</clipPath>
	<g class="st0">
		<g>
			<g>
				<g>
					<polygon class="st1" points="1.3,131.8 53.3,80.2 105.9,131.9 53.3,286.8 					"/>
				</g>
				<g>
					<polygon class="st1" points="1.3,438.2 53.3,489.8 105.9,438.1 53.3,283.2 					"/>
				</g>
			</g>
			<g>
				<g>
					<polygon class="st1" points="1.3,246.4 53.3,194.8 105.9,246.5 53.3,401.4 					"/>
				</g>
				<g>
					<polygon class="st1" points="1.3,552.8 53.3,604.4 105.9,552.7 53.3,397.8 					"/>
				</g>
			</g>
			<g>
				<g>
					<polygon class="st1" points="107.5,131.8 159.5,80.2 212.1,131.9 159.5,286.8 					"/>
				</g>
				<g>
					<polygon class="st1" points="107.5,438.2 159.5,489.8 212.1,438.1 159.5,283.2 					"/>
				</g>
			</g>
			<g>
				<g>
					<polygon class="st1" points="107.5,246.4 159.5,194.8 212.1,246.5 159.5,401.4 					"/>
				</g>
				<g>
					<polygon class="st1" points="107.5,552.8 159.5,604.4 212.1,552.7 159.5,397.8 					"/>
				</g>
			</g>
			<g>
				<g>
					<polygon class="st1" points="213.7,131.8 265.7,80.2 318.3,131.9 265.7,286.8 					"/>
				</g>
				<g>
					<polygon class="st1" points="213.7,438.2 265.7,489.8 318.3,438.1 265.7,283.2 					"/>
				</g>
			</g>
			<g>
				<g>
					<polygon class="st1" points="213.7,246.4 265.7,194.8 318.3,246.5 265.7,401.4 					"/>
				</g>
				<g>
					<polygon class="st1" points="213.7,552.8 265.7,604.4 318.3,552.7 265.7,397.8 					"/>
				</g>
			</g>
			<g>
				<g>
					<polygon class="st1" points="319.9,131.8 371.9,80.2 424.5,131.9 371.9,286.8 					"/>
				</g>
				<g>
					<polygon class="st1" points="319.9,438.2 371.9,489.8 424.5,438.1 371.9,283.2 					"/>
				</g>
			</g>
			<g>
				<g>
					<polygon class="st1" points="319.9,246.4 371.9,194.8 424.5,246.5 371.9,401.4 					"/>
				</g>
				<g>
					<polygon class="st1" points="319.9,552.8 371.9,604.4 424.5,552.7 371.9,397.8 					"/>
				</g>
			</g>
			<g>
				<g>
					<polygon class="st1" points="426.1,131.8 478.1,80.2 530.6,131.9 478.1,286.8 					"/>
				</g>
				<g>
					<polygon class="st1" points="426.1,438.2 478.1,489.8 530.6,438.1 478.1,283.2 					"/>
				</g>
			</g>
			<g>
				<g>
					<polygon class="st1" points="426.1,246.4 478.1,194.8 530.6,246.5 478.1,401.4 					"/>
				</g>
				<g>
					<polygon class="st1" points="426.1,552.8 478.1,604.4 530.6,552.7 478.1,397.8 					"/>
				</g>
			</g>
			<g>
				<g>
					<polygon class="st1" points="532.3,131.8 584.3,80.2 636.8,131.9 584.3,286.8 					"/>
				</g>
				<g>
					<polygon class="st1" points="532.3,438.2 584.3,489.8 636.8,438.1 584.3,283.2 					"/>
				</g>
			</g>
			<g>
				<g>
					<polygon class="st1" points="532.3,246.4 584.3,194.8 636.8,246.5 584.3,401.4 					"/>
				</g>
				<g>
					<polygon class="st1" points="532.3,552.8 584.3,604.4 636.8,552.7 584.3,397.8 					"/>
				</g>
			</g>
			<g>
				<g>
					<polygon class="st1" points="638.5,131.8 690.5,80.2 743,131.9 690.5,286.8 					"/>
				</g>
				<g>
					<polygon class="st1" points="638.5,438.2 690.5,489.8 743,438.1 690.5,283.2 					"/>
				</g>
			</g>
			<g>
				<g>
					<polygon class="st1" points="638.5,246.4 690.5,194.8 743,246.5 690.5,401.4 					"/>
				</g>
				<g>
					<polygon class="st1" points="638.5,552.8 690.5,604.4 743,552.7 690.5,397.8 					"/>
				</g>
			</g>
			<g>
				<g>
					<polygon class="st1" points="-104.6,131.8 -52.6,80.2 0,131.9 -52.6,286.8 					"/>
				</g>
				<g>
					<polygon class="st1" points="-104.6,438.2 -52.6,489.8 0,438.1 -52.6,283.2 					"/>
				</g>
			</g>
			<g>
				<g>
					<polygon class="st1" points="-104.6,246.4 -52.6,194.8 0,246.5 -52.6,401.4 					"/>
				</g>
				<g>
					<polygon class="st1" points="-104.6,552.8 -52.6,604.4 0,552.7 -52.6,397.8 					"/>
				</g>
			</g>
			<g>
				<g>
					<polygon class="st1" points="-210.5,131.8 -158.4,80.2 -105.9,131.9 -158.4,286.8 					"/>
				</g>
				<g>
					<polygon class="st1" points="-210.5,438.2 -158.4,489.8 -105.9,438.1 -158.4,283.2 					"/>
				</g>
			</g>
			<g>
				<g>
					<polygon class="st1" points="-210.5,246.4 -158.4,194.8 -105.9,246.5 -158.4,401.4 					"/>
				</g>
				<g>
					<polygon class="st1" points="-210.5,552.8 -158.4,604.4 -105.9,552.7 -158.4,397.8 					"/>
				</g>
			</g>
			<g>
				<g>
					<polygon class="st1" points="-316.3,131.8 -264.3,80.2 -211.7,131.9 -264.3,286.8 					"/>
				</g>
				<g>
					<polygon class="st1" points="-316.3,438.2 -264.3,489.8 -211.7,438.1 -264.3,283.2 					"/>
				</g>
			</g>
			<g>
				<g>
					<polygon class="st1" points="-316.3,246.4 -264.3,194.8 -211.7,246.5 -264.3,401.4 					"/>
				</g>
				<g>
					<polygon class="st1" points="-316.3,552.8 -264.3,604.4 -211.7,552.7 -264.3,397.8 					"/>
				</g>
			</g>
			<g>
				<g>
					<polygon class="st1" points="-422.2,131.8 -370.2,80.2 -317.6,131.9 -370.2,286.8 					"/>
				</g>
				<g>
					<polygon class="st1" points="-422.2,438.2 -370.2,489.8 -317.6,438.1 -370.2,283.2 					"/>
				</g>
			</g>
			<g>
				<g>
					<polygon class="st1" points="-422.2,246.4 -370.2,194.8 -317.6,246.5 -370.2,401.4 					"/>
				</g>
				<g>
					<polygon class="st1" points="-422.2,552.8 -370.2,604.4 -317.6,552.7 -370.2,397.8 					"/>
				</g>
			</g>
			<g>
				<g>
					<polygon class="st1" points="-528.1,131.8 -476,80.2 -423.5,131.9 -476,286.8 					"/>
				</g>
				<g>
					<polygon class="st1" points="-528.1,438.2 -476,489.8 -423.5,438.1 -476,283.2 					"/>
				</g>
			</g>
			<g>
				<g>
					<polygon class="st1" points="-528.1,246.4 -476,194.8 -423.5,246.5 -476,401.4 					"/>
				</g>
				<g>
					<polygon class="st1" points="-528.1,552.8 -476,604.4 -423.5,552.7 -476,397.8 					"/>
				</g>
			</g>
			<g>
				<g>
					<polygon class="st1" points="-633.9,131.8 -581.9,80.2 -529.4,131.9 -581.9,286.8 					"/>
				</g>
				<g>
					<polygon class="st1" points="-633.9,438.2 -581.9,489.8 -529.4,438.1 -581.9,283.2 					"/>
				</g>
			</g>
			<g>
				<g>
					<polygon class="st1" points="-633.9,246.4 -581.9,194.8 -529.4,246.5 -581.9,401.4 					"/>
				</g>
				<g>
					<polygon class="st1" points="-633.9,552.8 -581.9,604.4 -529.4,552.7 -581.9,397.8 					"/>
				</g>
			</g>
		</g>
		<g>
			<g>
				<g>
					<polygon class="st1" points="1.3,598.1 53.3,546.5 105.9,598.2 53.3,753.1 					"/>
				</g>
				<g>
					<polygon class="st1" points="1.3,904.5 53.3,956.1 105.9,904.4 53.3,749.5 					"/>
				</g>
			</g>
			<g>
				<g>
					<polygon class="st1" points="1.3,712.7 53.3,661.1 105.9,712.8 53.3,867.7 					"/>
				</g>
				<g>
					<polygon class="st1" points="1.3,1019.1 53.3,1070.7 105.9,1019 53.3,864.1 					"/>
				</g>
			</g>
			<g>
				<g>
					<polygon class="st1" points="107.5,598.1 159.5,546.5 212.1,598.2 159.5,753.1 					"/>
				</g>
				<g>
					<polygon class="st1" points="107.5,904.5 159.5,956.1 212.1,904.4 159.5,749.5 					"/>
				</g>
			</g>
			<g>
				<g>
					<polygon class="st1" points="107.5,712.7 159.5,661.1 212.1,712.8 159.5,867.7 					"/>
				</g>
				<g>
					<polygon class="st1" points="107.5,1019.1 159.5,1070.7 212.1,1019 159.5,864.1 					"/>
				</g>
			</g>
			<g>
				<g>
					<polygon class="st1" points="213.7,598.1 265.7,546.5 318.3,598.2 265.7,753.1 					"/>
				</g>
				<g>
					<polygon class="st1" points="213.7,904.5 265.7,956.1 318.3,904.4 265.7,749.5 					"/>
				</g>
			</g>
			<g>
				<g>
					<polygon class="st1" points="213.7,712.7 265.7,661.1 318.3,712.8 265.7,867.7 					"/>
				</g>
				<g>
					<polygon class="st1" points="213.7,1019.1 265.7,1070.7 318.3,1019 265.7,864.1 					"/>
				</g>
			</g>
			<g>
				<g>
					<polygon class="st1" points="319.9,598.1 371.9,546.5 424.5,598.2 371.9,753.1 					"/>
				</g>
				<g>
					<polygon class="st1" points="319.9,904.5 371.9,956.1 424.5,904.4 371.9,749.5 					"/>
				</g>
			</g>
			<g>
				<g>
					<polygon class="st1" points="319.9,712.7 371.9,661.1 424.5,712.8 371.9,867.7 					"/>
				</g>
				<g>
					<polygon class="st1" points="319.9,1019.1 371.9,1070.7 424.5,1019 371.9,864.1 					"/>
				</g>
			</g>
			<g>
				<g>
					<polygon class="st1" points="426.1,598.1 478.1,546.5 530.6,598.2 478.1,753.1 					"/>
				</g>
				<g>
					<polygon class="st1" points="426.1,904.5 478.1,956.1 530.6,904.4 478.1,749.5 					"/>
				</g>
			</g>
			<g>
				<g>
					<polygon class="st1" points="426.1,712.7 478.1,661.1 530.6,712.8 478.1,867.7 					"/>
				</g>
				<g>
					<polygon class="st1" points="426.1,1019.1 478.1,1070.7 530.6,1019 478.1,864.1 					"/>
				</g>
			</g>
			<g>
				<g>
					<polygon class="st1" points="532.3,598.1 584.3,546.5 636.8,598.2 584.3,753.1 					"/>
				</g>
				<g>
					<polygon class="st1" points="532.3,904.5 584.3,956.1 636.8,904.4 584.3,749.5 					"/>
				</g>
			</g>
			<g>
				<g>
					<polygon class="st1" points="532.3,712.7 584.3,661.1 636.8,712.8 584.3,867.7 					"/>
				</g>
				<g>
					<polygon class="st1" points="532.3,1019.1 584.3,1070.7 636.8,1019 584.3,864.1 					"/>
				</g>
			</g>
			<g>
				<g>
					<polygon class="st1" points="638.5,598.1 690.5,546.5 743,598.2 690.5,753.1 					"/>
				</g>
				<g>
					<polygon class="st1" points="638.5,904.5 690.5,956.1 743,904.4 690.5,749.5 					"/>
				</g>
			</g>
			<g>
				<g>
					<polygon class="st1" points="638.5,712.7 690.5,661.1 743,712.8 690.5,867.7 					"/>
				</g>
				<g>
					<polygon class="st1" points="638.5,1019.1 690.5,1070.7 743,1019 690.5,864.1 					"/>
				</g>
			</g>
			<g>
				<g>
					<polygon class="st1" points="-104.6,598.1 -52.6,546.5 0,598.2 -52.6,753.1 					"/>
				</g>
				<g>
					<polygon class="st1" points="-104.6,904.5 -52.6,956.1 0,904.4 -52.6,749.5 					"/>
				</g>
			</g>
			<g>
				<g>
					<polygon class="st1" points="-104.6,712.7 -52.6,661.1 0,712.8 -52.6,867.7 					"/>
				</g>
				<g>
					<polygon class="st1" points="-104.6,1019.1 -52.6,1070.7 0,1019 -52.6,864.1 					"/>
				</g>
			</g>
			<g>
				<g>
					<polygon class="st1" points="-210.5,598.1 -158.4,546.5 -105.9,598.2 -158.4,753.1 					"/>
				</g>
				<g>
					<polygon class="st1" points="-210.5,904.5 -158.4,956.1 -105.9,904.4 -158.4,749.5 					"/>
				</g>
			</g>
			<g>
				<g>
					<polygon class="st1" points="-210.5,712.7 -158.4,661.1 -105.9,712.8 -158.4,867.7 					"/>
				</g>
				<g>
					<polygon class="st1" points="-210.5,1019.1 -158.4,1070.7 -105.9,1019 -158.4,864.1 					"/>
				</g>
			</g>
			<g>
				<g>
					<polygon class="st1" points="-316.3,598.1 -264.3,546.5 -211.7,598.2 -264.3,753.1 					"/>
				</g>
				<g>
					<polygon class="st1" points="-316.3,904.5 -264.3,956.1 -211.7,904.4 -264.3,749.5 					"/>
				</g>
			</g>
			<g>
				<g>
					<polygon class="st1" points="-316.3,712.7 -264.3,661.1 -211.7,712.8 -264.3,867.7 					"/>
				</g>
				<g>
					<polygon class="st1" points="-316.3,1019.1 -264.3,1070.7 -211.7,1019 -264.3,864.1 					"/>
				</g>
			</g>
			<g>
				<g>
					<polygon class="st1" points="-422.2,598.1 -370.2,546.5 -317.6,598.2 -370.2,753.1 					"/>
				</g>
				<g>
					<polygon class="st1" points="-422.2,904.5 -370.2,956.1 -317.6,904.4 -370.2,749.5 					"/>
				</g>
			</g>
			<g>
				<g>
					<polygon class="st1" points="-422.2,712.7 -370.2,661.1 -317.6,712.8 -370.2,867.7 					"/>
				</g>
				<g>
					<polygon class="st1" points="-422.2,1019.1 -370.2,1070.7 -317.6,1019 -370.2,864.1 					"/>
				</g>
			</g>
			<g>
				<g>
					<polygon class="st1" points="-528.1,598.1 -476,546.5 -423.5,598.2 -476,753.1 					"/>
				</g>
				<g>
					<polygon class="st1" points="-528.1,904.5 -476,956.1 -423.5,904.4 -476,749.5 					"/>
				</g>
			</g>
			<g>
				<g>
					<polygon class="st1" points="-528.1,712.7 -476,661.1 -423.5,712.8 -476,867.7 					"/>
				</g>
				<g>
					<polygon class="st1" points="-528.1,1019.1 -476,1070.7 -423.5,1019 -476,864.1 					"/>
				</g>
			</g>
			<g>
				<g>
					<polygon class="st1" points="-633.9,598.1 -581.9,546.5 -529.4,598.2 -581.9,753.1 					"/>
				</g>
				<g>
					<polygon class="st1" points="-633.9,904.5 -581.9,956.1 -529.4,904.4 -581.9,749.5 					"/>
				</g>
			</g>
			<g>
				<g>
					<polygon class="st1" points="-633.9,712.7 -581.9,661.1 -529.4,712.8 -581.9,867.7 					"/>
				</g>
				<g>
					<polygon class="st1" points="-633.9,1019.1 -581.9,1070.7 -529.4,1019 -581.9,864.1 					"/>
				</g>
			</g>
		</g>
	</g>
</g>
</svg>
