<?xml version="1.0" encoding="utf-8"?>
<!-- Generator: Adobe Illustrator 19.2.0, SVG Export Plug-In . SVG Version: 6.00 Build 0)  -->
<svg version="1.1" id="Layer_1" xmlns="http://www.w3.org/2000/svg" xmlns:xlink="http://www.w3.org/1999/xlink" x="0px" y="0px"
	 viewBox="0 0 394.4 614" style="enable-background:new 0 0 394.4 614;" xml:space="preserve">
<style type="text/css">
	.st0{fill:#FFFFFF;stroke:#844398;stroke-miterlimit:10;}
</style>
<g>
	<g>
		<g>
			<g>
				<polygon class="st0" points="265.9,99.2 284.5,93.7 298.4,140.8 279.2,146.5 				"/>
			</g>
			<g>
				<polygon class="st0" points="158.9,80.7 140,75.3 122.7,134 142.3,139.5 				"/>
			</g>
			<path class="st0" d="M37.5,148.7L75.6,18.8c0.6-2.2,3-3.5,5.2-2.8l66.4,19.5c2.2,0.6,3.5,3,2.8,5.2l-38,129.8
				c-0.6,2.2-3,3.5-5.2,2.8l-66.4-19.5C38.2,153.2,36.9,150.9,37.5,148.7z"/>
			<path class="st0" d="M301.8,152.4l-21.1-71.3c-0.4-1.4,0.4-2.8,1.8-3.2l50.2-14.8c1.4-0.4,2.8,0.4,3.2,1.8l21.1,71.3
				c0.4,1.4-0.4,2.8-1.8,3.2L305,154.2C303.7,154.5,302.2,153.8,301.8,152.4z"/>
			<path class="st0" d="M209.8,391.2c53.8,0,99.4-23.4,99.4-23.4l-21.7-67.3c9.6-3.7,15.3-6.6,15.3-6.6l-17.2-53.6
				c10.8-4,17.2-10.3,17.2-10.3L254.3,58l0,0c-4.9-20-23-34.9-44.5-34.9S170.2,38,165.3,58l0,0l-48.5,171.9c0,0,6.4,4.8,17.2,8.8
				L116.8,293c0,0,5.7,3.3,15.3,7l-21.7,67.5C110.4,367.6,156,391.2,209.8,391.2z"/>
			<g>
				<polygon class="st0" points="251.9,352.4 209.9,336.2 167.9,352.4 209.9,368.7 				"/>
				<polygon class="st0" points="251.9,319.9 209.9,303.6 167.9,319.9 209.9,336.2 				"/>
				<polygon class="st0" points="251.9,287.3 209.9,271 167.9,287.3 209.9,303.6 				"/>
				<polygon class="st0" points="251.9,254.7 209.9,238.4 167.9,254.7 209.9,271 				"/>
				<polygon class="st0" points="251.9,222.1 209.9,205.8 167.9,222.1 209.9,238.4 				"/>
				<polygon class="st0" points="251.9,189.5 209.9,173.2 167.9,189.5 209.9,205.8 				"/>
				<polygon class="st0" points="251.9,156.9 209.9,140.6 167.9,156.9 209.9,173.2 				"/>
				<polygon class="st0" points="251.9,124.3 209.9,108 167.9,124.3 209.9,140.6 				"/>
				<polygon class="st0" points="251.9,91.7 209.9,75.4 167.9,91.7 209.9,108 				"/>
				<polygon class="st0" points="209.9,336.2 167.9,319.9 154.4,336.2 167.9,352.4 				"/>
				<polygon class="st0" points="209.9,303.6 167.9,287.3 154.4,303.6 167.9,319.9 				"/>
				<polygon class="st0" points="209.9,271 167.9,254.7 154.4,271 167.9,287.3 				"/>
				<polygon class="st0" points="209.9,238.4 167.9,222.1 154.4,238.4 167.9,254.7 				"/>
				<polygon class="st0" points="209.9,205.8 167.9,189.5 154.4,205.8 167.9,222.1 				"/>
				<polygon class="st0" points="209.9,173.2 167.9,156.9 154.4,173.2 167.9,189.5 				"/>
				<polygon class="st0" points="209.9,140.6 167.9,124.3 154.4,140.6 167.9,156.9 				"/>
				<polygon class="st0" points="209.9,108 167.9,91.7 154.4,108 167.9,124.3 				"/>
				<polygon class="st0" points="209.9,336.2 251.9,319.9 265.4,336.2 251.9,352.4 				"/>
				<polygon class="st0" points="209.9,303.6 251.9,287.3 265.4,303.6 251.9,319.9 				"/>
				<polygon class="st0" points="209.9,271 251.9,254.7 265.4,271 251.9,287.3 				"/>
				<polygon class="st0" points="209.9,238.4 251.9,222.1 265.4,238.4 251.9,254.7 				"/>
				<polygon class="st0" points="209.9,205.8 251.9,189.5 265.4,205.8 251.9,222.1 				"/>
				<polygon class="st0" points="209.9,173.2 251.9,156.9 265.4,173.2 251.9,189.5 				"/>
				<polygon class="st0" points="209.9,140.6 251.9,124.3 265.4,140.6 251.9,156.9 				"/>
				<polygon class="st0" points="209.9,108 251.9,91.7 265.4,108 251.9,124.3 				"/>
				<polygon class="st0" points="209.9,75.4 251.2,58.3 265.4,75.4 251.9,91.7 				"/>
				<polygon class="st0" points="209.9,75.4 226.8,33.9 249.1,36.2 251.2,58.3 				"/>
				<polygon class="st0" points="209.9,75.4 192.4,34.1 209.9,20 226.8,33.9 				"/>
				<polygon class="st0" points="209.9,75.4 168.6,58.2 170.7,36.2 192.4,34.1 				"/>
				<polygon class="st0" points="209.9,75.4 167.9,91.7 154.4,75.4 168.6,58.2 				"/>
			</g>
		</g>
	</g>
	<g>
		<g>
			<polygon class="st0" points="252.5,450.4 210.5,431.2 168.4,450.4 210.5,469.6 			"/>
		</g>
		<path class="st0" d="M308.1,589.7H111V453.8c0,0,44.3-5.7,99.5-5.7s97.6,5.7,97.6,5.7V589.7z"/>
		<g>
			<g>
				<g>
					<polygon class="st0" points="188.9,489.2 178.4,497.2 188.9,533.5 199.5,497.2 					"/>
				</g>
			</g>
			<g>
				<g>
					<polygon class="st0" points="210.3,489.2 199.7,497.2 210.3,533.5 220.9,497.2 					"/>
				</g>
			</g>
			<g>
				<g>
					<polygon class="st0" points="231.6,489.2 221.1,497.2 231.6,533.5 242.2,497.2 					"/>
				</g>
			</g>
			<g>
				<g>
					<polygon class="st0" points="253,489.2 242.4,497.2 253,533.5 263.5,497.2 					"/>
				</g>
			</g>
			<g>
				<g>
					<polygon class="st0" points="274.3,489.2 263.7,497.2 274.3,533.5 284.9,497.2 					"/>
				</g>
			</g>
			<g>
				<g>
					<polygon class="st0" points="167.8,489.2 157.2,497.2 167.8,533.5 178.4,497.2 					"/>
				</g>
			</g>
			<g>
				<g>
					<polygon class="st0" points="146.6,489.2 136.1,497.2 146.6,533.5 157.2,497.2 					"/>
				</g>
			</g>
		</g>
		<rect x="111" y="554.3" class="st0" width="197.1" height="35.4"/>
		<g>
			<rect x="193.1" y="554.3" class="st0" width="1.9" height="35.4"/>
			<rect x="225.5" y="554.3" class="st0" width="1.9" height="35.4"/>
		</g>
		<g>
			<rect x="133.5" y="554.3" class="st0" width="1.9" height="35.4"/>
			<rect x="165.9" y="554.3" class="st0" width="1.9" height="35.4"/>
		</g>
		<g>
			<rect x="117.3" y="554.3" class="st0" width="1.9" height="35.4"/>
			<rect x="149.7" y="554.3" class="st0" width="1.9" height="35.4"/>
		</g>
		<g>
			<rect x="266.1" y="554.3" class="st0" width="1.9" height="35.4"/>
			<rect x="298.4" y="554.3" class="st0" width="1.9" height="35.4"/>
		</g>
		<g>
			<rect x="249.9" y="554.3" class="st0" width="1.9" height="35.4"/>
			<rect x="282.2" y="554.3" class="st0" width="1.9" height="35.4"/>
		</g>
		<rect x="202.4" y="565.2" class="st0" width="16.6" height="24.5"/>
		<rect x="138.3" y="565.2" class="st0" width="11.2" height="24.5"/>
		<rect x="268" y="565.2" class="st0" width="11.2" height="24.5"/>
		<rect x="111" y="549.2" class="st0" width="197.1" height="5.1"/>
	</g>
</g>
</svg>
