<?xml version="1.0" encoding="utf-8"?>
<!-- Generator: Adobe Illustrator 19.2.0, SVG Export Plug-In . SVG Version: 6.00 Build 0)  -->
<svg version="1.1" id="Layer_1" xmlns="http://www.w3.org/2000/svg" xmlns:xlink="http://www.w3.org/1999/xlink" x="0px" y="0px"
	 viewBox="0 0 394.4 569.6" style="enable-background:new 0 0 394.4 569.6;" xml:space="preserve">
<style type="text/css">
	.st0{fill:#FFFFFF;stroke:#844398;stroke-miterlimit:10;}
</style>
<g>
	<g>
		<g>
			<g>
				<polygon class="st0" points="92.9,334.1 87.4,315.5 134.5,301.6 140.2,320.8 				"/>
			</g>
			<g>
				<polygon class="st0" points="74.4,441.1 69,460 127.7,477.3 133.2,457.7 				"/>
			</g>
			<path class="st0" d="M142.4,562.5L12.5,524.4c-2.2-0.6-3.5-3-2.8-5.2l19.5-66.4c0.6-2.2,3-3.5,5.2-2.8L164.2,488
				c2.2,0.6,3.5,3,2.8,5.2l-19.5,66.4C146.9,561.8,144.6,563.1,142.4,562.5z"/>
			<path class="st0" d="M146.1,298.2l-71.3,21.1c-1.4,0.4-2.8-0.4-3.2-1.8l-14.8-50.2c-0.4-1.4,0.4-2.8,1.8-3.2l71.3-21.1
				c1.4-0.4,2.8,0.4,3.2,1.8l14.8,50.2C148.2,296.3,147.5,297.8,146.1,298.2z"/>
			<path class="st0" d="M384.9,390.2c0-53.8-23.4-99.4-23.4-99.4l-67.3,21.7c-3.7-9.6-6.6-15.3-6.6-15.3l-53.6,17.2
				c-4-10.8-10.3-17.2-10.3-17.2L51.7,345.7v0c-20,4.9-34.9,23-34.9,44.5c0,21.5,14.9,39.6,34.9,44.5v0l171.9,48.5
				c0,0,4.8-6.4,8.8-17.2l54.3,17.2c0,0,3.3-5.7,7-15.3l67.5,21.7C361.3,489.6,384.9,444,384.9,390.2z"/>
			<g>
				<polygon class="st0" points="346.1,348.1 329.9,390.1 346.1,432.1 362.4,390.1 				"/>
				<polygon class="st0" points="313.6,348.1 297.3,390.1 313.6,432.1 329.9,390.1 				"/>
				<polygon class="st0" points="281,348.1 264.7,390.1 281,432.1 297.3,390.1 				"/>
				<polygon class="st0" points="248.4,348.1 232.1,390.1 248.4,432.1 264.7,390.1 				"/>
				<polygon class="st0" points="215.8,348.1 199.5,390.1 215.8,432.1 232.1,390.1 				"/>
				<polygon class="st0" points="183.2,348.1 166.9,390.1 183.2,432.1 199.5,390.1 				"/>
				<polygon class="st0" points="150.6,348.1 134.3,390.1 150.6,432.1 166.9,390.1 				"/>
				<polygon class="st0" points="118,348.1 101.7,390.1 118,432.1 134.3,390.1 				"/>
				<polygon class="st0" points="85.4,348.1 69.1,390.1 85.4,432.1 101.7,390.1 				"/>
				<polygon class="st0" points="329.9,390.1 313.6,432.1 329.9,445.6 346.1,432.1 				"/>
				<polygon class="st0" points="297.3,390.1 281,432.1 297.3,445.6 313.6,432.1 				"/>
				<polygon class="st0" points="264.7,390.1 248.4,432.1 264.7,445.6 281,432.1 				"/>
				<polygon class="st0" points="232.1,390.1 215.8,432.1 232.1,445.6 248.4,432.1 				"/>
				<polygon class="st0" points="199.5,390.1 183.2,432.1 199.5,445.6 215.8,432.1 				"/>
				<polygon class="st0" points="166.9,390.1 150.6,432.1 166.9,445.6 183.2,432.1 				"/>
				<polygon class="st0" points="134.3,390.1 118,432.1 134.3,445.6 150.6,432.1 				"/>
				<polygon class="st0" points="101.7,390.1 85.4,432.1 101.7,445.6 118,432.1 				"/>
				<polygon class="st0" points="329.9,390.1 313.6,348.1 329.9,334.6 346.1,348.1 				"/>
				<polygon class="st0" points="297.3,390.1 281,348.1 297.3,334.6 313.6,348.1 				"/>
				<polygon class="st0" points="264.7,390.1 248.4,348.1 264.7,334.6 281,348.1 				"/>
				<polygon class="st0" points="232.1,390.1 215.8,348.1 232.1,334.6 248.4,348.1 				"/>
				<polygon class="st0" points="199.5,390.1 183.2,348.1 199.5,334.6 215.8,348.1 				"/>
				<polygon class="st0" points="166.9,390.1 150.6,348.1 166.9,334.6 183.2,348.1 				"/>
				<polygon class="st0" points="134.3,390.1 118,348.1 134.3,334.6 150.6,348.1 				"/>
				<polygon class="st0" points="101.7,390.1 85.4,348.1 101.7,334.6 118,348.1 				"/>
				<polygon class="st0" points="69.1,390.1 52,348.8 69.1,334.6 85.4,348.1 				"/>
				<polygon class="st0" points="69.1,390.1 27.6,373.2 29.9,350.9 52,348.8 				"/>
				<polygon class="st0" points="69.1,390.1 27.8,407.6 13.7,390.1 27.6,373.2 				"/>
				<polygon class="st0" points="69.1,390.1 51.9,431.4 29.9,429.3 27.8,407.6 				"/>
				<polygon class="st0" points="69.1,390.1 85.4,432.1 69.1,445.6 51.9,431.4 				"/>
			</g>
		</g>
	</g>
	<g>
		<g>
			<polygon class="st0" points="245.3,24.7 203.3,5.5 161.2,24.7 203.3,43.9 			"/>
		</g>
		<path class="st0" d="M300.9,164H103.8V28.1c0,0,44.3-5.7,99.5-5.7s97.6,5.7,97.6,5.7V164z"/>
		<g>
			<g>
				<g>
					<polygon class="st0" points="181.7,63.5 171.2,71.5 181.7,107.8 192.3,71.5 					"/>
				</g>
			</g>
			<g>
				<g>
					<polygon class="st0" points="203.1,63.5 192.5,71.5 203.1,107.8 213.7,71.5 					"/>
				</g>
			</g>
			<g>
				<g>
					<polygon class="st0" points="224.4,63.5 213.9,71.5 224.4,107.8 235,71.5 					"/>
				</g>
			</g>
			<g>
				<g>
					<polygon class="st0" points="245.8,63.5 235.2,71.5 245.8,107.8 256.3,71.5 					"/>
				</g>
			</g>
			<g>
				<g>
					<polygon class="st0" points="267.1,63.5 256.5,71.5 267.1,107.8 277.7,71.5 					"/>
				</g>
			</g>
			<g>
				<g>
					<polygon class="st0" points="160.6,63.5 150,71.5 160.6,107.8 171.2,71.5 					"/>
				</g>
			</g>
			<g>
				<g>
					<polygon class="st0" points="139.4,63.5 128.9,71.5 139.4,107.8 150,71.5 					"/>
				</g>
			</g>
		</g>
		<rect x="103.8" y="128.6" class="st0" width="197.1" height="35.4"/>
		<g>
			<rect x="185.9" y="128.6" class="st0" width="1.9" height="35.4"/>
			<rect x="218.3" y="128.6" class="st0" width="1.9" height="35.4"/>
		</g>
		<g>
			<rect x="126.3" y="128.6" class="st0" width="1.9" height="35.4"/>
			<rect x="158.7" y="128.6" class="st0" width="1.9" height="35.4"/>
		</g>
		<g>
			<rect x="110.1" y="128.6" class="st0" width="1.9" height="35.4"/>
			<rect x="142.5" y="128.6" class="st0" width="1.9" height="35.4"/>
		</g>
		<g>
			<rect x="258.9" y="128.6" class="st0" width="1.9" height="35.4"/>
			<rect x="291.2" y="128.6" class="st0" width="1.9" height="35.4"/>
		</g>
		<g>
			<rect x="242.7" y="128.6" class="st0" width="1.9" height="35.4"/>
			<rect x="275" y="128.6" class="st0" width="1.9" height="35.4"/>
		</g>
		<rect x="195.2" y="139.5" class="st0" width="16.6" height="24.5"/>
		<rect x="131.1" y="139.5" class="st0" width="11.2" height="24.5"/>
		<rect x="260.8" y="139.5" class="st0" width="11.2" height="24.5"/>
		<rect x="103.8" y="123.5" class="st0" width="197.1" height="5.1"/>
	</g>
</g>
</svg>
