<?xml version="1.0" encoding="utf-8"?>
<!-- Generator: Adobe Illustrator 19.2.0, SVG Export Plug-In . SVG Version: 6.00 Build 0)  -->
<svg version="1.1" id="Layer_1" xmlns="http://www.w3.org/2000/svg" xmlns:xlink="http://www.w3.org/1999/xlink" x="0px" y="0px"
	 viewBox="0 0 164.4 59.8" style="enable-background:new 0 0 164.4 59.8;" xml:space="preserve">
<style type="text/css">
	.st0{fill:none;stroke:#FFFFFF;stroke-miterlimit:10;}
</style>
<g id="XMLID_1_">
	<g id="XMLID_2_">
		<g id="XMLID_68_">
			<g id="XMLID_78_">
				<g id="XMLID_79_">
					<polygon id="XMLID_80_" class="st0" points="116.7,18.6 128.2,7 139.9,18.4 128.2,52.8 					"/>
				</g>
			</g>
			<g id="XMLID_69_">
				<line id="XMLID_77_" class="st0" x1="130.5" y1="9.4" x2="118.5" y2="24.2"/>
				<line id="XMLID_76_" class="st0" x1="133" y1="11.9" x2="120.8" y2="31.1"/>
				<line id="XMLID_75_" class="st0" x1="135.8" y1="14.6" x2="123.4" y2="38.7"/>
				<line id="XMLID_74_" class="st0" x1="138.4" y1="17.2" x2="126.1" y2="46.8"/>
				<line id="XMLID_73_" class="st0" x1="125.9" y1="9.4" x2="137.9" y2="24.2"/>
				<line id="XMLID_72_" class="st0" x1="123.4" y1="11.9" x2="135.6" y2="31.1"/>
				<line id="XMLID_71_" class="st0" x1="120.7" y1="14.6" x2="133.1" y2="38.7"/>
				<line id="XMLID_70_" class="st0" x1="118" y1="17.2" x2="130.3" y2="46.8"/>
			</g>
		</g>
		<g id="XMLID_81_">
			<g id="XMLID_91_">
				<g id="XMLID_92_">
					<polygon id="XMLID_93_" class="st0" points="139.9,18.6 151.3,7 163,18.4 151.3,52.8 					"/>
				</g>
			</g>
			<g id="XMLID_82_">
				<line id="XMLID_90_" class="st0" x1="153.6" y1="9.4" x2="141.7" y2="24.2"/>
				<line id="XMLID_89_" class="st0" x1="156.2" y1="11.9" x2="144" y2="31.1"/>
				<line id="XMLID_88_" class="st0" x1="158.9" y1="14.6" x2="146.5" y2="38.7"/>
				<line id="XMLID_87_" class="st0" x1="161.5" y1="17.2" x2="149.2" y2="46.8"/>
				<line id="XMLID_86_" class="st0" x1="149.1" y1="9.4" x2="161.1" y2="24.2"/>
				<line id="XMLID_85_" class="st0" x1="146.5" y1="11.9" x2="158.8" y2="31.1"/>
				<line id="XMLID_84_" class="st0" x1="143.8" y1="14.6" x2="156.2" y2="38.7"/>
				<line id="XMLID_83_" class="st0" x1="141.2" y1="17.2" x2="153.5" y2="46.8"/>
			</g>
		</g>
		<g id="XMLID_55_">
			<g id="XMLID_65_">
				<g id="XMLID_66_">
					<polygon id="XMLID_67_" class="st0" points="93.6,18.6 105.1,7 116.7,18.4 105.1,52.8 					"/>
				</g>
			</g>
			<g id="XMLID_56_">
				<line id="XMLID_64_" class="st0" x1="107.4" y1="9.4" x2="95.4" y2="24.2"/>
				<line id="XMLID_63_" class="st0" x1="109.9" y1="11.9" x2="97.7" y2="31.1"/>
				<line id="XMLID_62_" class="st0" x1="112.6" y1="14.6" x2="100.2" y2="38.7"/>
				<line id="XMLID_61_" class="st0" x1="115.3" y1="17.2" x2="103" y2="46.8"/>
				<line id="XMLID_60_" class="st0" x1="102.8" y1="9.4" x2="114.8" y2="24.2"/>
				<line id="XMLID_59_" class="st0" x1="100.3" y1="11.9" x2="112.5" y2="31.1"/>
				<line id="XMLID_58_" class="st0" x1="97.5" y1="14.6" x2="109.9" y2="38.7"/>
				<line id="XMLID_57_" class="st0" x1="94.9" y1="17.2" x2="107.2" y2="46.8"/>
			</g>
		</g>
		<g id="XMLID_42_">
			<g id="XMLID_52_">
				<g id="XMLID_53_">
					<polygon id="XMLID_54_" class="st0" points="70.5,18.6 81.9,7 93.6,18.4 81.9,52.8 					"/>
				</g>
			</g>
			<g id="XMLID_43_">
				<line id="XMLID_51_" class="st0" x1="84.2" y1="9.4" x2="72.2" y2="24.2"/>
				<line id="XMLID_50_" class="st0" x1="86.8" y1="11.9" x2="74.5" y2="31.1"/>
				<line id="XMLID_49_" class="st0" x1="89.5" y1="14.6" x2="77.1" y2="38.7"/>
				<line id="XMLID_48_" class="st0" x1="92.1" y1="17.2" x2="79.8" y2="46.8"/>
				<line id="XMLID_47_" class="st0" x1="79.7" y1="9.4" x2="91.6" y2="24.2"/>
				<line id="XMLID_46_" class="st0" x1="77.1" y1="11.9" x2="89.3" y2="31.1"/>
				<line id="XMLID_45_" class="st0" x1="74.4" y1="14.6" x2="86.8" y2="38.7"/>
				<line id="XMLID_44_" class="st0" x1="71.8" y1="17.2" x2="84.1" y2="46.8"/>
			</g>
		</g>
		<g id="XMLID_29_">
			<g id="XMLID_39_">
				<g id="XMLID_40_">
					<polygon id="XMLID_41_" class="st0" points="47.3,18.6 58.8,7 70.5,18.4 58.8,52.8 					"/>
				</g>
			</g>
			<g id="XMLID_30_">
				<line id="XMLID_38_" class="st0" x1="61.1" y1="9.4" x2="49.1" y2="24.2"/>
				<line id="XMLID_37_" class="st0" x1="63.6" y1="11.9" x2="51.4" y2="31.1"/>
				<line id="XMLID_36_" class="st0" x1="66.4" y1="14.6" x2="53.9" y2="38.7"/>
				<line id="XMLID_35_" class="st0" x1="69" y1="17.2" x2="56.7" y2="46.8"/>
				<line id="XMLID_34_" class="st0" x1="56.5" y1="9.4" x2="68.5" y2="24.2"/>
				<line id="XMLID_33_" class="st0" x1="54" y1="11.9" x2="66.2" y2="31.1"/>
				<line id="XMLID_32_" class="st0" x1="51.3" y1="14.6" x2="63.7" y2="38.7"/>
				<line id="XMLID_31_" class="st0" x1="48.6" y1="17.2" x2="60.9" y2="46.8"/>
			</g>
		</g>
		<g id="XMLID_16_">
			<g id="XMLID_26_">
				<g id="XMLID_27_">
					<polygon id="XMLID_28_" class="st0" points="24.2,18.6 35.7,7 47.3,18.4 35.7,52.8 					"/>
				</g>
			</g>
			<g id="XMLID_17_">
				<line id="XMLID_25_" class="st0" x1="37.9" y1="9.4" x2="26" y2="24.2"/>
				<line id="XMLID_24_" class="st0" x1="40.5" y1="11.9" x2="28.3" y2="31.1"/>
				<line id="XMLID_23_" class="st0" x1="43.2" y1="14.6" x2="30.8" y2="38.7"/>
				<line id="XMLID_22_" class="st0" x1="45.9" y1="17.2" x2="33.6" y2="46.8"/>
				<line id="XMLID_21_" class="st0" x1="33.4" y1="9.4" x2="45.4" y2="24.2"/>
				<line id="XMLID_20_" class="st0" x1="30.8" y1="11.9" x2="43.1" y2="31.1"/>
				<line id="XMLID_19_" class="st0" x1="28.1" y1="14.6" x2="40.5" y2="38.7"/>
				<line id="XMLID_18_" class="st0" x1="25.5" y1="17.2" x2="37.8" y2="46.8"/>
			</g>
		</g>
		<g id="XMLID_3_">
			<g id="XMLID_13_">
				<g id="XMLID_14_">
					<polygon id="XMLID_15_" class="st0" points="1,18.6 12.5,7 24.2,18.4 12.5,52.8 					"/>
				</g>
			</g>
			<g id="XMLID_4_">
				<line id="XMLID_12_" class="st0" x1="14.8" y1="9.4" x2="2.8" y2="24.2"/>
				<line id="XMLID_11_" class="st0" x1="17.4" y1="11.9" x2="5.1" y2="31.1"/>
				<line id="XMLID_10_" class="st0" x1="20.1" y1="14.6" x2="7.7" y2="38.7"/>
				<line id="XMLID_9_" class="st0" x1="22.7" y1="17.2" x2="10.4" y2="46.8"/>
				<line id="XMLID_8_" class="st0" x1="10.3" y1="9.4" x2="22.2" y2="24.2"/>
				<line id="XMLID_7_" class="st0" x1="7.7" y1="11.9" x2="19.9" y2="31.1"/>
				<line id="XMLID_6_" class="st0" x1="5" y1="14.6" x2="17.4" y2="38.7"/>
				<line id="XMLID_5_" class="st0" x1="2.3" y1="17.2" x2="14.6" y2="46.8"/>
			</g>
		</g>
	</g>
</g>
</svg>
