<?xml version="1.0" encoding="utf-8"?>
<!-- Generator: Adobe Illustrator 19.2.0, SVG Export Plug-In . SVG Version: 6.00 Build 0)  -->
<svg version="1.1" id="Layer_1" xmlns="http://www.w3.org/2000/svg" xmlns:xlink="http://www.w3.org/1999/xlink" x="0px" y="0px"
	 viewBox="0 0 164.4 59.8" style="enable-background:new 0 0 164.4 59.8;" xml:space="preserve">
<style type="text/css">
	.st0{fill:none;stroke:#FFFFFF;stroke-miterlimit:10;}
</style>
<g id="XMLID_1_">
	<g id="XMLID_2_">
		<g id="XMLID_68_">
			<g id="XMLID_78_">
				<g id="XMLID_79_">
					<polygon id="XMLID_80_" class="st0" points="134.7,17.1 147.7,3.9 161,16.9 147.7,55.9 					"/>
				</g>
			</g>
			<g id="XMLID_69_">
				<line id="XMLID_77_" class="st0" x1="150.3" y1="6.7" x2="136.7" y2="23.5"/>
				<line id="XMLID_76_" class="st0" x1="153.2" y1="9.5" x2="139.4" y2="31.2"/>
				<line id="XMLID_75_" class="st0" x1="156.3" y1="12.6" x2="142.2" y2="39.8"/>
				<line id="XMLID_74_" class="st0" x1="159.3" y1="15.5" x2="145.4" y2="49.1"/>
				<line id="XMLID_73_" class="st0" x1="145.2" y1="6.7" x2="158.8" y2="23.5"/>
				<line id="XMLID_72_" class="st0" x1="142.3" y1="9.5" x2="156.2" y2="31.2"/>
				<line id="XMLID_71_" class="st0" x1="139.2" y1="12.6" x2="153.3" y2="39.8"/>
				<line id="XMLID_70_" class="st0" x1="136.2" y1="15.5" x2="150.2" y2="49.1"/>
			</g>
		</g>
		<g id="XMLID_55_">
			<g id="XMLID_65_">
				<g id="XMLID_66_">
					<polygon id="XMLID_67_" class="st0" points="108.5,17.1 121.5,3.9 134.7,16.9 121.5,55.9 					"/>
				</g>
			</g>
			<g id="XMLID_56_">
				<line id="XMLID_64_" class="st0" x1="124.1" y1="6.7" x2="110.5" y2="23.5"/>
				<line id="XMLID_63_" class="st0" x1="127" y1="9.5" x2="113.1" y2="31.2"/>
				<line id="XMLID_62_" class="st0" x1="130.1" y1="12.6" x2="116" y2="39.8"/>
				<line id="XMLID_61_" class="st0" x1="133.1" y1="15.5" x2="119.1" y2="49.1"/>
				<line id="XMLID_60_" class="st0" x1="118.9" y1="6.7" x2="132.5" y2="23.5"/>
				<line id="XMLID_59_" class="st0" x1="116" y1="9.5" x2="129.9" y2="31.2"/>
				<line id="XMLID_58_" class="st0" x1="112.9" y1="12.6" x2="127" y2="39.8"/>
				<line id="XMLID_57_" class="st0" x1="109.9" y1="15.5" x2="123.9" y2="49.1"/>
			</g>
		</g>
		<g id="XMLID_42_">
			<g id="XMLID_52_">
				<g id="XMLID_53_">
					<polygon id="XMLID_54_" class="st0" points="82.2,17.1 95.2,3.9 108.5,16.9 95.2,55.9 					"/>
				</g>
			</g>
			<g id="XMLID_43_">
				<line id="XMLID_51_" class="st0" x1="97.8" y1="6.7" x2="84.2" y2="23.5"/>
				<line id="XMLID_50_" class="st0" x1="100.7" y1="9.5" x2="86.8" y2="31.2"/>
				<line id="XMLID_49_" class="st0" x1="103.8" y1="12.6" x2="89.7" y2="39.8"/>
				<line id="XMLID_48_" class="st0" x1="106.8" y1="15.5" x2="92.8" y2="49.1"/>
				<line id="XMLID_47_" class="st0" x1="92.7" y1="6.7" x2="106.3" y2="23.5"/>
				<line id="XMLID_46_" class="st0" x1="89.8" y1="9.5" x2="103.6" y2="31.2"/>
				<line id="XMLID_45_" class="st0" x1="86.7" y1="12.6" x2="100.8" y2="39.8"/>
				<line id="XMLID_44_" class="st0" x1="83.7" y1="15.5" x2="97.6" y2="49.1"/>
			</g>
		</g>
		<g id="XMLID_29_">
			<g id="XMLID_39_">
				<g id="XMLID_40_">
					<polygon id="XMLID_41_" class="st0" points="56,17.1 69,3.9 82.2,16.9 69,55.9 					"/>
				</g>
			</g>
			<g id="XMLID_30_">
				<line id="XMLID_38_" class="st0" x1="71.6" y1="6.7" x2="58" y2="23.5"/>
				<line id="XMLID_37_" class="st0" x1="74.5" y1="9.5" x2="60.6" y2="31.2"/>
				<line id="XMLID_36_" class="st0" x1="77.6" y1="12.6" x2="63.5" y2="39.8"/>
				<line id="XMLID_35_" class="st0" x1="80.5" y1="15.5" x2="66.6" y2="49.1"/>
				<line id="XMLID_34_" class="st0" x1="66.4" y1="6.7" x2="80" y2="23.5"/>
				<line id="XMLID_33_" class="st0" x1="63.5" y1="9.5" x2="77.4" y2="31.2"/>
				<line id="XMLID_32_" class="st0" x1="60.4" y1="12.6" x2="74.5" y2="39.8"/>
				<line id="XMLID_31_" class="st0" x1="57.4" y1="15.5" x2="71.4" y2="49.1"/>
			</g>
		</g>
		<g id="XMLID_16_">
			<g id="XMLID_26_">
				<g id="XMLID_27_">
					<polygon id="XMLID_28_" class="st0" points="29.7,17.1 42.7,3.9 56,16.9 42.7,55.9 					"/>
				</g>
			</g>
			<g id="XMLID_17_">
				<line id="XMLID_25_" class="st0" x1="45.3" y1="6.7" x2="31.7" y2="23.5"/>
				<line id="XMLID_24_" class="st0" x1="48.2" y1="9.5" x2="34.3" y2="31.2"/>
				<line id="XMLID_23_" class="st0" x1="51.3" y1="12.6" x2="37.2" y2="39.8"/>
				<line id="XMLID_22_" class="st0" x1="54.3" y1="15.5" x2="40.3" y2="49.1"/>
				<line id="XMLID_21_" class="st0" x1="40.2" y1="6.7" x2="53.7" y2="23.5"/>
				<line id="XMLID_20_" class="st0" x1="37.3" y1="9.5" x2="51.1" y2="31.2"/>
				<line id="XMLID_19_" class="st0" x1="34.2" y1="12.6" x2="48.3" y2="39.8"/>
				<line id="XMLID_18_" class="st0" x1="31.2" y1="15.5" x2="45.1" y2="49.1"/>
			</g>
		</g>
		<g id="XMLID_3_">
			<g id="XMLID_13_">
				<g id="XMLID_14_">
					<polygon id="XMLID_15_" class="st0" points="3.4,17.1 16.5,3.9 29.7,16.9 16.5,55.9 					"/>
				</g>
			</g>
			<g id="XMLID_4_">
				<line id="XMLID_12_" class="st0" x1="19.1" y1="6.7" x2="5.5" y2="23.5"/>
				<line id="XMLID_11_" class="st0" x1="22" y1="9.5" x2="8.1" y2="31.2"/>
				<line id="XMLID_10_" class="st0" x1="25" y1="12.6" x2="11" y2="39.8"/>
				<line id="XMLID_9_" class="st0" x1="28" y1="15.5" x2="14.1" y2="49.1"/>
				<line id="XMLID_8_" class="st0" x1="13.9" y1="6.7" x2="27.5" y2="23.5"/>
				<line id="XMLID_7_" class="st0" x1="11" y1="9.5" x2="24.9" y2="31.2"/>
				<line id="XMLID_6_" class="st0" x1="7.9" y1="12.6" x2="22" y2="39.8"/>
				<line id="XMLID_5_" class="st0" x1="4.9" y1="15.5" x2="18.9" y2="49.1"/>
			</g>
		</g>
	</g>
</g>
</svg>
