<?xml version="1.0" encoding="utf-8"?>
<!-- Generator: Adobe Illustrator 19.2.0, SVG Export Plug-In . SVG Version: 6.00 Build 0)  -->
<svg version="1.1" id="Layer_1" xmlns="http://www.w3.org/2000/svg" xmlns:xlink="http://www.w3.org/1999/xlink" x="0px" y="0px"
	 viewBox="0 0 76.6 76.2" style="enable-background:new 0 0 76.6 76.2;" xml:space="preserve">
<style type="text/css">
	.st0{fill:#844398;}
</style>
<path class="st0" d="M38.3,7.4C55.2,7.4,69,21.2,69,38.1S55.2,68.8,38.3,68.8S7.6,55,7.6,38.1S21.4,7.4,38.3,7.4z M38.3,1.3
	C17.9,1.3,1.5,17.8,1.5,38.1S17.9,75,38.3,75s36.8-16.5,36.8-36.8S58.6,1.3,38.3,1.3z M56.2,39.5c0.6,0.1,0.6,1,0,1.1
	c-5.9,1.1-18.6,3.4-20.1,3.4c-2.2,0-4-1.8-4-4c0-1.6,2.4-16.7,3.5-22.9c0.1-0.6,1-0.6,1.1,0l3,19.1L56.2,39.5z"/>
</svg>
