<?xml version="1.0" encoding="utf-8"?>
<!-- Generator: Adobe Illustrator 19.2.0, SVG Export Plug-In . SVG Version: 6.00 Build 0)  -->
<svg version="1.1" id="Layer_1" xmlns="http://www.w3.org/2000/svg" xmlns:xlink="http://www.w3.org/1999/xlink" x="0px" y="0px"
	 viewBox="0 0 180 180" style="enable-background:new 0 0 180 180;" xml:space="preserve">
<style type="text/css">
	.st0{fill:#231F20;}
	.st1{fill:#FFFFFF;stroke:#FFFFFF;stroke-miterlimit:10;}
</style>
<rect x="0" class="st0" width="180" height="180"/>
<g>
	<g>
		<g>
			<path class="st1" d="M95.2,130.6c-1.3,0.6-2.6,0.7-3.8,0.2c-1.1-0.4-2-1.2-2.6-2.6c-0.4-1.1-0.4-2.3-0.1-3.4
				c0.3-1.2,1.2-2,2.6-2.6c0.2-0.1,0.6-0.2,0.8-0.2s0.4,0,0.8,0c-2.6-13.3-6.4-33.4-11.7-60.2h-0.1H81c-5.2,15.4-13,38.6-23.4,69.5
				c-0.1,0.3-0.3,0.7-0.6,0.8c-0.3,0.1-0.7,0.2-1,0.2c-0.1,0-0.2,0-0.4,0c-0.3,0-0.7,0-0.9-0.1c-0.3-0.1-0.6-0.3-0.7-0.8
				C48.8,116,41,92.9,30.6,62h-0.1h-0.1c-2.9,15.1-7.3,37.7-13.1,68c0,0.3-0.2,0.7-0.4,0.9c-0.2,0.2-0.6,0.4-0.9,0.4
				c-0.7,0-1.6,0-2.8,0c-0.6,0-0.9-0.1-1.1-0.3c-0.1-0.1-0.2-0.4-0.2-0.8c0-0.1,0-0.3,0.1-0.4c3.7-17.8,9.1-44.5,16.4-80
				c0.1-0.2,0.2-0.4,0.4-0.6c0.2-0.1,0.4-0.2,0.7-0.2c0.3,0,0.8,0,1.3,0c0.3,0,0.6,0,0.8,0.1c0.1,0.1,0.3,0.3,0.4,0.7
				c5.3,15.9,13.3,39.6,24,71.3h0.1h0.1c5.3-15.9,13.3-39.6,24-71.3c0.1-0.2,0.2-0.4,0.4-0.7c0.2-0.1,0.4-0.1,0.8-0.1
				c0.2,0,0.7,0,1.3,0c0.2,0,0.4,0.1,0.7,0.2c0.2,0.1,0.3,0.3,0.4,0.6c3.3,16,8.2,40.1,14.8,72.1c0,0,0.1,0,0.1,0.1v0.1
				c0,0,0,0.1,0.1,0.2c0.1,0.9,0.2,1.8,0.2,2.6c0,1.2-0.2,2.2-0.6,3.1C97.3,129.2,96.5,130.1,95.2,130.6z"/>
		</g>
		<g>
			<path class="st1" d="M167.4,128.8c0.3,0.6,0.4,0.9,0.2,1.5c-0.1,0.6-0.6,0.7-1.1,0.7c-0.8,0-2,0-3.7,0c-0.4,0-0.8-0.1-1.1-0.2
				c-0.2-0.2-0.4-0.6-0.6-0.8c-3.8-6.8-9.5-17.3-17.3-31.2c-0.8,0.1-1.6,0.1-2.1,0.1c-0.7,0-1.5,0-2.2,0c-1.9,0-5,0-9.1,0
				c0.2,0.3,0.3,0.6,0.3,0.9c0.1,0.3,0.1,0.6,0.1,0.9c-0.1,1.6-0.6,2.7-1.6,3.5c-1,0.8-2.1,1.1-3.4,1c-1.5-0.1-2.6-0.6-3.3-1.6
				c-0.8-1-1.1-2.2-1.1-3.7c0.1-1.6,0.9-3,2.4-4.1c1.6-1.1,3.9-1.8,7.2-1.9c0.1,0,0.3,0,0.6,0h0.1h0.1c2.5,0,6.3,0,11.2,0
				c2,0,4-0.2,5.8-0.7c1.8-0.6,3.6-1.3,5.3-2.2c3-1.8,5.4-4.1,7.3-7.3c1.8-3,2.8-6.6,2.8-10.3c0-3.7-0.9-7.1-2.8-10.1
				c-1.8-3-4.3-5.4-7.3-7.1c-1.7-0.9-3.4-1.7-5.3-2.1s-3.9-0.8-5.8-0.8c-5.5,0-13.8,0-25,0c-0.1,17-0.1,42.4-0.2,76.3
				c0,0.4-0.2,0.8-0.6,1.1c-0.3,0.3-0.8,0.6-1.5,0.6c-0.4,0-1.1,0-2,0c-0.4,0-0.8-0.2-1.1-0.6c-0.3-0.3-0.4-0.6-0.4-1.1
				c0-6.6,0-16.7,0-30.1c0-11.1,0-27.8,0-50.1c0-0.4,0.1-0.7,0.4-1.1c0.3-0.3,0.6-0.6,1.1-0.6c6.6,0,16.3,0,29.4,0
				c2.6,0,5,0.3,7.4,1c2.4,0.6,4.6,1.6,6.6,2.8c3.8,2.2,6.8,5.3,9.1,9c2.4,3.8,3.5,8,3.5,12.8c0,5.9-1.8,11.2-5.5,15.7
				c-3.7,4.5-8.4,7.5-14,9.1C154,104.7,159.7,115,167.4,128.8z"/>
		</g>
	</g>
</g>
</svg>
