<?xml version="1.0" encoding="utf-8"?>
<!-- Generator: Adobe Illustrator 19.2.0, SVG Export Plug-In . SVG Version: 6.00 Build 0)  -->
<svg version="1.1" id="Layer_1" xmlns="http://www.w3.org/2000/svg" xmlns:xlink="http://www.w3.org/1999/xlink" x="0px" y="0px"
	 viewBox="0 0 763.7 221" style="enable-background:new 0 0 763.7 221;" xml:space="preserve">
<style type="text/css">
	.st0{fill:url(#XMLID_80_);stroke:#FFFFFF;stroke-width:2;stroke-linecap:round;stroke-linejoin:round;stroke-miterlimit:10;}
	.st1{fill:none;stroke:#FFFFFF;stroke-width:2;stroke-linecap:round;stroke-linejoin:round;stroke-miterlimit:10;}
	.st2{fill:url(#XMLID_81_);stroke:#FFFFFF;stroke-width:2;stroke-linecap:round;stroke-linejoin:round;stroke-miterlimit:10;}
	.st3{fill:url(#XMLID_82_);stroke:#FFFFFF;stroke-width:2;stroke-linecap:round;stroke-linejoin:round;stroke-miterlimit:10;}
	.st4{fill:url(#XMLID_83_);stroke:#FFFFFF;stroke-width:2;stroke-linecap:round;stroke-linejoin:round;stroke-miterlimit:10;}
	.st5{fill:url(#XMLID_84_);stroke:#FFFFFF;stroke-width:2;stroke-linecap:round;stroke-linejoin:round;stroke-miterlimit:10;}
	.st6{fill:url(#XMLID_85_);stroke:#FFFFFF;stroke-width:2;stroke-linecap:round;stroke-linejoin:round;stroke-miterlimit:10;}
	.st7{fill:url(#XMLID_86_);stroke:#FFFFFF;stroke-width:2;stroke-linecap:round;stroke-linejoin:round;stroke-miterlimit:10;}
</style>
<g>
	<g id="XMLID_1485_">
		<g id="XMLID_1495_">
			<g id="XMLID_1496_">
				
					<linearGradient id="XMLID_80_" gradientUnits="userSpaceOnUse" x1="56.9348" y1="0.4604" x2="56.9348" y2="219.8936" gradientTransform="matrix(1 0 0 -1 0 222)">
					<stop  offset="0" style="stop-color:#81CCEC"/>
					<stop  offset="0.1411" style="stop-color:#89CDE5"/>
					<stop  offset="0.3601" style="stop-color:#9FD0D0"/>
					<stop  offset="0.6294" style="stop-color:#C3D4AF"/>
					<stop  offset="0.9363" style="stop-color:#F4DB81"/>
					<stop  offset="1" style="stop-color:#FFDC77"/>
				</linearGradient>
				<polygon id="XMLID_1497_" class="st0" points="2.8,56.8 56.5,3.2 111.1,56.9 56.5,217.8 				"/>
			</g>
		</g>
		<g id="XMLID_1486_">
			<line id="XMLID_1494_" class="st1" x1="67.7" y1="14.2" x2="11.6" y2="83.4"/>
			<line id="XMLID_1493_" class="st1" x1="79.5" y1="26.1" x2="22.3" y2="115.4"/>
			<line id="XMLID_1492_" class="st1" x1="92.2" y1="38.6" x2="34.2" y2="150.9"/>
			<line id="XMLID_1491_" class="st1" x1="104.4" y1="50.6" x2="47" y2="189.2"/>
			<line id="XMLID_1490_" class="st1" x1="45.4" y1="14.2" x2="102" y2="84.1"/>
			<line id="XMLID_1489_" class="st1" x1="33.7" y1="26.1" x2="91.1" y2="115.9"/>
			<line id="XMLID_1488_" class="st1" x1="21" y1="38.7" x2="79.1" y2="151.2"/>
			<line id="XMLID_1487_" class="st1" x1="8.9" y1="51.2" x2="66.2" y2="189.2"/>
		</g>
	</g>
	<g id="XMLID_1_">
		<g id="XMLID_11_">
			<g id="XMLID_12_">
				
					<linearGradient id="XMLID_81_" gradientUnits="userSpaceOnUse" x1="165.2348" y1="0.4604" x2="165.2348" y2="219.8936" gradientTransform="matrix(1 0 0 -1 0 222)">
					<stop  offset="0" style="stop-color:#81CCEC"/>
					<stop  offset="0.1411" style="stop-color:#89CDE5"/>
					<stop  offset="0.3601" style="stop-color:#9FD0D0"/>
					<stop  offset="0.6294" style="stop-color:#C3D4AF"/>
					<stop  offset="0.9363" style="stop-color:#F4DB81"/>
					<stop  offset="1" style="stop-color:#FFDC77"/>
				</linearGradient>
				<polygon id="XMLID_13_" class="st2" points="111.1,56.8 164.8,3.2 219.4,56.9 164.8,217.8 				"/>
			</g>
		</g>
		<g id="XMLID_2_">
			<line id="XMLID_10_" class="st1" x1="176" y1="14.2" x2="119.9" y2="83.4"/>
			<line id="XMLID_9_" class="st1" x1="187.8" y1="26.1" x2="130.6" y2="115.4"/>
			<line id="XMLID_8_" class="st1" x1="200.5" y1="38.6" x2="142.5" y2="150.9"/>
			<line id="XMLID_7_" class="st1" x1="212.7" y1="50.6" x2="155.3" y2="189.2"/>
			<line id="XMLID_6_" class="st1" x1="153.7" y1="14.2" x2="210.3" y2="84.1"/>
			<line id="XMLID_5_" class="st1" x1="142" y1="26.1" x2="199.4" y2="115.9"/>
			<line id="XMLID_4_" class="st1" x1="129.3" y1="38.7" x2="187.4" y2="151.2"/>
			<line id="XMLID_3_" class="st1" x1="117.2" y1="51.2" x2="174.5" y2="189.2"/>
		</g>
	</g>
	<g id="XMLID_14_">
		<g id="XMLID_24_">
			<g id="XMLID_25_">
				
					<linearGradient id="XMLID_82_" gradientUnits="userSpaceOnUse" x1="273.5349" y1="0.4604" x2="273.5349" y2="219.8936" gradientTransform="matrix(1 0 0 -1 0 222)">
					<stop  offset="0" style="stop-color:#81CCEC"/>
					<stop  offset="0.1411" style="stop-color:#89CDE5"/>
					<stop  offset="0.3601" style="stop-color:#9FD0D0"/>
					<stop  offset="0.6294" style="stop-color:#C3D4AF"/>
					<stop  offset="0.9363" style="stop-color:#F4DB81"/>
					<stop  offset="1" style="stop-color:#FFDC77"/>
				</linearGradient>
				<polygon id="XMLID_26_" class="st3" points="219.4,56.8 273.1,3.2 327.7,56.9 273.1,217.8 				"/>
			</g>
		</g>
		<g id="XMLID_15_">
			<line id="XMLID_23_" class="st1" x1="284.3" y1="14.2" x2="228.2" y2="83.4"/>
			<line id="XMLID_22_" class="st1" x1="296.1" y1="26.1" x2="238.9" y2="115.4"/>
			<line id="XMLID_21_" class="st1" x1="308.8" y1="38.6" x2="250.8" y2="150.9"/>
			<line id="XMLID_20_" class="st1" x1="321" y1="50.6" x2="263.6" y2="189.2"/>
			<line id="XMLID_19_" class="st1" x1="262" y1="14.2" x2="318.6" y2="84.1"/>
			<line id="XMLID_18_" class="st1" x1="250.3" y1="26.1" x2="307.7" y2="115.9"/>
			<line id="XMLID_17_" class="st1" x1="237.6" y1="38.7" x2="295.7" y2="151.2"/>
			<line id="XMLID_16_" class="st1" x1="225.5" y1="51.2" x2="282.8" y2="189.2"/>
		</g>
	</g>
	<g id="XMLID_27_">
		<g id="XMLID_37_">
			<g id="XMLID_38_">
				
					<linearGradient id="XMLID_83_" gradientUnits="userSpaceOnUse" x1="381.8348" y1="0.4604" x2="381.8348" y2="219.8936" gradientTransform="matrix(1 0 0 -1 0 222)">
					<stop  offset="0" style="stop-color:#81CCEC"/>
					<stop  offset="0.1411" style="stop-color:#89CDE5"/>
					<stop  offset="0.3601" style="stop-color:#9FD0D0"/>
					<stop  offset="0.6294" style="stop-color:#C3D4AF"/>
					<stop  offset="0.9363" style="stop-color:#F4DB81"/>
					<stop  offset="1" style="stop-color:#FFDC77"/>
				</linearGradient>
				<polygon id="XMLID_39_" class="st4" points="327.7,56.8 381.4,3.2 436,56.9 381.4,217.8 				"/>
			</g>
		</g>
		<g id="XMLID_28_">
			<line id="XMLID_36_" class="st1" x1="392.6" y1="14.2" x2="336.5" y2="83.4"/>
			<line id="XMLID_35_" class="st1" x1="404.4" y1="26.1" x2="347.2" y2="115.4"/>
			<line id="XMLID_34_" class="st1" x1="417.1" y1="38.6" x2="359.1" y2="150.9"/>
			<line id="XMLID_33_" class="st1" x1="429.3" y1="50.6" x2="371.9" y2="189.2"/>
			<line id="XMLID_32_" class="st1" x1="370.3" y1="14.2" x2="426.9" y2="84.1"/>
			<line id="XMLID_31_" class="st1" x1="358.6" y1="26.1" x2="416" y2="115.9"/>
			<line id="XMLID_30_" class="st1" x1="345.9" y1="38.7" x2="404" y2="151.2"/>
			<line id="XMLID_29_" class="st1" x1="333.8" y1="51.2" x2="391.1" y2="189.2"/>
		</g>
	</g>
	<g id="XMLID_40_">
		<g id="XMLID_50_">
			<g id="XMLID_51_">
				
					<linearGradient id="XMLID_84_" gradientUnits="userSpaceOnUse" x1="490.1348" y1="0.4604" x2="490.1348" y2="219.8936" gradientTransform="matrix(1 0 0 -1 0 222)">
					<stop  offset="0" style="stop-color:#81CCEC"/>
					<stop  offset="0.1411" style="stop-color:#89CDE5"/>
					<stop  offset="0.3601" style="stop-color:#9FD0D0"/>
					<stop  offset="0.6294" style="stop-color:#C3D4AF"/>
					<stop  offset="0.9363" style="stop-color:#F4DB81"/>
					<stop  offset="1" style="stop-color:#FFDC77"/>
				</linearGradient>
				<polygon id="XMLID_52_" class="st5" points="436,56.8 489.7,3.2 544.3,56.9 489.7,217.8 				"/>
			</g>
		</g>
		<g id="XMLID_41_">
			<line id="XMLID_49_" class="st1" x1="500.9" y1="14.2" x2="444.8" y2="83.4"/>
			<line id="XMLID_48_" class="st1" x1="512.7" y1="26.1" x2="455.5" y2="115.4"/>
			<line id="XMLID_47_" class="st1" x1="525.4" y1="38.6" x2="467.4" y2="150.9"/>
			<line id="XMLID_46_" class="st1" x1="537.6" y1="50.6" x2="480.2" y2="189.2"/>
			<line id="XMLID_45_" class="st1" x1="478.6" y1="14.2" x2="535.2" y2="84.1"/>
			<line id="XMLID_44_" class="st1" x1="466.9" y1="26.1" x2="524.3" y2="115.9"/>
			<line id="XMLID_43_" class="st1" x1="454.2" y1="38.7" x2="512.3" y2="151.2"/>
			<line id="XMLID_42_" class="st1" x1="442.1" y1="51.2" x2="499.4" y2="189.2"/>
		</g>
	</g>
	<g id="XMLID_53_">
		<g id="XMLID_63_">
			<g id="XMLID_64_">
				
					<linearGradient id="XMLID_85_" gradientUnits="userSpaceOnUse" x1="598.4348" y1="0.4604" x2="598.4348" y2="219.8936" gradientTransform="matrix(1 0 0 -1 0 222)">
					<stop  offset="0" style="stop-color:#81CCEC"/>
					<stop  offset="0.1411" style="stop-color:#89CDE5"/>
					<stop  offset="0.3601" style="stop-color:#9FD0D0"/>
					<stop  offset="0.6294" style="stop-color:#C3D4AF"/>
					<stop  offset="0.9363" style="stop-color:#F4DB81"/>
					<stop  offset="1" style="stop-color:#FFDC77"/>
				</linearGradient>
				<polygon id="XMLID_65_" class="st6" points="544.3,56.8 598,3.2 652.6,56.9 598,217.8 				"/>
			</g>
		</g>
		<g id="XMLID_54_">
			<line id="XMLID_62_" class="st1" x1="609.2" y1="14.2" x2="553.1" y2="83.4"/>
			<line id="XMLID_61_" class="st1" x1="621" y1="26.1" x2="563.8" y2="115.4"/>
			<line id="XMLID_60_" class="st1" x1="633.7" y1="38.6" x2="575.7" y2="150.9"/>
			<line id="XMLID_59_" class="st1" x1="645.9" y1="50.6" x2="588.5" y2="189.2"/>
			<line id="XMLID_58_" class="st1" x1="586.9" y1="14.2" x2="643.5" y2="84.1"/>
			<line id="XMLID_57_" class="st1" x1="575.2" y1="26.1" x2="632.6" y2="115.9"/>
			<line id="XMLID_56_" class="st1" x1="562.5" y1="38.7" x2="620.6" y2="151.2"/>
			<line id="XMLID_55_" class="st1" x1="550.4" y1="51.2" x2="607.7" y2="189.2"/>
		</g>
	</g>
	<g id="XMLID_66_">
		<g id="XMLID_76_">
			<g id="XMLID_77_">
				
					<linearGradient id="XMLID_86_" gradientUnits="userSpaceOnUse" x1="706.7348" y1="0.4604" x2="706.7348" y2="219.8936" gradientTransform="matrix(1 0 0 -1 0 222)">
					<stop  offset="0" style="stop-color:#81CCEC"/>
					<stop  offset="0.1411" style="stop-color:#89CDE5"/>
					<stop  offset="0.3601" style="stop-color:#9FD0D0"/>
					<stop  offset="0.6294" style="stop-color:#C3D4AF"/>
					<stop  offset="0.9363" style="stop-color:#F4DB81"/>
					<stop  offset="1" style="stop-color:#FFDC77"/>
				</linearGradient>
				<polygon id="XMLID_78_" class="st7" points="652.6,56.8 706.3,3.2 760.9,56.9 706.3,217.8 				"/>
			</g>
		</g>
		<g id="XMLID_67_">
			<line id="XMLID_75_" class="st1" x1="717.5" y1="14.2" x2="661.4" y2="83.4"/>
			<line id="XMLID_74_" class="st1" x1="729.3" y1="26.1" x2="672.1" y2="115.4"/>
			<line id="XMLID_73_" class="st1" x1="742" y1="38.6" x2="684" y2="150.9"/>
			<line id="XMLID_72_" class="st1" x1="754.2" y1="50.6" x2="696.8" y2="189.2"/>
			<line id="XMLID_71_" class="st1" x1="695.2" y1="14.2" x2="751.8" y2="84.1"/>
			<line id="XMLID_70_" class="st1" x1="683.5" y1="26.1" x2="740.9" y2="115.9"/>
			<line id="XMLID_69_" class="st1" x1="670.8" y1="38.7" x2="728.9" y2="151.2"/>
			<line id="XMLID_68_" class="st1" x1="658.7" y1="51.2" x2="716" y2="189.2"/>
		</g>
	</g>
</g>
</svg>
