<?xml version="1.0" encoding="utf-8"?>
<!-- Generator: Adobe Illustrator 19.2.0, SVG Export Plug-In . SVG Version: 6.00 Build 0)  -->
<svg version="1.1" id="Layer_1" xmlns="http://www.w3.org/2000/svg" xmlns:xlink="http://www.w3.org/1999/xlink" x="0px" y="0px"
	 viewBox="0 0 652.8 151.2" style="enable-background:new 0 0 652.8 151.2;" xml:space="preserve">
<style type="text/css">
	.st0{fill:#231F20;}
</style>
<g>
	<g>
		<path class="st0" d="M9.3,125.3c-1,0-2,0.2-2.9,0.6s-1.7,0.9-2.4,1.6c-0.7,0.7-1.2,1.5-1.6,2.4s-0.6,1.9-0.6,2.9
			c0,1,0.2,2,0.6,2.9s0.9,1.7,1.6,2.3c0.7,0.7,1.4,1.2,2.4,1.6s1.9,0.6,2.9,0.6c1.1,0,2.2-0.2,3.3-0.7c1-0.5,1.9-1.2,2.6-2.1
			c0.1-0.1,0.2-0.2,0.3-0.2c0.3,0,0.4,0.1,0.4,0.4c0,0.1,0,0.2-0.1,0.3c-0.7,1-1.7,1.7-2.8,2.3c-1.1,0.6-2.4,0.8-3.6,0.8
			c-1.1,0-2.2-0.2-3.2-0.6c-1-0.4-1.9-1-2.6-1.8c-0.7-0.7-1.3-1.6-1.8-2.6c-0.4-1-0.6-2.1-0.6-3.2c0-0.8,0.1-1.7,0.4-2.5
			c0.3-0.8,0.6-1.5,1-2.2c0.4-0.7,1-1.2,1.6-1.8c0.6-0.5,1.3-0.9,2-1.2c0.5-0.2,1-0.4,1.5-0.5c0.5-0.1,1.1-0.2,1.6-0.2
			c1.1,0,2.2,0.2,3.2,0.6c1,0.4,1.9,1,2.7,1.8c0.1,0.1,0.2,0.2,0.2,0.3s0,0.1,0,0.2c0,0.2-0.1,0.4-0.4,0.4c-0.1,0-0.1,0-0.2,0
			s-0.1-0.1-0.3-0.2c-0.7-0.7-1.5-1.2-2.4-1.6C11.2,125.5,10.3,125.3,9.3,125.3z"/>
		<path class="st0" d="M34.7,140.4c0.1,0.1,0.1,0.2,0,0.3c0,0.1-0.1,0.2-0.2,0.2c-0.1,0.1-0.2,0.1-0.3,0c-0.1,0-0.2-0.1-0.2-0.2
			l-2.3-5.3h-8.3l-2.3,5.3c0,0.1-0.1,0.2-0.2,0.2s-0.2,0-0.3,0c-0.1-0.1-0.2-0.1-0.2-0.2c0-0.1,0-0.2,0-0.3l6.8-15.7
			c0.1-0.2,0.2-0.3,0.4-0.3c0.2,0,0.3,0.1,0.4,0.3L34.7,140.4z M23.8,134.6h7.6l-3.8-8.7L23.8,134.6z"/>
		<path class="st0" d="M47.6,124.4c0.3,0,0.4,0.1,0.4,0.4c0,0.3-0.1,0.4-0.4,0.4h-4.3v15.4c0,0.3-0.1,0.4-0.4,0.4s-0.4-0.1-0.4-0.4
			v-15.4h-4.3c-0.3,0-0.4-0.1-0.4-0.4c0-0.3,0.1-0.4,0.4-0.4H47.6z"/>
		<path class="st0" d="M55.3,141c-0.3,0-0.4-0.1-0.4-0.4v-15.7c0-0.3,0.1-0.4,0.4-0.4h8.3c0.3,0,0.4,0.1,0.4,0.4
			c0,0.3-0.1,0.4-0.4,0.4h-7.9v6.9h5.1c0.3,0,0.4,0.1,0.4,0.4c0,0.3-0.1,0.4-0.4,0.4h-5.1v7.1h7.9c0.3,0,0.4,0.1,0.4,0.4
			c0,0.3-0.1,0.4-0.4,0.4H55.3z"/>
		<path class="st0" d="M84.1,132.8c0,1.1-0.2,2.2-0.6,3.2c-0.4,1-1,1.9-1.8,2.6c-0.7,0.7-1.6,1.3-2.6,1.8c-1,0.4-2.1,0.6-3.2,0.6
			h-4.7c-0.1,0-0.2,0-0.3-0.1c-0.1-0.1-0.1-0.2-0.1-0.3v-15.7c0-0.1,0-0.2,0.1-0.3c0.1-0.1,0.2-0.1,0.3-0.1h4.7
			c1.1,0,2.2,0.2,3.2,0.6c1,0.4,1.9,1,2.6,1.8c0.7,0.7,1.3,1.6,1.8,2.6C83.9,130.5,84.1,131.6,84.1,132.8z M71.5,125.3v14.9h4.3
			c1,0,2-0.2,2.9-0.6c0.9-0.4,1.7-0.9,2.4-1.6c0.7-0.7,1.2-1.5,1.6-2.4s0.6-1.9,0.6-2.9c0-1.1-0.2-2-0.6-2.9
			c-0.4-0.9-0.9-1.7-1.6-2.4c-0.7-0.7-1.5-1.2-2.4-1.6c-0.9-0.4-1.9-0.6-2.9-0.6H71.5z"/>
		<path class="st0" d="M91.7,124.9c0-0.3,0.1-0.4,0.4-0.4h4.4c0.6,0,1.1,0.1,1.6,0.3c0.5,0.2,1,0.5,1.4,0.9s0.7,0.8,0.9,1.3
			s0.4,1.1,0.4,1.6s-0.1,1.1-0.4,1.6s-0.5,1-0.9,1.3c-0.4,0.4-0.8,0.7-1.4,0.9c-0.5,0.2-1.1,0.3-1.6,0.3l4.7,7.5
			c0.2,0.2,0.1,0.4-0.1,0.6c-0.1,0.1-0.2,0.1-0.3,0.1c-0.1,0-0.2-0.1-0.3-0.2l-5-7.9h-3.1v7.7c0,0.3-0.1,0.4-0.4,0.4
			c-0.3,0-0.4-0.1-0.4-0.4V124.9z M92.5,125.3v6.8h4.1c0.5,0,0.9-0.1,1.4-0.3s0.8-0.4,1.1-0.7c0.3-0.3,0.5-0.7,0.7-1.1
			c0.2-0.4,0.3-0.8,0.3-1.3c0-0.5-0.1-0.9-0.3-1.3c-0.2-0.4-0.4-0.8-0.7-1.1c-0.3-0.3-0.7-0.5-1.1-0.7c-0.4-0.2-0.9-0.3-1.4-0.3
			H92.5z"/>
		<path class="st0" d="M122.8,140.4c0.1,0.1,0.1,0.2,0,0.3c0,0.1-0.1,0.2-0.2,0.2c-0.1,0.1-0.2,0.1-0.3,0c-0.1,0-0.2-0.1-0.2-0.2
			l-2.3-5.3h-8.3l-2.3,5.3c0,0.1-0.1,0.2-0.2,0.2s-0.2,0-0.3,0c-0.1-0.1-0.2-0.1-0.2-0.2c0-0.1,0-0.2,0-0.3l6.8-15.7
			c0.1-0.2,0.2-0.3,0.4-0.3c0.2,0,0.3,0.1,0.4,0.3L122.8,140.4z M111.8,134.6h7.6l-3.8-8.7L111.8,134.6z"/>
		<path class="st0" d="M129.8,124.9c0-0.1,0-0.2,0.1-0.3c0.1-0.1,0.2-0.1,0.3-0.1c0.1,0,0.2,0,0.3,0.1c0.1,0.1,0.1,0.2,0.1,0.3v15.3
			h7.2c0.3,0,0.4,0.1,0.4,0.4c0,0.1,0,0.2-0.1,0.3c-0.1,0.1-0.2,0.1-0.3,0.1h-7.7c-0.1,0-0.2,0-0.3-0.1c0-0.1-0.1-0.2-0.1-0.3V124.9
			z"/>
		<path class="st0" d="M155.9,124.8c0-0.2,0.1-0.3,0.3-0.3c0.2-0.1,0.4,0,0.5,0.2l5.9,14.7l5.9-14.7c0.1-0.2,0.3-0.3,0.5-0.3
			c0.2,0,0.3,0.2,0.3,0.4l2.2,15.7c0,0.3-0.1,0.4-0.4,0.5c-0.3,0-0.4-0.1-0.5-0.4l-2-14.2l-5.8,14.3c-0.1,0.2-0.2,0.3-0.3,0.3
			c-0.1,0-0.3,0-0.3-0.1c-0.1,0-0.1-0.1-0.2-0.2l-5.7-14.3l-2,14.2c-0.1,0.3-0.2,0.4-0.5,0.4c-0.3,0-0.4-0.2-0.4-0.5L155.9,124.8z"
			/>
		<path class="st0" d="M179.4,141c-0.3,0-0.4-0.1-0.4-0.4v-15.7c0-0.3,0.1-0.4,0.4-0.4h8.3c0.3,0,0.4,0.1,0.4,0.4
			c0,0.3-0.1,0.4-0.4,0.4h-7.9v6.9h5.1c0.3,0,0.4,0.1,0.4,0.4c0,0.3-0.1,0.4-0.4,0.4h-5.1v7.1h7.9c0.3,0,0.4,0.1,0.4,0.4
			c0,0.3-0.1,0.4-0.4,0.4H179.4z"/>
		<path class="st0" d="M204.9,124.4c0.3,0,0.4,0.1,0.4,0.4c0,0.3-0.1,0.4-0.4,0.4h-4.3v15.4c0,0.3-0.1,0.4-0.4,0.4s-0.4-0.1-0.4-0.4
			v-15.4h-4.3c-0.3,0-0.4-0.1-0.4-0.4c0-0.3,0.1-0.4,0.4-0.4H204.9z"/>
		<path class="st0" d="M211.7,124.9c0-0.3,0.1-0.4,0.4-0.4h4.4c0.6,0,1.1,0.1,1.6,0.3c0.5,0.2,1,0.5,1.4,0.9s0.7,0.8,0.9,1.3
			s0.4,1.1,0.4,1.6s-0.1,1.1-0.4,1.6s-0.5,1-0.9,1.3c-0.4,0.4-0.8,0.7-1.4,0.9c-0.5,0.2-1.1,0.3-1.6,0.3l4.7,7.5
			c0.2,0.2,0.1,0.4-0.1,0.6c-0.1,0.1-0.2,0.1-0.3,0.1c-0.1,0-0.2-0.1-0.3-0.2l-5-7.9h-3.1v7.7c0,0.3-0.1,0.4-0.4,0.4
			c-0.3,0-0.4-0.1-0.4-0.4V124.9z M212.5,125.3v6.8h4.1c0.5,0,0.9-0.1,1.4-0.3s0.8-0.4,1.1-0.7c0.3-0.3,0.5-0.7,0.7-1.1
			c0.2-0.4,0.3-0.8,0.3-1.3c0-0.5-0.1-0.9-0.3-1.3c-0.2-0.4-0.4-0.8-0.7-1.1c-0.3-0.3-0.7-0.5-1.1-0.7c-0.4-0.2-0.9-0.3-1.4-0.3
			H212.5z"/>
		<path class="st0" d="M235.3,124.5c1.1,0,2.2,0.2,3.2,0.6c1,0.4,1.9,1,2.6,1.8c0.8,0.8,1.3,1.6,1.8,2.6c0.4,1,0.6,2.1,0.6,3.2
			s-0.2,2.2-0.6,3.2c-0.4,1-1,1.9-1.8,2.6c-0.8,0.7-1.6,1.3-2.6,1.8c-1,0.4-2.1,0.6-3.2,0.6c-1.1,0-2.2-0.2-3.2-0.6
			c-1-0.4-1.9-1-2.6-1.8c-0.7-0.7-1.3-1.6-1.8-2.6c-0.4-1-0.6-2.1-0.6-3.2s0.2-2.2,0.6-3.2c0.4-1,1-1.9,1.8-2.6
			c0.7-0.8,1.6-1.3,2.6-1.8C233.1,124.7,234.2,124.5,235.3,124.5z M235.3,125.3c-1,0-2,0.2-2.9,0.6s-1.7,0.9-2.4,1.6
			c-0.7,0.7-1.2,1.5-1.6,2.4s-0.6,1.9-0.6,2.9c0,1,0.2,2,0.6,2.9s0.9,1.7,1.6,2.3c0.7,0.7,1.4,1.2,2.4,1.6s1.9,0.6,2.9,0.6
			c1,0,2-0.2,2.9-0.6c0.9-0.4,1.7-0.9,2.4-1.6c0.7-0.7,1.2-1.4,1.6-2.3s0.6-1.9,0.6-2.9c0-1-0.2-2-0.6-2.9s-0.9-1.7-1.6-2.4
			c-0.7-0.7-1.5-1.2-2.4-1.6C237.3,125.5,236.3,125.3,235.3,125.3z"/>
		<path class="st0" d="M250.7,124.9c0-0.3,0.1-0.4,0.4-0.4h4.4c0.6,0,1.1,0.1,1.6,0.3c0.5,0.2,1,0.5,1.4,0.9s0.7,0.8,0.9,1.3
			s0.4,1.1,0.4,1.6s-0.1,1.1-0.4,1.6s-0.5,1-0.9,1.3c-0.4,0.4-0.8,0.7-1.4,0.9c-0.5,0.2-1.1,0.3-1.6,0.3h-4v7.7
			c0,0.3-0.1,0.4-0.4,0.4c-0.3,0-0.4-0.1-0.4-0.4V124.9z M251.5,125.3v6.8h4c0.5,0,0.9-0.1,1.4-0.3s0.8-0.4,1.1-0.7
			c0.3-0.3,0.6-0.7,0.7-1.1c0.2-0.4,0.3-0.8,0.3-1.3c0-0.5-0.1-0.9-0.3-1.3c-0.2-0.4-0.4-0.8-0.7-1.1c-0.3-0.3-0.7-0.5-1.1-0.7
			c-0.4-0.2-0.9-0.3-1.4-0.3H251.5z"/>
		<path class="st0" d="M275,124.5c1.1,0,2.2,0.2,3.2,0.6c1,0.4,1.9,1,2.6,1.8c0.8,0.8,1.3,1.6,1.8,2.6c0.4,1,0.6,2.1,0.6,3.2
			s-0.2,2.2-0.6,3.2c-0.4,1-1,1.9-1.8,2.6c-0.8,0.7-1.6,1.3-2.6,1.8c-1,0.4-2.1,0.6-3.2,0.6c-1.1,0-2.2-0.2-3.2-0.6
			c-1-0.4-1.9-1-2.6-1.8c-0.7-0.7-1.3-1.6-1.8-2.6c-0.4-1-0.6-2.1-0.6-3.2s0.2-2.2,0.6-3.2c0.4-1,1-1.9,1.8-2.6
			c0.7-0.8,1.6-1.3,2.6-1.8C272.8,124.7,273.9,124.5,275,124.5z M275,125.3c-1,0-2,0.2-2.9,0.6s-1.7,0.9-2.4,1.6
			c-0.7,0.7-1.2,1.5-1.6,2.4s-0.6,1.9-0.6,2.9c0,1,0.2,2,0.6,2.9s0.9,1.7,1.6,2.3c0.7,0.7,1.4,1.2,2.4,1.6s1.9,0.6,2.9,0.6
			c1,0,2-0.2,2.9-0.6c0.9-0.4,1.7-0.9,2.4-1.6c0.7-0.7,1.2-1.4,1.6-2.3s0.6-1.9,0.6-2.9c0-1-0.2-2-0.6-2.9s-0.9-1.7-1.6-2.4
			c-0.7-0.7-1.5-1.2-2.4-1.6C277,125.5,276,125.3,275,125.3z"/>
		<path class="st0" d="M290.4,124.9c0-0.1,0-0.2,0.1-0.3c0.1-0.1,0.2-0.1,0.3-0.1c0.1,0,0.2,0,0.3,0.1c0.1,0.1,0.1,0.2,0.1,0.3v15.3
			h7.2c0.3,0,0.4,0.1,0.4,0.4c0,0.1,0,0.2-0.1,0.3c-0.1,0.1-0.2,0.1-0.3,0.1h-7.7c-0.1,0-0.2,0-0.3-0.1c0-0.1-0.1-0.2-0.1-0.3V124.9
			z"/>
		<path class="st0" d="M305.9,124.9c0-0.3,0.1-0.4,0.4-0.4s0.4,0.1,0.4,0.4v15.7c0,0.3-0.1,0.4-0.4,0.4s-0.4-0.1-0.4-0.4V124.9z"/>
		<path class="st0" d="M323.9,124.4c0.3,0,0.4,0.1,0.4,0.4c0,0.3-0.1,0.4-0.4,0.4h-4.3v15.4c0,0.3-0.1,0.4-0.4,0.4s-0.4-0.1-0.4-0.4
			v-15.4h-4.3c-0.3,0-0.4-0.1-0.4-0.4c0-0.3,0.1-0.4,0.4-0.4H323.9z"/>
		<path class="st0" d="M342.2,140.4c0.1,0.1,0.1,0.2,0,0.3c0,0.1-0.1,0.2-0.2,0.2c-0.1,0.1-0.2,0.1-0.3,0c-0.1,0-0.2-0.1-0.2-0.2
			l-2.3-5.3h-8.3l-2.3,5.3c0,0.1-0.1,0.2-0.2,0.2s-0.2,0-0.3,0c-0.1-0.1-0.2-0.1-0.2-0.2c0-0.1,0-0.2,0-0.3l6.8-15.7
			c0.1-0.2,0.2-0.3,0.4-0.3c0.2,0,0.3,0.1,0.4,0.3L342.2,140.4z M331.3,134.6h7.6l-3.8-8.7L331.3,134.6z"/>
		<path class="st0" d="M349.6,124.9c0-0.2,0.1-0.3,0.3-0.4c0.1,0,0.2,0,0.3,0c0.1,0.1,0.2,0.1,0.2,0.2l10.2,14.6v-14.4
			c0-0.3,0.1-0.4,0.4-0.4c0.3,0,0.4,0.1,0.4,0.4v15.7c0,0.3-0.1,0.4-0.4,0.4c-0.1,0-0.3-0.1-0.4-0.2l-10.2-14.6v14.4
			c0,0.3-0.1,0.4-0.4,0.4c-0.3,0-0.4-0.1-0.4-0.4V124.9z"/>
		<path class="st0" d="M383.2,140.4c0.1,0.1,0.1,0.2,0,0.3c0,0.1-0.1,0.2-0.2,0.2c-0.1,0.1-0.2,0.1-0.3,0c-0.1,0-0.2-0.1-0.2-0.2
			l-2.3-5.3h-8.3l-2.3,5.3c0,0.1-0.1,0.2-0.2,0.2s-0.2,0-0.3,0c-0.1-0.1-0.2-0.1-0.2-0.2c0-0.1,0-0.2,0-0.3l6.8-15.7
			c0.1-0.2,0.2-0.3,0.4-0.3c0.2,0,0.3,0.1,0.4,0.3L383.2,140.4z M372.2,134.6h7.6l-3.8-8.7L372.2,134.6z"/>
		<path class="st0" d="M412.3,132.8c0,1.1-0.2,2.2-0.6,3.2s-1,1.9-1.8,2.6c-0.7,0.7-1.6,1.3-2.6,1.8c-1,0.4-2.1,0.6-3.2,0.6h-4.7
			c-0.1,0-0.2,0-0.3-0.1c-0.1-0.1-0.1-0.2-0.1-0.3v-15.7c0-0.1,0-0.2,0.1-0.3c0.1-0.1,0.2-0.1,0.3-0.1h4.7c1.1,0,2.2,0.2,3.2,0.6
			c1,0.4,1.9,1,2.6,1.8c0.7,0.7,1.3,1.6,1.8,2.6S412.3,131.6,412.3,132.8z M399.7,125.3v14.9h4.3c1,0,2-0.2,2.9-0.6s1.7-0.9,2.4-1.6
			c0.7-0.7,1.2-1.5,1.6-2.4s0.6-1.9,0.6-2.9c0-1.1-0.2-2-0.6-2.9c-0.4-0.9-0.9-1.7-1.6-2.4c-0.7-0.7-1.5-1.2-2.4-1.6
			s-1.9-0.6-2.9-0.6H399.7z"/>
		<path class="st0" d="M419.3,141c-0.3,0-0.4-0.1-0.4-0.4v-15.7c0-0.3,0.1-0.4,0.4-0.4h8.3c0.3,0,0.4,0.1,0.4,0.4
			c0,0.3-0.1,0.4-0.4,0.4h-7.9v6.9h5.1c0.3,0,0.4,0.1,0.4,0.4c0,0.3-0.1,0.4-0.4,0.4h-5.1v7.1h7.9c0.3,0,0.4,0.1,0.4,0.4
			c0,0.3-0.1,0.4-0.4,0.4H419.3z"/>
		<path class="st0" d="M454,136.1c0,0.7-0.1,1.3-0.4,1.9s-0.6,1.1-1.1,1.6s-1,0.8-1.6,1c-0.6,0.3-1.2,0.4-1.9,0.4h-4.9
			c-0.3,0-0.4-0.1-0.4-0.4v-15.7c0-0.3,0.1-0.4,0.4-0.4h4.4c0.6,0,1.1,0.1,1.6,0.3c0.5,0.2,1,0.4,1.4,0.7c0.4,0.3,0.7,0.7,0.9,1.2
			c0.2,0.5,0.4,1,0.4,1.6c0,0.8-0.2,1.4-0.6,2s-0.9,1-1.5,1.3c0.5,0.2,0.9,0.4,1.3,0.7c0.4,0.3,0.7,0.7,1,1.1
			c0.3,0.4,0.5,0.8,0.7,1.3C453.9,135.1,454,135.6,454,136.1z M444.6,125.3v5.9h4c0.5,0,0.9-0.1,1.4-0.2c0.4-0.1,0.8-0.3,1.1-0.6
			c0.3-0.3,0.6-0.6,0.7-0.9s0.3-0.8,0.3-1.3c0-0.5-0.1-0.9-0.3-1.3s-0.4-0.7-0.7-0.9c-0.3-0.2-0.7-0.4-1.1-0.5
			c-0.4-0.1-0.9-0.2-1.4-0.2H444.6z M444.6,132v8.2h4.5c0.6,0,1.1-0.1,1.6-0.3c0.5-0.2,0.9-0.5,1.3-0.9c0.4-0.4,0.7-0.8,0.9-1.3
			c0.2-0.5,0.3-1,0.3-1.6c0-0.5-0.1-1-0.3-1.5c-0.2-0.5-0.5-0.9-0.9-1.3c-0.4-0.4-0.8-0.7-1.3-0.9c-0.5-0.2-1-0.3-1.5-0.4H444.6z"/>
		<path class="st0" d="M473.9,140.4c0.1,0.1,0.1,0.2,0,0.3c0,0.1-0.1,0.2-0.2,0.2c-0.1,0.1-0.2,0.1-0.3,0c-0.1,0-0.2-0.1-0.2-0.2
			l-2.3-5.3h-8.3l-2.3,5.3c0,0.1-0.1,0.2-0.2,0.2s-0.2,0-0.3,0c-0.1-0.1-0.2-0.1-0.2-0.2c0-0.1,0-0.2,0-0.3l6.8-15.7
			c0.1-0.2,0.2-0.3,0.4-0.3c0.2,0,0.3,0.1,0.4,0.3L473.9,140.4z M462.9,134.6h7.6l-3.8-8.7L462.9,134.6z"/>
		<path class="st0" d="M481.2,124.9c0-0.3,0.1-0.4,0.4-0.4h4.4c0.6,0,1.1,0.1,1.6,0.3c0.5,0.2,1,0.5,1.4,0.9
			c0.4,0.4,0.7,0.8,0.9,1.3s0.4,1.1,0.4,1.6s-0.1,1.1-0.4,1.6s-0.5,1-0.9,1.3c-0.4,0.4-0.8,0.7-1.4,0.9c-0.5,0.2-1.1,0.3-1.6,0.3
			l4.7,7.5c0.2,0.2,0.1,0.4-0.1,0.6c-0.1,0.1-0.2,0.1-0.3,0.1c-0.1,0-0.2-0.1-0.3-0.2l-5-7.9H482v7.7c0,0.3-0.1,0.4-0.4,0.4
			s-0.4-0.1-0.4-0.4V124.9z M482,125.3v6.8h4.1c0.5,0,0.9-0.1,1.4-0.3c0.4-0.2,0.8-0.4,1.1-0.7c0.3-0.3,0.5-0.7,0.7-1.1
			c0.2-0.4,0.3-0.8,0.3-1.3c0-0.5-0.1-0.9-0.3-1.3c-0.2-0.4-0.4-0.8-0.7-1.1c-0.3-0.3-0.7-0.5-1.1-0.7c-0.4-0.2-0.9-0.3-1.4-0.3H482
			z"/>
		<path class="st0" d="M498.1,124.9c0-0.3,0.1-0.4,0.4-0.4h4.4c0.6,0,1.1,0.1,1.6,0.3c0.5,0.2,1,0.5,1.4,0.9
			c0.4,0.4,0.7,0.8,0.9,1.3s0.4,1.1,0.4,1.6s-0.1,1.1-0.4,1.6s-0.5,1-0.9,1.3c-0.4,0.4-0.8,0.7-1.4,0.9c-0.5,0.2-1.1,0.3-1.6,0.3
			l4.7,7.5c0.2,0.2,0.1,0.4-0.1,0.6c-0.1,0.1-0.2,0.1-0.3,0.1c-0.1,0-0.2-0.1-0.3-0.2l-5-7.9H499v7.7c0,0.3-0.1,0.4-0.4,0.4
			s-0.4-0.1-0.4-0.4V124.9z M499,125.3v6.8h4.1c0.5,0,0.9-0.1,1.4-0.3c0.4-0.2,0.8-0.4,1.1-0.7c0.3-0.3,0.5-0.7,0.7-1.1
			c0.2-0.4,0.3-0.8,0.3-1.3c0-0.5-0.1-0.9-0.3-1.3c-0.2-0.4-0.4-0.8-0.7-1.1c-0.3-0.3-0.7-0.5-1.1-0.7c-0.4-0.2-0.9-0.3-1.4-0.3H499
			z"/>
		<path class="st0" d="M529.3,140.4c0.1,0.1,0.1,0.2,0,0.3c0,0.1-0.1,0.2-0.2,0.2c-0.1,0.1-0.2,0.1-0.3,0c-0.1,0-0.2-0.1-0.2-0.2
			l-2.3-5.3h-8.3l-2.3,5.3c0,0.1-0.1,0.2-0.2,0.2s-0.2,0-0.3,0c-0.1-0.1-0.2-0.1-0.2-0.2c0-0.1,0-0.2,0-0.3l6.8-15.7
			c0.1-0.2,0.2-0.3,0.4-0.3c0.2,0,0.3,0.1,0.4,0.3L529.3,140.4z M518.3,134.6h7.6l-3.8-8.7L518.3,134.6z"/>
		<path class="st0" d="M536.7,124.9c0-0.2,0.1-0.3,0.3-0.4c0.1,0,0.2,0,0.3,0c0.1,0.1,0.2,0.1,0.2,0.2l10.2,14.6v-14.4
			c0-0.3,0.1-0.4,0.4-0.4c0.3,0,0.4,0.1,0.4,0.4v15.7c0,0.3-0.1,0.4-0.4,0.4c-0.1,0-0.3-0.1-0.4-0.2l-10.2-14.6v14.4
			c0,0.3-0.1,0.4-0.4,0.4c-0.3,0-0.4-0.1-0.4-0.4V124.9z"/>
		<path class="st0" d="M564.1,124.5c1.1,0,2.2,0.2,3.2,0.6c1,0.4,1.9,1,2.6,1.8c0.8,0.8,1.3,1.6,1.8,2.6c0.4,1,0.6,2.1,0.6,3.2
			c0,0.9-0.1,1.7-0.4,2.5c-0.3,0.8-0.6,1.5-1,2.2s-1,1.2-1.6,1.8s-1.3,0.9-2.1,1.2l-0.5,0.2c0.1,0.3,0.4,0.6,0.7,0.9
			c0.3,0.2,0.7,0.3,1.1,0.4h0.1c0.3,0,0.4,0.1,0.4,0.4c0,0.3-0.1,0.4-0.4,0.4h-0.1c-0.6,0-1.1-0.2-1.6-0.5c-0.5-0.3-0.8-0.8-1-1.3
			c-0.6,0.1-1.3,0.2-1.9,0.2c-1.2,0-2.2-0.2-3.2-0.6c-0.7-0.3-1.4-0.7-2-1.2s-1.1-1.1-1.6-1.8s-0.8-1.4-1-2.2
			c-0.3-0.8-0.4-1.6-0.4-2.5c0-1.1,0.2-2.2,0.6-3.2c0.4-1,1-1.9,1.8-2.6c0.7-0.8,1.6-1.3,2.6-1.8C561.9,124.7,563,124.5,564.1,124.5
			z M561.3,138.2c0-0.4,0.1-0.8,0.2-1.1c0.1-0.3,0.4-0.6,0.6-0.9s0.6-0.5,0.9-0.6c0.3-0.1,0.7-0.2,1.1-0.2s0.8,0.1,1.1,0.2
			c0.3,0.1,0.6,0.4,0.9,0.6s0.5,0.6,0.6,0.9c0.1,0.3,0.2,0.7,0.2,1.1c0,0.3,0,0.6-0.1,0.9c-0.1,0.3-0.2,0.5-0.3,0.7l0.4-0.2
			c0.7-0.3,1.3-0.6,1.9-1.1s1-1,1.5-1.6c0.4-0.6,0.7-1.2,0.9-2c0.2-0.7,0.3-1.4,0.3-2.2c0-1-0.2-2-0.6-2.9s-0.9-1.7-1.6-2.4
			c-0.7-0.7-1.5-1.2-2.4-1.6s-1.9-0.6-2.9-0.6c-1,0-2,0.2-2.9,0.6s-1.7,0.9-2.4,1.6c-0.7,0.7-1.2,1.5-1.6,2.4s-0.6,1.9-0.6,2.9
			c0,0.8,0.1,1.5,0.3,2.2s0.5,1.4,0.9,2c0.4,0.6,0.9,1.1,1.4,1.6s1.2,0.8,1.9,1.1l0.5,0.2C561.4,139.3,561.3,138.8,561.3,138.2z
			 M562.1,138.2c0,0.6,0.2,1,0.6,1.4c0.4,0.4,0.9,0.6,1.4,0.6c0.6,0,1.1-0.2,1.4-0.6s0.6-0.9,0.6-1.4c0-0.6-0.2-1-0.6-1.4
			c-0.4-0.4-0.9-0.6-1.4-0.6c-0.6,0-1,0.2-1.4,0.6S562.1,137.6,562.1,138.2z"/>
		<path class="st0" d="M579.8,124.9c0-0.3,0.1-0.4,0.4-0.4s0.4,0.1,0.4,0.4v10.5c0,0.7,0.1,1.3,0.4,1.9s0.6,1.1,1,1.5
			c0.4,0.4,0.9,0.8,1.5,1.1s1.2,0.4,1.9,0.4c0.7,0,1.3-0.1,1.9-0.4c0.6-0.2,1.1-0.6,1.5-1c0.4-0.4,0.8-1,1.1-1.5s0.4-1.2,0.4-1.9
			v-10.5c0-0.3,0.1-0.4,0.4-0.4c0.3,0,0.4,0.1,0.4,0.4v10.5c0,0.8-0.2,1.5-0.5,2.2c-0.3,0.7-0.7,1.3-1.2,1.8
			c-0.5,0.5-1.1,0.9-1.8,1.2c-0.7,0.3-1.4,0.4-2.2,0.4s-1.5-0.1-2.2-0.4c-0.7-0.3-1.3-0.7-1.8-1.2c-0.5-0.5-0.9-1.1-1.2-1.8
			c-0.3-0.7-0.4-1.4-0.4-2.2V124.9z"/>
		<path class="st0" d="M598.8,124.9c0-0.3,0.1-0.4,0.4-0.4s0.4,0.1,0.4,0.4v15.7c0,0.3-0.1,0.4-0.4,0.4s-0.4-0.1-0.4-0.4V124.9z"/>
		<path class="st0" d="M607,124.9c0-0.1,0-0.2,0.1-0.3s0.2-0.1,0.3-0.1c0.1,0,0.2,0,0.3,0.1c0.1,0.1,0.1,0.2,0.1,0.3v15.3h7.2
			c0.3,0,0.4,0.1,0.4,0.4c0,0.1,0,0.2-0.1,0.3c-0.1,0.1-0.2,0.1-0.3,0.1h-7.7c-0.1,0-0.2,0-0.3-0.1c0-0.1-0.1-0.2-0.1-0.3V124.9z"/>
		<path class="st0" d="M622.1,124.9c0-0.1,0-0.2,0.1-0.3s0.2-0.1,0.3-0.1c0.1,0,0.2,0,0.3,0.1c0.1,0.1,0.1,0.2,0.1,0.3v15.3h7.2
			c0.3,0,0.4,0.1,0.4,0.4c0,0.1,0,0.2-0.1,0.3c-0.1,0.1-0.2,0.1-0.3,0.1h-7.7c-0.1,0-0.2,0-0.3-0.1c0-0.1-0.1-0.2-0.1-0.3V124.9z"/>
		<path class="st0" d="M651.8,140.4c0.1,0.1,0.1,0.2,0,0.3c0,0.1-0.1,0.2-0.2,0.2c-0.1,0.1-0.2,0.1-0.3,0c-0.1,0-0.2-0.1-0.2-0.2
			l-2.3-5.3h-8.3l-2.3,5.3c0,0.1-0.1,0.2-0.2,0.2s-0.2,0-0.3,0c-0.1-0.1-0.2-0.1-0.2-0.2c0-0.1,0-0.2,0-0.3l6.8-15.7
			c0.1-0.2,0.2-0.3,0.4-0.3c0.2,0,0.3,0.1,0.4,0.3L651.8,140.4z M640.8,134.6h7.6l-3.8-8.7L640.8,134.6z"/>
	</g>
	<g>
		<path class="st0" d="M89.3,88c-1.2,0.5-2.3,0.6-3.4,0.2c-1-0.4-1.8-1.1-2.3-2.3c-0.4-1-0.4-2.1-0.1-3.1c0.3-1.1,1.1-1.8,2.3-2.3
			c0.2-0.1,0.5-0.2,0.7-0.2c0.2,0,0.4,0,0.7,0c-2.3-12-5.8-30.1-10.5-54.2c0,0-0.1,0-0.1,0h-0.1C71.8,40,64.8,60.9,55.4,88.7
			c-0.1,0.3-0.3,0.6-0.5,0.7c-0.3,0.1-0.6,0.2-0.9,0.2c-0.1,0-0.2,0-0.4,0c-0.3,0-0.6,0-0.8-0.1c-0.3-0.1-0.5-0.3-0.6-0.7
			c-4.7-13.9-11.8-34.7-21.1-62.6H31c0,0-0.1,0-0.1,0c-2.6,13.6-6.6,34-11.8,61.3c0,0.3-0.2,0.6-0.4,0.8c-0.2,0.2-0.5,0.4-0.8,0.4
			c-0.6,0-1.4,0-2.5,0c-0.5,0-0.8-0.1-1-0.3c-0.1-0.1-0.2-0.4-0.2-0.7c0-0.1,0-0.3,0.1-0.4c3.3-16,8.2-40.1,14.8-72.1
			c0.1-0.2,0.2-0.4,0.4-0.5c0.2-0.1,0.4-0.2,0.6-0.2c0.3,0,0.7,0,1.2,0c0.3,0,0.5,0,0.7,0.1c0.1,0.1,0.3,0.3,0.4,0.6
			c4.8,14.3,12,35.7,21.6,64.2h0.1c0,0,0.1,0,0.1,0c4.8-14.3,12-35.7,21.6-64.2c0.1-0.2,0.2-0.4,0.4-0.6c0.2-0.1,0.4-0.1,0.7-0.1
			c0.2,0,0.6,0,1.2,0c0.2,0,0.4,0.1,0.6,0.2c0.2,0.1,0.3,0.3,0.4,0.5c3,14.4,7.4,36.1,13.3,65c0,0,0.1,0,0.1,0.1c0,0,0,0.1,0,0.1
			c0,0,0,0.1,0.1,0.2c0.1,0.8,0.2,1.6,0.2,2.3c0,1.1-0.2,2-0.5,2.8C91.2,86.8,90.4,87.6,89.3,88z"/>
		<path class="st0" d="M160.7,88.5c-0.6,0-1.6,0-2.8,0c-0.3,0-0.6-0.1-0.9-0.3c-0.3-0.2-0.5-0.4-0.6-0.6c-1.9-4.3-4.7-10.7-8.4-19.2
			c-6.3,0-15.8,0-28.4,0c-0.1,0-0.3,0-0.4,0.1c-0.1,0-0.3,0.1-0.4,0.1c0.1,0.3,0.2,0.6,0.3,0.9c0.1,0.2,0.1,0.5,0.1,0.9
			c-0.1,1.4-0.6,2.4-1.5,3c-0.9,0.7-1.9,1-3,0.9c-1.2,0-2.2-0.5-2.9-1.4c-0.7-0.8-1-1.9-0.9-3.2c0-1.5,0.8-2.8,2.4-3.9
			c1.6-1.1,4.1-1.6,7.4-1.5c5.6,0,14.1,0,25.3,0c-4-9.4-10-23.4-17.9-42.2c0,0-0.1,0-0.2,0c-6.3,14.6-15.8,36.4-28.4,65.5
			c-0.1,0.2-0.3,0.4-0.5,0.6c-0.2,0.2-0.6,0.3-0.9,0.3c-0.6,0-1.6,0-2.9,0c-0.4,0-0.6-0.1-0.7-0.3c-0.1-0.1-0.1-0.2-0.1-0.4
			s0-0.3,0.1-0.6c7.1-16.2,17.9-40.4,32.2-72.7c0.1-0.2,0.3-0.4,0.5-0.5c0.2-0.1,0.5-0.2,0.7-0.2c0,0,0.1,0,0.3,0
			c0.3,0,0.6,0,0.8,0.1c0.2,0.1,0.4,0.3,0.6,0.7c7.1,16.2,17.7,40.4,31.9,72.7c0,0.2,0.1,0.4,0.1,0.5s0,0.3-0.1,0.4
			C161.6,88.4,161.2,88.5,160.7,88.5z"/>
		<path class="st0" d="M217.8,86.7c0.2,0.4,0.3,0.9,0.2,1.2c-0.1,0.4-0.4,0.7-0.9,0.7c-0.7,0-1.8,0-3.2,0c-0.4,0-0.7-0.1-0.9-0.2
			c-0.2-0.2-0.4-0.4-0.6-0.7c-3.4-6.1-8.4-15.2-15.1-27.4c-0.7,0-1.3,0.1-1.9,0.1c-0.6,0-1.3,0-2,0c-1.7,0-4.4,0-8,0
			c0.1,0.3,0.2,0.6,0.3,0.8c0.1,0.2,0.1,0.5,0.1,0.8c0,1.4-0.5,2.4-1.4,3.1c-0.9,0.7-1.9,1-3,0.9c-1.3,0-2.2-0.5-2.9-1.3
			c-0.7-0.9-1-2-0.9-3.3c0.1-1.4,0.8-2.6,2.1-3.6c1.4-1,3.4-1.6,6.3-1.7c0.1,0,0.2,0,0.4,0h0.1h0.1c2.2,0,5.5,0,9.8,0
			c1.8,0,3.5-0.2,5.1-0.7c1.6-0.5,3.2-1.1,4.6-2c2.6-1.6,4.8-3.7,6.4-6.4c1.6-2.7,2.4-5.8,2.4-9.1c0-3.3-0.8-6.2-2.4-8.8
			c-1.7-2.6-3.8-4.7-6.4-6.2c-1.4-0.8-2.9-1.5-4.6-1.9c-1.7-0.5-3.4-0.7-5.2-0.7c-4.9,0-12.2,0-21.9,0c0,14.9-0.1,37.2-0.1,67
			c0,0.4-0.1,0.7-0.4,0.9c-0.3,0.3-0.7,0.4-1.2,0.4c-0.4,0-1,0-1.8,0c-0.4,0-0.7-0.1-1-0.4c-0.2-0.2-0.4-0.6-0.4-0.9
			c0-5.9,0-14.7,0-26.4c0-9.8,0-24.4,0-44c0-0.3,0.1-0.7,0.4-0.9c0.2-0.3,0.6-0.4,1-0.4c5.7,0,14.3,0,25.9,0c2.2,0,4.4,0.3,6.5,0.9
			c2.1,0.6,4,1.4,5.8,2.4c3.4,1.9,6,4.6,8,7.9c2,3.3,3.1,7,3.1,11.2c0,5.2-1.6,9.8-4.9,13.8c-3.3,3.9-7.4,6.6-12.3,8
			C205.9,65.6,211,74.6,217.8,86.7z"/>
		<path class="st0" d="M228.8,16.8c0-0.4,0.1-0.7,0.4-0.9c0.3-0.3,0.6-0.4,1-0.4c0.5,0,1.2,0,2.3,0c0.4,0,0.7,0.1,0.9,0.4
			c0.3,0.2,0.4,0.6,0.4,0.9c0,15.6,0,39.1,0,70.4c0,0.4-0.1,0.7-0.4,0.9c-0.3,0.2-0.7,0.4-1,0.4c-0.5,0-1.2,0-2.2,0
			c-0.4,0-0.7-0.1-1-0.4c-0.2-0.3-0.4-0.6-0.4-0.9c0-5.9,0-14.7,0-26.4C228.8,51,228.8,36.4,228.8,16.8z"/>
		<path class="st0" d="M306.7,88.5c-0.6,0-1.6,0-2.8,0c-0.3,0-0.6-0.1-0.9-0.3c-0.3-0.2-0.5-0.4-0.6-0.6c-1.9-4.3-4.7-10.7-8.4-19.2
			c-6.3,0-15.8,0-28.4,0c-0.1,0-0.3,0-0.4,0.1c-0.1,0-0.3,0.1-0.4,0.1c0.1,0.3,0.2,0.6,0.3,0.9c0.1,0.2,0.1,0.5,0.1,0.9
			c-0.1,1.4-0.6,2.4-1.5,3c-0.9,0.7-1.9,1-3,0.9c-1.2,0-2.2-0.5-2.9-1.4c-0.7-0.8-1-1.9-0.9-3.2c0-1.5,0.8-2.8,2.4-3.9
			c1.6-1.1,4.1-1.6,7.4-1.5c5.6,0,14.1,0,25.3,0c-4-9.4-10-23.4-17.9-42.2c0,0-0.1,0-0.2,0c-6.3,14.6-15.8,36.4-28.4,65.5
			c-0.1,0.2-0.3,0.4-0.5,0.6c-0.2,0.2-0.6,0.3-0.9,0.3c-0.6,0-1.6,0-2.9,0c-0.4,0-0.6-0.1-0.7-0.3c-0.1-0.1-0.1-0.2-0.1-0.4
			s0-0.3,0.1-0.6c7.1-16.2,17.9-40.4,32.2-72.7c0.1-0.2,0.3-0.4,0.5-0.5c0.2-0.1,0.5-0.2,0.7-0.2c0,0,0.1,0,0.3,0
			c0.3,0,0.6,0,0.8,0.1c0.2,0.1,0.4,0.3,0.6,0.7c7.1,16.2,17.7,40.4,31.9,72.7c0,0.2,0.1,0.4,0.1,0.5s0,0.3-0.1,0.4
			C307.6,88.4,307.3,88.5,306.7,88.5z"/>
	</g>
	<g>
		<path class="st0" d="M399.8,86.5c0.3,0.5,0.4,0.9,0.2,1.4c-0.1,0.5-0.5,0.7-1.1,0.7c-0.8,0-2,0-3.6,0c-0.4,0-0.8-0.1-1.1-0.2
			c-0.2-0.2-0.4-0.5-0.6-0.8c-3.7-6.7-9.3-16.9-16.8-30.4c-0.8,0.1-1.5,0.1-2.1,0.1c-0.7,0-1.4,0-2.2,0c-1.9,0-4.9,0-8.9,0
			c0.2,0.3,0.3,0.6,0.3,0.9c0.1,0.3,0.1,0.6,0.1,0.9c-0.1,1.5-0.6,2.6-1.5,3.4c-1,0.8-2.1,1.1-3.3,1c-1.4-0.1-2.5-0.5-3.2-1.5
			c-0.8-1-1.1-2.2-1.1-3.6c0.1-1.5,0.9-2.9,2.3-4c1.5-1.1,3.8-1.8,7-1.9c0.1,0,0.3,0,0.5,0h0.1h0.1c2.4,0,6.1,0,10.9,0
			c2,0,3.9-0.2,5.7-0.7c1.8-0.5,3.5-1.3,5.1-2.2c2.9-1.7,5.3-4.1,7.1-7.1c1.8-3,2.7-6.4,2.7-10.1c0-3.6-0.9-6.9-2.7-9.8
			c-1.8-2.9-4.2-5.2-7.1-6.9c-1.6-0.9-3.3-1.6-5.1-2.1c-1.8-0.5-3.8-0.8-5.7-0.8c-5.4,0-13.5,0-24.4,0c-0.1,16.6-0.1,41.4-0.2,74.5
			c0,0.4-0.2,0.8-0.5,1.1c-0.3,0.3-0.8,0.5-1.4,0.5c-0.4,0-1.1,0-2,0c-0.4,0-0.8-0.2-1.1-0.5c-0.3-0.3-0.4-0.6-0.4-1.1
			c0-6.5,0-16.3,0-29.4c0-10.8,0-27.1,0-48.9c0-0.4,0.1-0.7,0.4-1.1c0.3-0.3,0.6-0.5,1.1-0.5c6.4,0,15.9,0,28.7,0
			c2.5,0,4.9,0.3,7.2,1c2.3,0.6,4.5,1.5,6.4,2.7c3.7,2.2,6.7,5.1,8.9,8.8c2.3,3.7,3.4,7.8,3.4,12.5c0,5.8-1.8,10.9-5.4,15.3
			c-3.6,4.4-8.2,7.3-13.7,8.9C386.6,63,392.2,73.1,399.8,86.5z"/>
		<path class="st0" d="M417.6,12.2c0,7.1,0,17.8,0,32c8.1,0,20.4,0,36.8,0c0.4,0,0.7,0.2,1.1,0.5c0.3,0.3,0.4,0.7,0.4,1.1
			c0,0.4,0,1.1,0,1.9c0,0.4-0.1,0.8-0.4,1.1c-0.3,0.3-0.7,0.4-1.1,0.4c-8.2,0-20.5,0-36.8,0c0,7.7,0,19.1,0,34.4
			c7.8,0,19.6,0,35.3,0c-0.2-0.3-0.3-0.6-0.3-0.9c-0.1-0.3-0.2-0.6-0.2-0.9c0.1-1.5,0.6-2.6,1.6-3.4c1-0.8,2.1-1.1,3.3-1.1
			c1.4,0.1,2.5,0.6,3.2,1.5c0.7,0.9,1.1,1.9,1.1,3.2c0,0.1,0,0.2-0.1,0.4c-0.1,1.5-0.8,2.9-2.3,4c-1.5,1.1-3.8,1.8-7,1.9
			c-8.6,0-21.5,0-38.7,0c-0.4,0-0.8-0.2-1.1-0.5c-0.3-0.3-0.4-0.6-0.4-1.1c0-6.5,0-16.3,0-29.3c0-10.9,0-27.2,0-49
			c0-0.4,0.1-0.7,0.4-1.1c0.3-0.3,0.7-0.4,1.1-0.4c10.3,0,25.8,0,46.5,0c0.4,0,0.7,0.1,1.1,0.4c0.3,0.3,0.5,0.7,0.5,1.1
			c0,0.4,0,1.1,0,2c0,0.4-0.2,0.7-0.5,1.1c-0.3,0.3-0.7,0.4-1.1,0.4C450.6,12.2,436.5,12.2,417.6,12.2z"/>
		<path class="st0" d="M471.5,8.8c0-0.4,0.1-0.8,0.4-1.1c0.3-0.3,0.7-0.5,1.1-0.5c0.5,0,1.4,0,2.5,0c0.4,0,0.8,0.2,1.1,0.5
			c0.3,0.3,0.5,0.6,0.5,1.1c0,17.4,0,43.5,0,78.3c0,0.4-0.2,0.8-0.5,1.1c-0.4,0.3-0.8,0.4-1.1,0.4c-0.5,0-1.3,0-2.4,0
			c-0.4,0-0.8-0.1-1.1-0.4c-0.3-0.3-0.4-0.7-0.4-1.1c0-6.5,0-16.3,0-29.4C471.5,46.9,471.5,30.6,471.5,8.8z"/>
		<path class="st0" d="M555.2,88.3c0,0.5-0.2,0.9-0.6,1.1c-0.4,0.2-0.8,0.3-1.3,0.3c-0.3,0-0.8,0-1.5,0l-0.4-0.4
			c-0.2-0.2-0.9-1.1-2.1-2.6c-0.5-0.6-1.1-1.4-1.9-2.3c-0.8-0.9-1.6-2-2.7-3.4c-1.4-1.8-3.2-4.1-5.3-6.8c-2.1-2.7-4.5-5.9-7.4-9.7
			c-4.1-5.4-9.1-12-15.1-19.8c-5.9-7.8-13-17.2-21.3-28.2c-0.1,0-0.1,0-0.2,0c0,15.7,0,39.2,0,70.6c0,0.4-0.1,0.8-0.4,1.1
			c-0.3,0.3-0.7,0.5-1.1,0.5c-0.5,0-1.2,0-2.2,0c-0.4,0-0.8-0.2-1.1-0.5c-0.3-0.3-0.4-0.6-0.4-1.1c0-6.6,0-16.5,0-29.8
			c0-11,0-27.5,0-49.6c0-0.5,0.2-0.9,0.5-1.1c0.4-0.3,0.8-0.4,1.2-0.4c0.5,0,1.2,0,2,0c12.4,16.1,30.9,40.3,55.7,72.6h0.2
			c0-13.9,0-34.7,0-62.5c-0.2,0.1-0.4,0.1-0.6,0.1c-0.2,0.1-0.4,0.1-0.6,0c-1.5-0.2-2.6-0.8-3.3-1.8c-0.6-1-0.9-2.2-0.7-3.4
			c0.2-1.3,0.7-2.4,1.7-3.1c1-0.7,2.2-1,3.6-0.8c1.5,0.2,2.8,1,3.8,2.5c1.1,1.5,1.6,3.8,1.5,6.7C555.2,32.5,555.2,56.4,555.2,88.3z"
			/>
		<path class="st0" d="M636.2,88.6c-0.7,0-1.7,0-3.1,0c-0.4,0-0.7-0.1-1-0.3c-0.3-0.2-0.5-0.4-0.6-0.6c-2.1-4.7-5.2-11.9-9.4-21.4
			c-7,0-17.5,0-31.6,0c-0.2,0-0.3,0-0.4,0.1c-0.2,0.1-0.3,0.1-0.4,0.1c0.2,0.3,0.3,0.6,0.3,1c0.1,0.3,0.2,0.6,0.2,1
			c-0.1,1.5-0.6,2.6-1.6,3.3c-1,0.8-2.1,1.1-3.3,1.1c-1.3-0.1-2.4-0.6-3.2-1.5c-0.8-0.9-1.1-2.1-1-3.6c0.1-1.7,0.9-3.1,2.7-4.3
			c1.8-1.2,4.5-1.8,8.3-1.6c6.3,0,15.6,0,28.2,0c-4.4-10.4-11.1-26-19.9-46.9c-0.1,0-0.1,0-0.2,0c-7,16.2-17.5,40.4-31.6,72.8
			c-0.1,0.2-0.3,0.4-0.6,0.6c-0.3,0.2-0.6,0.3-1.1,0.3c-0.7,0-1.8,0-3.2,0c-0.4,0-0.7-0.1-0.8-0.3c-0.1-0.1-0.2-0.2-0.2-0.4
			s0.1-0.4,0.2-0.6c7.9-18,19.9-44.9,35.8-80.8c0.1-0.3,0.3-0.5,0.6-0.6c0.3-0.2,0.5-0.2,0.8-0.2c0.1,0,0.2,0,0.3,0
			c0.3,0,0.6,0,0.9,0.1c0.3,0.1,0.5,0.4,0.6,0.7c7.9,18,19.7,44.9,35.4,80.8c0.1,0.2,0.1,0.4,0.1,0.6s0,0.3-0.1,0.4
			C637.2,88.4,636.8,88.6,636.2,88.6z"/>
	</g>
</g>
</svg>
