<?xml version="1.0" encoding="utf-8"?>
<!-- Generator: Adobe Illustrator 19.2.0, SVG Export Plug-In . SVG Version: 6.00 Build 0)  -->
<svg version="1.1" id="Layer_1" xmlns="http://www.w3.org/2000/svg" xmlns:xlink="http://www.w3.org/1999/xlink" x="0px" y="0px"
	 viewBox="0 0 652.8 151.2" style="enable-background:new 0 0 652.8 151.2;" xml:space="preserve">
<style type="text/css">
	.st0{fill:#231F20;}
</style>
<g>
	<g>
		<path class="st0" d="M26.6,116.8c-0.9,0-1.9,0.2-2.7,0.6c-0.9,0.4-1.6,0.9-2.3,1.5c-0.7,0.7-1.1,1.4-1.5,2.3
			c-0.4,0.9-0.6,1.8-0.6,2.7c0,0.9,0.2,1.9,0.6,2.7c0.4,0.9,0.9,1.6,1.5,2.2c0.7,0.7,1.3,1.1,2.3,1.5s1.8,0.6,2.7,0.6
			c1,0,2.1-0.2,3.1-0.7c0.9-0.5,1.8-1.1,2.5-2c0.1-0.1,0.2-0.2,0.3-0.2c0.3,0,0.4,0.1,0.4,0.4c0,0.1,0,0.2-0.1,0.3
			c-0.7,0.9-1.6,1.6-2.6,2.2c-1,0.6-2.3,0.8-3.4,0.8c-1,0-2.1-0.2-3-0.6c-0.9-0.4-1.8-0.9-2.5-1.7c-0.7-0.7-1.2-1.5-1.7-2.5
			c-0.4-0.9-0.6-2-0.6-3c0-0.8,0.1-1.6,0.4-2.4c0.3-0.8,0.6-1.4,0.9-2.1s0.9-1.1,1.5-1.7c0.6-0.5,1.2-0.9,1.9-1.1
			c0.5-0.2,0.9-0.4,1.4-0.5c0.5-0.1,1-0.2,1.5-0.2c1,0,2.1,0.2,3,0.6c0.9,0.4,1.8,0.9,2.6,1.7c0.1,0.1,0.2,0.2,0.2,0.3
			c0,0.1,0,0.1,0,0.2c0,0.2-0.1,0.4-0.4,0.4c-0.1,0-0.1,0-0.2,0s-0.1-0.1-0.3-0.2c-0.7-0.7-1.4-1.1-2.3-1.5
			C28.4,116.9,27.6,116.8,26.6,116.8z"/>
		<path class="st0" d="M50.6,131c0.1,0.1,0.1,0.2,0,0.3c0,0.1-0.1,0.2-0.2,0.2c-0.1,0.1-0.2,0.1-0.3,0c-0.1,0-0.2-0.1-0.2-0.2
			l-2.2-5h-7.8l-2.2,5c0,0.1-0.1,0.2-0.2,0.2s-0.2,0-0.3,0c-0.1-0.1-0.2-0.1-0.2-0.2c0-0.1,0-0.2,0-0.3l6.4-14.8
			c0.1-0.2,0.2-0.3,0.4-0.3s0.3,0.1,0.4,0.3L50.6,131z M40.3,125.5h7.2l-3.6-8.2L40.3,125.5z"/>
		<path class="st0" d="M62.8,115.9c0.3,0,0.4,0.1,0.4,0.4c0,0.3-0.1,0.4-0.4,0.4h-4.1v14.6c0,0.3-0.1,0.4-0.4,0.4s-0.4-0.1-0.4-0.4
			v-14.6h-4.1c-0.3,0-0.4-0.1-0.4-0.4c0-0.3,0.1-0.4,0.4-0.4H62.8z"/>
		<path class="st0" d="M70.1,131.6c-0.3,0-0.4-0.1-0.4-0.4v-14.8c0-0.3,0.1-0.4,0.4-0.4h7.8c0.3,0,0.4,0.1,0.4,0.4
			c0,0.3-0.1,0.4-0.4,0.4h-7.5v6.5h4.8c0.3,0,0.4,0.1,0.4,0.4c0,0.3-0.1,0.4-0.4,0.4h-4.8v6.7h7.5c0.3,0,0.4,0.1,0.4,0.4
			s-0.1,0.4-0.4,0.4L70.1,131.6L70.1,131.6z"/>
		<path class="st0" d="M97.3,123.8c0,1-0.2,2.1-0.6,3c-0.4,0.9-0.9,1.8-1.7,2.5c-0.7,0.7-1.5,1.2-2.5,1.7c-0.9,0.4-2,0.6-3,0.6h-4.4
			c-0.1,0-0.2,0-0.3-0.1c-0.1-0.1-0.1-0.2-0.1-0.3v-14.8c0-0.1,0-0.2,0.1-0.3c0.1-0.1,0.2-0.1,0.3-0.1h4.4c1,0,2.1,0.2,3,0.6
			c0.9,0.4,1.8,0.9,2.5,1.7c0.7,0.7,1.2,1.5,1.7,2.5C97.1,121.7,97.3,122.7,97.3,123.8z M85.4,116.8v14.1h4.1c0.9,0,1.9-0.2,2.7-0.6
			c0.9-0.4,1.6-0.9,2.3-1.5c0.7-0.7,1.1-1.4,1.5-2.3c0.4-0.9,0.6-1.8,0.6-2.7c0-1-0.2-1.9-0.6-2.7c-0.4-0.9-0.9-1.6-1.5-2.3
			c-0.7-0.7-1.4-1.1-2.3-1.5c-0.9-0.4-1.8-0.6-2.7-0.6L85.4,116.8L85.4,116.8z"/>
		<path class="st0" d="M104.5,116.4c0-0.3,0.1-0.4,0.4-0.4h4.2c0.6,0,1,0.1,1.5,0.3c0.5,0.2,0.9,0.5,1.3,0.9
			c0.4,0.4,0.7,0.8,0.9,1.2c0.2,0.5,0.4,1,0.4,1.5s-0.1,1-0.4,1.5c-0.3,0.5-0.5,0.9-0.9,1.2c-0.4,0.4-0.8,0.7-1.3,0.9
			c-0.5,0.2-1,0.3-1.5,0.3l4.4,7.1c0.2,0.2,0.1,0.4-0.1,0.6c-0.1,0.1-0.2,0.1-0.3,0.1c-0.1,0-0.2-0.1-0.3-0.2l-4.7-7.5h-2.9v7.3
			c0,0.3-0.1,0.4-0.4,0.4c-0.3,0-0.4-0.1-0.4-0.4L104.5,116.4L104.5,116.4z M105.2,116.8v6.4h3.9c0.5,0,0.9-0.1,1.3-0.3
			c0.5-0.2,0.8-0.4,1-0.7c0.3-0.3,0.5-0.7,0.7-1c0.2-0.4,0.3-0.8,0.3-1.2s-0.1-0.9-0.3-1.2s-0.4-0.8-0.7-1c-0.3-0.3-0.7-0.5-1-0.7
			c-0.4-0.2-0.9-0.3-1.3-0.3C109.1,116.8,105.2,116.8,105.2,116.8z"/>
		<path class="st0" d="M133.9,131c0.1,0.1,0.1,0.2,0,0.3c0,0.1-0.1,0.2-0.2,0.2c-0.1,0.1-0.2,0.1-0.3,0c-0.1,0-0.2-0.1-0.2-0.2
			l-2.2-5h-7.8l-2.2,5c0,0.1-0.1,0.2-0.2,0.2s-0.2,0-0.3,0c-0.1-0.1-0.2-0.1-0.2-0.2c0-0.1,0-0.2,0-0.3l6.4-14.8
			c0.1-0.2,0.2-0.3,0.4-0.3c0.2,0,0.3,0.1,0.4,0.3L133.9,131z M123.5,125.5h7.2l-3.6-8.2L123.5,125.5z"/>
		<path class="st0" d="M140.5,116.4c0-0.1,0-0.2,0.1-0.3c0.1-0.1,0.2-0.1,0.3-0.1c0.1,0,0.2,0,0.3,0.1c0.1,0.1,0.1,0.2,0.1,0.3v14.5
			h6.8c0.3,0,0.4,0.1,0.4,0.4c0,0.1,0,0.2-0.1,0.3c-0.1,0.1-0.2,0.1-0.3,0.1h-7.3c-0.1,0-0.2,0-0.3-0.1c0-0.1-0.1-0.2-0.1-0.3
			L140.5,116.4L140.5,116.4z"/>
		<path class="st0" d="M165.2,116.3c0-0.2,0.1-0.3,0.3-0.3c0.2-0.1,0.4,0,0.5,0.2l5.6,13.9l5.6-13.9c0.1-0.2,0.3-0.3,0.5-0.3
			s0.3,0.2,0.3,0.4l2.1,14.8c0,0.3-0.1,0.4-0.4,0.5c-0.3,0-0.4-0.1-0.5-0.4l-1.9-13.4l-5.5,13.5c-0.1,0.2-0.2,0.3-0.3,0.3
			c-0.1,0-0.3,0-0.3-0.1c-0.1,0-0.1-0.1-0.2-0.2l-5.4-13.5l-1.9,13.4c-0.1,0.3-0.2,0.4-0.5,0.4s-0.4-0.2-0.4-0.5L165.2,116.3z"/>
		<path class="st0" d="M187.4,131.6c-0.3,0-0.4-0.1-0.4-0.4v-14.8c0-0.3,0.1-0.4,0.4-0.4h7.8c0.3,0,0.4,0.1,0.4,0.4
			c0,0.3-0.1,0.4-0.4,0.4h-7.5v6.5h4.8c0.3,0,0.4,0.1,0.4,0.4c0,0.3-0.1,0.4-0.4,0.4h-4.8v6.7h7.5c0.3,0,0.4,0.1,0.4,0.4
			s-0.1,0.4-0.4,0.4L187.4,131.6L187.4,131.6z"/>
		<path class="st0" d="M211.5,115.9c0.3,0,0.4,0.1,0.4,0.4c0,0.3-0.1,0.4-0.4,0.4h-4.1v14.6c0,0.3-0.1,0.4-0.4,0.4s-0.4-0.1-0.4-0.4
			v-14.6h-4.1c-0.3,0-0.4-0.1-0.4-0.4c0-0.3,0.1-0.4,0.4-0.4H211.5z"/>
		<path class="st0" d="M217.9,116.4c0-0.3,0.1-0.4,0.4-0.4h4.2c0.6,0,1,0.1,1.5,0.3c0.5,0.2,0.9,0.5,1.3,0.9
			c0.4,0.4,0.7,0.8,0.9,1.2c0.2,0.5,0.4,1,0.4,1.5s-0.1,1-0.4,1.5c-0.3,0.5-0.5,0.9-0.9,1.2c-0.4,0.4-0.8,0.7-1.3,0.9
			c-0.5,0.2-1,0.3-1.5,0.3l4.4,7.1c0.2,0.2,0.1,0.4-0.1,0.6c-0.1,0.1-0.2,0.1-0.3,0.1c-0.1,0-0.2-0.1-0.3-0.2l-4.7-7.5h-2.9v7.3
			c0,0.3-0.1,0.4-0.4,0.4c-0.3,0-0.4-0.1-0.4-0.4L217.9,116.4L217.9,116.4z M218.6,116.8v6.4h3.9c0.5,0,0.9-0.1,1.3-0.3
			s0.8-0.4,1-0.7c0.3-0.3,0.5-0.7,0.7-1c0.2-0.4,0.3-0.8,0.3-1.2s-0.1-0.9-0.3-1.2c-0.2-0.4-0.4-0.8-0.7-1c-0.3-0.3-0.7-0.5-1-0.7
			c-0.4-0.2-0.9-0.3-1.3-0.3C222.5,116.8,218.6,116.8,218.6,116.8z"/>
		<path class="st0" d="M240.2,116c1,0,2.1,0.2,3,0.6c0.9,0.4,1.8,0.9,2.5,1.7c0.8,0.8,1.2,1.5,1.7,2.5c0.4,0.9,0.6,2,0.6,3
			c0,1-0.2,2.1-0.6,3c-0.4,0.9-0.9,1.8-1.7,2.5c-0.8,0.7-1.5,1.2-2.5,1.7c-0.9,0.4-2,0.6-3,0.6c-1,0-2.1-0.2-3-0.6
			c-0.9-0.4-1.8-0.9-2.5-1.7c-0.7-0.7-1.2-1.5-1.7-2.5c-0.4-0.9-0.6-2-0.6-3c0-1,0.2-2.1,0.6-3c0.4-0.9,0.9-1.8,1.7-2.5
			c0.7-0.8,1.5-1.2,2.5-1.7C238.1,116.2,239.1,116,240.2,116z M240.2,116.8c-0.9,0-1.9,0.2-2.7,0.6c-0.9,0.4-1.6,0.9-2.3,1.5
			s-1.1,1.4-1.5,2.3c-0.4,0.9-0.6,1.8-0.6,2.7c0,0.9,0.2,1.9,0.6,2.7c0.4,0.9,0.9,1.6,1.5,2.2c0.7,0.7,1.3,1.1,2.3,1.5
			c0.9,0.4,1.8,0.6,2.7,0.6s1.9-0.2,2.7-0.6c0.9-0.4,1.6-0.9,2.3-1.5c0.7-0.7,1.1-1.3,1.5-2.2c0.4-0.9,0.6-1.8,0.6-2.7
			c0-0.9-0.2-1.9-0.6-2.7c-0.4-0.9-0.9-1.6-1.5-2.3c-0.7-0.7-1.4-1.1-2.3-1.5C242.1,116.9,241.1,116.8,240.2,116.8z"/>
		<path class="st0" d="M254.7,116.4c0-0.3,0.1-0.4,0.4-0.4h4.2c0.6,0,1,0.1,1.5,0.3c0.5,0.2,0.9,0.5,1.3,0.9
			c0.4,0.4,0.7,0.8,0.9,1.2c0.2,0.5,0.4,1,0.4,1.5s-0.1,1-0.4,1.5c-0.3,0.5-0.5,0.9-0.9,1.2c-0.4,0.4-0.8,0.7-1.3,0.9
			c-0.5,0.2-1,0.3-1.5,0.3h-3.8v7.3c0,0.3-0.1,0.4-0.4,0.4c-0.3,0-0.4-0.1-0.4-0.4L254.7,116.4L254.7,116.4z M255.5,116.8v6.4h3.8
			c0.5,0,0.9-0.1,1.3-0.3c0.5-0.2,0.8-0.4,1-0.7c0.3-0.3,0.6-0.7,0.7-1c0.2-0.4,0.3-0.8,0.3-1.2s-0.1-0.9-0.3-1.2s-0.4-0.8-0.7-1
			c-0.3-0.3-0.7-0.5-1-0.7c-0.4-0.2-0.9-0.3-1.3-0.3C259.3,116.8,255.5,116.8,255.5,116.8z"/>
		<path class="st0" d="M277.7,116c1,0,2.1,0.2,3,0.6c0.9,0.4,1.8,0.9,2.5,1.7c0.8,0.8,1.2,1.5,1.7,2.5c0.4,0.9,0.6,2,0.6,3
			c0,1-0.2,2.1-0.6,3c-0.4,0.9-0.9,1.8-1.7,2.5c-0.8,0.7-1.5,1.2-2.5,1.7c-0.9,0.4-2,0.6-3,0.6s-2.1-0.2-3-0.6
			c-0.9-0.4-1.8-0.9-2.5-1.7c-0.7-0.7-1.2-1.5-1.7-2.5c-0.4-0.9-0.6-2-0.6-3c0-1,0.2-2.1,0.6-3c0.4-0.9,0.9-1.8,1.7-2.5
			c0.7-0.8,1.5-1.2,2.5-1.7C275.6,116.2,276.7,116,277.7,116z M277.7,116.8c-0.9,0-1.9,0.2-2.7,0.6c-0.9,0.4-1.6,0.9-2.3,1.5
			s-1.1,1.4-1.5,2.3c-0.4,0.9-0.6,1.8-0.6,2.7c0,0.9,0.2,1.9,0.6,2.7c0.4,0.9,0.9,1.6,1.5,2.2c0.7,0.7,1.3,1.1,2.3,1.5
			c0.9,0.4,1.8,0.6,2.7,0.6s1.9-0.2,2.7-0.6c0.9-0.4,1.6-0.9,2.3-1.5c0.7-0.7,1.1-1.3,1.5-2.2c0.4-0.9,0.6-1.8,0.6-2.7
			c0-0.9-0.2-1.9-0.6-2.7c-0.4-0.9-0.9-1.6-1.5-2.3c-0.7-0.7-1.4-1.1-2.3-1.5C279.6,116.9,278.6,116.8,277.7,116.8z"/>
		<path class="st0" d="M292.3,116.4c0-0.1,0-0.2,0.1-0.3c0.1-0.1,0.2-0.1,0.3-0.1s0.2,0,0.3,0.1c0.1,0.1,0.1,0.2,0.1,0.3v14.5h6.8
			c0.3,0,0.4,0.1,0.4,0.4c0,0.1,0,0.2-0.1,0.3c-0.1,0.1-0.2,0.1-0.3,0.1h-7.3c-0.1,0-0.2,0-0.3-0.1c0-0.1-0.1-0.2-0.1-0.3
			L292.3,116.4L292.3,116.4z"/>
		<path class="st0" d="M306.9,116.4c0-0.3,0.1-0.4,0.4-0.4s0.4,0.1,0.4,0.4v14.8c0,0.3-0.1,0.4-0.4,0.4s-0.4-0.1-0.4-0.4V116.4z"/>
		<path class="st0" d="M323.9,115.9c0.3,0,0.4,0.1,0.4,0.4c0,0.3-0.1,0.4-0.4,0.4h-4.1v14.6c0,0.3-0.1,0.4-0.4,0.4
			c-0.3,0-0.4-0.1-0.4-0.4v-14.6H315c-0.3,0-0.4-0.1-0.4-0.4c0-0.3,0.1-0.4,0.4-0.4H323.9z"/>
		<path class="st0" d="M341.2,131c0.1,0.1,0.1,0.2,0,0.3c0,0.1-0.1,0.2-0.2,0.2c-0.1,0.1-0.2,0.1-0.3,0c-0.1,0-0.2-0.1-0.2-0.2
			l-2.2-5h-7.8l-2.2,5c0,0.1-0.1,0.2-0.2,0.2c-0.1,0-0.2,0-0.3,0c-0.1-0.1-0.2-0.1-0.2-0.2c0-0.1,0-0.2,0-0.3l6.4-14.8
			c0.1-0.2,0.2-0.3,0.4-0.3c0.2,0,0.3,0.1,0.4,0.3L341.2,131z M330.9,125.5h7.2l-3.6-8.2L330.9,125.5z"/>
		<path class="st0" d="M348.2,116.4c0-0.2,0.1-0.3,0.3-0.4c0.1,0,0.2,0,0.3,0c0.1,0.1,0.2,0.1,0.2,0.2l9.6,13.8v-13.6
			c0-0.3,0.1-0.4,0.4-0.4c0.3,0,0.4,0.1,0.4,0.4v14.8c0,0.3-0.1,0.4-0.4,0.4c-0.1,0-0.3-0.1-0.4-0.2l-9.6-13.8v13.6
			c0,0.3-0.1,0.4-0.4,0.4s-0.4-0.1-0.4-0.4V116.4z"/>
		<path class="st0" d="M379.9,131c0.1,0.1,0.1,0.2,0,0.3c0,0.1-0.1,0.2-0.2,0.2c-0.1,0.1-0.2,0.1-0.3,0c-0.1,0-0.2-0.1-0.2-0.2
			l-2.2-5h-7.8l-2.2,5c0,0.1-0.1,0.2-0.2,0.2c-0.1,0-0.2,0-0.3,0c-0.1-0.1-0.2-0.1-0.2-0.2c0-0.1,0-0.2,0-0.3l6.4-14.8
			c0.1-0.2,0.2-0.3,0.4-0.3s0.3,0.1,0.4,0.3L379.9,131z M369.6,125.5h7.2l-3.6-8.2L369.6,125.5z"/>
		<path class="st0" d="M407.4,123.8c0,1-0.2,2.1-0.6,3c-0.4,0.9-0.9,1.8-1.7,2.5c-0.7,0.7-1.5,1.2-2.5,1.7c-0.9,0.4-2,0.6-3,0.6
			h-4.4c-0.1,0-0.2,0-0.3-0.1c-0.1-0.1-0.1-0.2-0.1-0.3v-14.8c0-0.1,0-0.2,0.1-0.3c0.1-0.1,0.2-0.1,0.3-0.1h4.4c1,0,2.1,0.2,3,0.6
			c0.9,0.4,1.8,0.9,2.5,1.7c0.7,0.7,1.2,1.5,1.7,2.5C407.3,121.7,407.4,122.7,407.4,123.8z M395.5,116.8v14.1h4.1
			c0.9,0,1.9-0.2,2.7-0.6c0.9-0.4,1.6-0.9,2.3-1.5c0.7-0.7,1.1-1.4,1.5-2.3c0.4-0.9,0.6-1.8,0.6-2.7c0-1-0.2-1.9-0.6-2.7
			c-0.4-0.9-0.9-1.6-1.5-2.3c-0.7-0.7-1.4-1.1-2.3-1.5c-0.9-0.4-1.8-0.6-2.7-0.6L395.5,116.8L395.5,116.8z"/>
		<path class="st0" d="M414.1,131.6c-0.3,0-0.4-0.1-0.4-0.4v-14.8c0-0.3,0.1-0.4,0.4-0.4h7.8c0.3,0,0.4,0.1,0.4,0.4
			c0,0.3-0.1,0.4-0.4,0.4h-7.5v6.5h4.8c0.3,0,0.4,0.1,0.4,0.4c0,0.3-0.1,0.4-0.4,0.4h-4.8v6.7h7.5c0.3,0,0.4,0.1,0.4,0.4
			s-0.1,0.4-0.4,0.4L414.1,131.6L414.1,131.6z"/>
		<path class="st0" d="M446.8,127c0,0.7-0.1,1.2-0.4,1.8c-0.3,0.6-0.6,1-1,1.5s-0.9,0.8-1.5,0.9c-0.6,0.3-1.1,0.4-1.8,0.4h-4.6
			c-0.3,0-0.4-0.1-0.4-0.4v-14.8c0-0.3,0.1-0.4,0.4-0.4h4.2c0.6,0,1,0.1,1.5,0.3c0.5,0.2,0.9,0.4,1.3,0.7s0.7,0.7,0.9,1.1
			c0.2,0.5,0.4,0.9,0.4,1.5c0,0.8-0.2,1.3-0.6,1.9s-0.9,0.9-1.4,1.2c0.5,0.2,0.9,0.4,1.2,0.7c0.4,0.3,0.7,0.7,0.9,1
			c0.3,0.4,0.5,0.8,0.7,1.2C446.8,126,446.8,126.5,446.8,127z M438,116.8v5.6h3.8c0.5,0,0.9-0.1,1.3-0.2c0.4-0.1,0.8-0.3,1-0.6
			c0.3-0.3,0.6-0.6,0.7-0.9c0.1-0.3,0.3-0.8,0.3-1.2s-0.1-0.9-0.3-1.2c-0.2-0.4-0.4-0.7-0.7-0.9c-0.3-0.2-0.7-0.4-1-0.5
			s-0.9-0.2-1.3-0.2C441.7,116.8,438,116.8,438,116.8z M438,123.1v7.7h4.3c0.6,0,1-0.1,1.5-0.3c0.5-0.2,0.9-0.5,1.2-0.9
			c0.4-0.4,0.7-0.8,0.9-1.2s0.3-0.9,0.3-1.5c0-0.5-0.1-0.9-0.3-1.4c-0.2-0.5-0.5-0.9-0.9-1.2c-0.4-0.4-0.8-0.7-1.2-0.9
			c-0.5-0.2-0.9-0.3-1.4-0.4H438z"/>
		<path class="st0" d="M465.7,131c0.1,0.1,0.1,0.2,0,0.3c0,0.1-0.1,0.2-0.2,0.2c-0.1,0.1-0.2,0.1-0.3,0c-0.1,0-0.2-0.1-0.2-0.2
			l-2.2-5H455l-2.2,5c0,0.1-0.1,0.2-0.2,0.2s-0.2,0-0.3,0c-0.1-0.1-0.2-0.1-0.2-0.2c0-0.1,0-0.2,0-0.3l6.4-14.8
			c0.1-0.2,0.2-0.3,0.4-0.3s0.3,0.1,0.4,0.3L465.7,131z M455.3,125.5h7.2l-3.6-8.2L455.3,125.5z"/>
		<path class="st0" d="M472.6,116.4c0-0.3,0.1-0.4,0.4-0.4h4.2c0.6,0,1,0.1,1.5,0.3c0.5,0.2,0.9,0.5,1.3,0.9
			c0.4,0.4,0.7,0.8,0.9,1.2c0.2,0.5,0.4,1,0.4,1.5s-0.1,1-0.4,1.5c-0.3,0.5-0.5,0.9-0.9,1.2c-0.4,0.4-0.8,0.7-1.3,0.9
			c-0.5,0.2-1,0.3-1.5,0.3l4.4,7.1c0.2,0.2,0.1,0.4-0.1,0.6c-0.1,0.1-0.2,0.1-0.3,0.1c-0.1,0-0.2-0.1-0.3-0.2l-4.7-7.5h-2.8v7.3
			c0,0.3-0.1,0.4-0.4,0.4s-0.4-0.1-0.4-0.4V116.4z M473.3,116.8v6.4h3.9c0.5,0,0.9-0.1,1.3-0.3c0.4-0.2,0.8-0.4,1-0.7
			c0.3-0.3,0.5-0.7,0.7-1c0.2-0.4,0.3-0.8,0.3-1.2s-0.1-0.9-0.3-1.2c-0.2-0.4-0.4-0.8-0.7-1c-0.3-0.3-0.7-0.5-1-0.7
			s-0.9-0.3-1.3-0.3C477.2,116.8,473.3,116.8,473.3,116.8z"/>
		<path class="st0" d="M488.5,116.4c0-0.3,0.1-0.4,0.4-0.4h4.2c0.6,0,1,0.1,1.5,0.3c0.5,0.2,0.9,0.5,1.3,0.9
			c0.4,0.4,0.7,0.8,0.9,1.2c0.2,0.5,0.4,1,0.4,1.5s-0.1,1-0.4,1.5c-0.3,0.5-0.5,0.9-0.9,1.2c-0.4,0.4-0.8,0.7-1.3,0.9
			c-0.5,0.2-1,0.3-1.5,0.3l4.4,7.1c0.2,0.2,0.1,0.4-0.1,0.6c-0.1,0.1-0.2,0.1-0.3,0.1c-0.1,0-0.2-0.1-0.3-0.2l-4.7-7.5h-2.7v7.3
			c0,0.3-0.1,0.4-0.4,0.4s-0.4-0.1-0.4-0.4L488.5,116.4L488.5,116.4z M489.4,116.8v6.4h3.9c0.5,0,0.9-0.1,1.3-0.3
			c0.4-0.2,0.8-0.4,1-0.7c0.3-0.3,0.5-0.7,0.7-1c0.2-0.4,0.3-0.8,0.3-1.2s-0.1-0.9-0.3-1.2s-0.4-0.8-0.7-1c-0.3-0.3-0.7-0.5-1-0.7
			s-0.9-0.3-1.3-0.3C493.2,116.8,489.4,116.8,489.4,116.8z"/>
		<path class="st0" d="M518,131c0.1,0.1,0.1,0.2,0,0.3c0,0.1-0.1,0.2-0.2,0.2c-0.1,0.1-0.2,0.1-0.3,0c-0.1,0-0.2-0.1-0.2-0.2l-2.2-5
			h-7.8l-2.2,5c0,0.1-0.1,0.2-0.2,0.2s-0.2,0-0.3,0c-0.1-0.1-0.2-0.1-0.2-0.2c0-0.1,0-0.2,0-0.3l6.4-14.8c0.1-0.2,0.2-0.3,0.4-0.3
			c0.2,0,0.3,0.1,0.4,0.3L518,131z M507.6,125.5h7.2l-3.6-8.2L507.6,125.5z"/>
		<path class="st0" d="M525,116.4c0-0.2,0.1-0.3,0.3-0.4c0.1,0,0.2,0,0.3,0c0.1,0.1,0.2,0.1,0.2,0.2l9.6,13.8v-13.6
			c0-0.3,0.1-0.4,0.4-0.4c0.3,0,0.4,0.1,0.4,0.4v14.8c0,0.3-0.1,0.4-0.4,0.4c-0.1,0-0.3-0.1-0.4-0.2l-9.6-13.8v13.6
			c0,0.3-0.1,0.4-0.4,0.4s-0.4-0.1-0.4-0.4L525,116.4L525,116.4z"/>
		<path class="st0" d="M550.9,116c1,0,2.1,0.2,3,0.6c0.9,0.4,1.8,0.9,2.5,1.7c0.8,0.8,1.2,1.5,1.7,2.5c0.4,0.9,0.6,2,0.6,3
			c0,0.9-0.1,1.6-0.4,2.4s-0.6,1.4-0.9,2.1c-0.4,0.7-0.9,1.1-1.5,1.7c-0.6,0.6-1.2,0.9-2,1.1l-0.5,0.2c0.1,0.3,0.4,0.6,0.7,0.9
			c0.3,0.2,0.7,0.3,1,0.4h0.1c0.3,0,0.4,0.1,0.4,0.4c0,0.3-0.1,0.4-0.4,0.4H555c-0.6,0-1-0.2-1.5-0.5c-0.5-0.3-0.8-0.8-0.9-1.2
			c-0.6,0.1-1.2,0.2-1.8,0.2c-1.1,0-2.1-0.2-3-0.6c-0.7-0.3-1.3-0.7-1.9-1.1c-0.6-0.5-1-1-1.5-1.7c-0.5-0.7-0.8-1.3-0.9-2.1
			c-0.3-0.8-0.4-1.5-0.4-2.4c0-1,0.2-2.1,0.6-3c0.4-0.9,0.9-1.8,1.7-2.5c0.7-0.8,1.5-1.2,2.5-1.7C548.8,116.2,549.9,116,550.9,116z
			 M548.2,128.9c0-0.4,0.1-0.8,0.2-1s0.4-0.6,0.6-0.9c0.2-0.3,0.6-0.5,0.9-0.6s0.7-0.2,1-0.2c0.4,0,0.8,0.1,1,0.2
			c0.3,0.1,0.6,0.4,0.9,0.6c0.3,0.2,0.5,0.6,0.6,0.9c0.1,0.3,0.2,0.7,0.2,1c0,0.3,0,0.6-0.1,0.9c-0.1,0.3-0.2,0.5-0.3,0.7l0.4-0.2
			c0.7-0.3,1.2-0.6,1.8-1s0.9-0.9,1.4-1.5c0.4-0.6,0.7-1.1,0.9-1.9c0.2-0.7,0.3-1.3,0.3-2.1c0-0.9-0.2-1.9-0.6-2.7
			c-0.4-0.9-0.9-1.6-1.5-2.3c-0.7-0.7-1.4-1.1-2.3-1.5c-0.9-0.4-1.8-0.6-2.7-0.6c-0.9,0-1.9,0.2-2.7,0.6c-0.9,0.4-1.6,0.9-2.3,1.5
			c-0.7,0.7-1.1,1.4-1.5,2.3c-0.4,0.9-0.6,1.8-0.6,2.7c0,0.8,0.1,1.4,0.3,2.1c0.2,0.7,0.5,1.3,0.9,1.9c0.4,0.6,0.9,1,1.3,1.5
			s1.1,0.8,1.8,1l0.5,0.2C548.3,130,548.2,129.5,548.2,128.9z M549,128.9c0,0.6,0.2,0.9,0.6,1.3s0.9,0.6,1.3,0.6
			c0.6,0,1-0.2,1.3-0.6c0.3-0.4,0.6-0.9,0.6-1.3c0-0.6-0.2-0.9-0.6-1.3c-0.4-0.4-0.9-0.6-1.3-0.6c-0.6,0-0.9,0.2-1.3,0.6
			C549.2,128,549,128.4,549,128.9z"/>
		<path class="st0" d="M565.7,116.4c0-0.3,0.1-0.4,0.4-0.4c0.3,0,0.4,0.1,0.4,0.4v9.9c0,0.7,0.1,1.2,0.4,1.8c0.3,0.6,0.6,1,0.9,1.4
			c0.4,0.4,0.9,0.8,1.4,1c0.6,0.3,1.1,0.4,1.8,0.4s1.2-0.1,1.8-0.4c0.6-0.2,1-0.6,1.4-0.9c0.4-0.4,0.8-0.9,1-1.4
			c0.3-0.5,0.4-1.1,0.4-1.8v-9.9c0-0.3,0.1-0.4,0.4-0.4s0.4,0.1,0.4,0.4v9.9c0,0.8-0.2,1.4-0.5,2.1c-0.3,0.7-0.7,1.2-1.1,1.7
			c-0.5,0.5-1,0.9-1.7,1.1c-0.7,0.3-1.3,0.4-2.1,0.4s-1.4-0.1-2.1-0.4c-0.7-0.3-1.2-0.7-1.7-1.1c-0.5-0.5-0.9-1-1.1-1.7
			c-0.3-0.7-0.4-1.3-0.4-2.1L565.7,116.4L565.7,116.4z"/>
		<path class="st0" d="M583.7,116.4c0-0.3,0.1-0.4,0.4-0.4c0.3,0,0.4,0.1,0.4,0.4v14.8c0,0.3-0.1,0.4-0.4,0.4
			c-0.3,0-0.4-0.1-0.4-0.4V116.4z"/>
		<path class="st0" d="M591.4,116.4c0-0.1,0-0.2,0.1-0.3c0.1-0.1,0.2-0.1,0.3-0.1s0.2,0,0.3,0.1c0.1,0.1,0.1,0.2,0.1,0.3v14.5h6.8
			c0.3,0,0.4,0.1,0.4,0.4c0,0.1,0,0.2-0.1,0.3c-0.1,0.1-0.2,0.1-0.3,0.1h-7.3c-0.1,0-0.2,0-0.3-0.1c0-0.1-0.1-0.2-0.1-0.3
			L591.4,116.4L591.4,116.4z"/>
		<path class="st0" d="M605.7,116.4c0-0.1,0-0.2,0.1-0.3c0.1-0.1,0.2-0.1,0.3-0.1s0.2,0,0.3,0.1c0.1,0.1,0.1,0.2,0.1,0.3v14.5h6.8
			c0.3,0,0.4,0.1,0.4,0.4c0,0.1,0,0.2-0.1,0.3c-0.1,0.1-0.2,0.1-0.3,0.1H606c-0.1,0-0.2,0-0.3-0.1c0-0.1-0.1-0.2-0.1-0.3
			L605.7,116.4L605.7,116.4z"/>
		<path class="st0" d="M633.8,131c0.1,0.1,0.1,0.2,0,0.3c0,0.1-0.1,0.2-0.2,0.2c-0.1,0.1-0.2,0.1-0.3,0c-0.1,0-0.2-0.1-0.2-0.2
			l-2.2-5h-7.8l-2.2,5c0,0.1-0.1,0.2-0.2,0.2s-0.2,0-0.3,0c-0.1-0.1-0.2-0.1-0.2-0.2c0-0.1,0-0.2,0-0.3l6.4-14.8
			c0.1-0.2,0.2-0.3,0.4-0.3s0.3,0.1,0.4,0.3L633.8,131z M623.4,125.5h7.2l-3.6-8.2L623.4,125.5z"/>
	</g>
	<g>
		<g>
			<path class="st0" d="M96.2,95c-1.2,0.5-2.3,0.6-3.4,0.2c-1-0.4-1.8-1.1-2.3-2.3c-0.4-1-0.4-2.1-0.1-3.1c0.3-1.1,1.1-1.8,2.3-2.3
				c0.2-0.1,0.5-0.2,0.7-0.2s0.4,0,0.7,0c-2.3-12-5.8-30.1-10.5-54.2h-0.1h-0.1C78.7,47,71.7,67.9,62.3,95.7
				c-0.1,0.3-0.3,0.6-0.5,0.7c-0.3,0.1-0.6,0.2-0.9,0.2c-0.1,0-0.2,0-0.4,0c-0.3,0-0.6,0-0.8-0.1c-0.3-0.1-0.5-0.3-0.6-0.7
				C54.4,81.9,47.3,61.1,38,33.2h-0.1h-0.1c-2.6,13.6-6.6,34-11.8,61.3c0,0.3-0.2,0.6-0.4,0.8c-0.2,0.2-0.5,0.4-0.8,0.4
				c-0.6,0-1.4,0-2.5,0c-0.5,0-0.8-0.1-1-0.3c-0.1-0.1-0.2-0.4-0.2-0.7c0-0.1,0-0.3,0.1-0.4c3.3-16,8.2-40.1,14.8-72.1
				c0.1-0.2,0.2-0.4,0.4-0.5s0.4-0.2,0.6-0.2c0.3,0,0.7,0,1.2,0c0.3,0,0.5,0,0.7,0.1c0.1,0.1,0.3,0.3,0.4,0.6
				c4.8,14.3,12,35.7,21.6,64.2H61h0.1c4.8-14.3,12-35.7,21.6-64.2c0.1-0.2,0.2-0.4,0.4-0.6c0.2-0.1,0.4-0.1,0.7-0.1
				c0.2,0,0.6,0,1.2,0c0.2,0,0.4,0.1,0.6,0.2s0.3,0.3,0.4,0.5c3,14.4,7.4,36.1,13.3,65c0,0,0.1,0,0.1,0.1v0.1c0,0,0,0.1,0.1,0.2
				c0.1,0.8,0.2,1.6,0.2,2.3c0,1.1-0.2,2-0.5,2.8C98.1,93.8,97.3,94.6,96.2,95z"/>
			<path class="st0" d="M167.6,95.5c-0.6,0-1.6,0-2.8,0c-0.3,0-0.6-0.1-0.9-0.3c-0.3-0.2-0.5-0.4-0.6-0.6
				c-1.9-4.3-4.7-10.7-8.4-19.2c-6.3,0-15.8,0-28.4,0c-0.1,0-0.3,0-0.4,0.1c-0.1,0-0.3,0.1-0.4,0.1c0.1,0.3,0.2,0.6,0.3,0.9
				c0.1,0.2,0.1,0.5,0.1,0.9c-0.1,1.4-0.6,2.4-1.5,3c-0.9,0.7-1.9,1-3,0.9c-1.2,0-2.2-0.5-2.9-1.4c-0.7-0.8-1-1.9-0.9-3.2
				c0-1.5,0.8-2.8,2.4-3.9s4.1-1.6,7.4-1.5c5.6,0,14.1,0,25.3,0c-4-9.4-10-23.4-17.9-42.2c0,0-0.1,0-0.2,0
				c-6.3,14.6-15.8,36.4-28.4,65.5c-0.1,0.2-0.3,0.4-0.5,0.6s-0.6,0.3-0.9,0.3c-0.6,0-1.6,0-2.9,0c-0.4,0-0.6-0.1-0.7-0.3
				c-0.1-0.1-0.1-0.2-0.1-0.4s0-0.3,0.1-0.6c7.1-16.2,17.9-40.4,32.2-72.7c0.1-0.2,0.3-0.4,0.5-0.5s0.5-0.2,0.7-0.2c0,0,0.1,0,0.3,0
				c0.3,0,0.6,0,0.8,0.1s0.4,0.3,0.6,0.7c7.1,16.2,17.7,40.4,31.9,72.7c0,0.2,0.1,0.4,0.1,0.5s0,0.3-0.1,0.4
				C168.5,95.4,168.1,95.5,167.6,95.5z"/>
			<path class="st0" d="M224.7,93.7c0.2,0.4,0.3,0.9,0.2,1.2c-0.1,0.4-0.4,0.7-0.9,0.7c-0.7,0-1.8,0-3.2,0c-0.4,0-0.7-0.1-0.9-0.2
				c-0.2-0.2-0.4-0.4-0.6-0.7c-3.4-6.1-8.4-15.2-15.1-27.4c-0.7,0-1.3,0.1-1.9,0.1c-0.6,0-1.3,0-2,0c-1.7,0-4.4,0-8,0
				c0.1,0.3,0.2,0.6,0.3,0.8c0.1,0.2,0.1,0.5,0.1,0.8c0,1.4-0.5,2.4-1.4,3.1s-1.9,1-3,0.9c-1.3,0-2.2-0.5-2.9-1.3
				c-0.7-0.9-1-2-0.9-3.3c0.1-1.4,0.8-2.6,2.1-3.6c1.4-1,3.4-1.6,6.3-1.7c0.1,0,0.2,0,0.4,0h0.1h0.1c2.2,0,5.5,0,9.8,0
				c1.8,0,3.5-0.2,5.1-0.7s3.2-1.1,4.6-2c2.6-1.6,4.8-3.7,6.4-6.4c1.6-2.7,2.4-5.8,2.4-9.1c0-3.3-0.8-6.2-2.4-8.8
				c-1.7-2.6-3.8-4.7-6.4-6.2c-1.4-0.8-2.9-1.5-4.6-1.9c-1.7-0.5-3.4-0.7-5.2-0.7c-4.9,0-12.2,0-21.9,0c0,14.9-0.1,37.2-0.1,67
				c0,0.4-0.1,0.7-0.4,0.9c-0.3,0.3-0.7,0.4-1.2,0.4c-0.4,0-1,0-1.8,0c-0.4,0-0.7-0.1-1-0.4c-0.2-0.2-0.4-0.6-0.4-0.9
				c0-5.9,0-14.7,0-26.4c0-9.8,0-24.4,0-44c0-0.3,0.1-0.7,0.4-0.9c0.2-0.3,0.6-0.4,1-0.4c5.7,0,14.3,0,25.9,0c2.2,0,4.4,0.3,6.5,0.9
				c2.1,0.6,4,1.4,5.8,2.4c3.4,1.9,6,4.6,8,7.9s3.1,7,3.1,11.2c0,5.2-1.6,9.8-4.9,13.8c-3.3,3.9-7.4,6.6-12.3,8
				C212.8,72.6,217.9,81.6,224.7,93.7z"/>
			<path class="st0" d="M235.7,23.8c0-0.4,0.1-0.7,0.4-0.9c0.3-0.3,0.6-0.4,1-0.4c0.5,0,1.2,0,2.3,0c0.4,0,0.7,0.1,0.9,0.4
				c0.3,0.2,0.4,0.6,0.4,0.9c0,15.6,0,39.1,0,70.4c0,0.4-0.1,0.7-0.4,0.9c-0.3,0.2-0.7,0.4-1,0.4c-0.5,0-1.2,0-2.2,0
				c-0.4,0-0.7-0.1-1-0.4c-0.2-0.3-0.4-0.6-0.4-0.9c0-5.9,0-14.7,0-26.4C235.7,58,235.7,43.4,235.7,23.8z"/>
			<path class="st0" d="M313.6,95.5c-0.6,0-1.6,0-2.8,0c-0.3,0-0.6-0.1-0.9-0.3c-0.3-0.2-0.5-0.4-0.6-0.6
				c-1.9-4.3-4.7-10.7-8.4-19.2c-6.3,0-15.8,0-28.4,0c-0.1,0-0.3,0-0.4,0.1c-0.1,0-0.3,0.1-0.4,0.1c0.1,0.3,0.2,0.6,0.3,0.9
				c0.1,0.2,0.1,0.5,0.1,0.9c-0.1,1.4-0.6,2.4-1.5,3c-0.9,0.7-1.9,1-3,0.9c-1.2,0-2.2-0.5-2.9-1.4c-0.7-0.8-1-1.9-0.9-3.2
				c0-1.5,0.8-2.8,2.4-3.9s4.1-1.6,7.4-1.5c5.6,0,14.1,0,25.3,0c-4-9.4-10-23.4-17.9-42.2c0,0-0.1,0-0.2,0
				c-6.3,14.6-15.8,36.4-28.4,65.5c-0.1,0.2-0.3,0.4-0.5,0.6s-0.6,0.3-0.9,0.3c-0.6,0-1.6,0-2.9,0c-0.4,0-0.6-0.1-0.7-0.3
				c-0.1-0.1-0.1-0.2-0.1-0.4s0-0.3,0.1-0.6c7.1-16.2,17.9-40.4,32.2-72.7c0.1-0.2,0.3-0.4,0.5-0.5s0.5-0.2,0.7-0.2c0,0,0.1,0,0.3,0
				c0.3,0,0.6,0,0.8,0.1c0.2,0.1,0.4,0.3,0.6,0.7c7.1,16.2,17.7,40.4,31.9,72.7c0,0.2,0.1,0.4,0.1,0.5s0,0.3-0.1,0.4
				C314.5,95.4,314.2,95.5,313.6,95.5z"/>
		</g>
		<g>
			<path class="st0" d="M414.5,93.8c0.3,0.5,0.4,0.8,0.2,1.3c-0.1,0.5-0.5,0.6-1,0.6c-0.7,0-1.8,0-3.3,0c-0.4,0-0.7-0.1-1-0.2
				c-0.2-0.2-0.4-0.5-0.5-0.7c-3.4-6.1-8.5-15.4-15.4-27.8c-0.7,0.1-1.4,0.1-1.9,0.1c-0.6,0-1.3,0-2,0c-1.7,0-4.5,0-8.1,0
				c0.2,0.3,0.3,0.5,0.3,0.8c0.1,0.3,0.1,0.5,0.1,0.8c-0.1,1.4-0.5,2.4-1.4,3.1c-0.9,0.7-1.9,1-3,0.9c-1.3-0.1-2.3-0.5-2.9-1.4
				c-0.7-0.9-1-2-1-3.3c0.1-1.4,0.8-2.7,2.1-3.7c1.4-1,3.5-1.6,6.4-1.7c0.1,0,0.3,0,0.5,0h0.1h0.1c2.2,0,5.6,0,10,0
				c1.8,0,3.6-0.2,5.2-0.6c1.6-0.5,3.2-1.2,4.7-2c2.7-1.6,4.8-3.7,6.5-6.5c1.6-2.7,2.5-5.9,2.5-9.2c0-3.3-0.8-6.3-2.5-9
				c-1.6-2.7-3.8-4.8-6.5-6.3c-1.5-0.8-3-1.5-4.7-1.9s-3.5-0.7-5.2-0.7c-4.9,0-12.3,0-22.3,0c-0.1,15.2-0.1,37.8-0.2,68.1
				c0,0.4-0.2,0.7-0.5,1c-0.3,0.3-0.7,0.5-1.3,0.5c-0.4,0-1,0-1.8,0c-0.4,0-0.7-0.2-1-0.5c-0.3-0.3-0.4-0.5-0.4-1
				c0-5.9,0-14.9,0-26.9c0-9.9,0-24.8,0-44.7c0-0.4,0.1-0.6,0.4-1c0.3-0.3,0.5-0.5,1-0.5c5.9,0,14.5,0,26.2,0c2.3,0,4.5,0.3,6.6,0.9
				c2.1,0.5,4.1,1.4,5.9,2.5c3.4,2,6.1,4.7,8.1,8c2.1,3.4,3.1,7.1,3.1,11.4c0,5.3-1.6,10-4.9,14c-3.3,4-7.5,6.7-12.5,8.1
				C402.5,72.3,407.6,81.5,414.5,93.8z"/>
			<path class="st0" d="M430.8,25.9c0,6.5,0,16.3,0,29.3c7.4,0,18.6,0,33.6,0c0.4,0,0.6,0.2,1,0.5c0.3,0.3,0.4,0.6,0.4,1s0,1,0,1.7
				c0,0.4-0.1,0.7-0.4,1c-0.3,0.3-0.6,0.4-1,0.4c-7.5,0-18.7,0-33.6,0c0,7,0,17.5,0,31.4c7.1,0,17.9,0,32.3,0
				c-0.2-0.3-0.3-0.5-0.3-0.8c-0.1-0.3-0.2-0.5-0.2-0.8c0.1-1.4,0.5-2.4,1.5-3.1c0.9-0.7,1.9-1,3-1c1.3,0.1,2.3,0.5,2.9,1.4
				c0.6,0.8,1,1.7,1,2.9c0,0.1,0,0.2-0.1,0.4c-0.1,1.4-0.7,2.7-2.1,3.7c-1.4,1-3.5,1.6-6.4,1.7c-7.9,0-19.7,0-35.4,0
				c-0.4,0-0.7-0.2-1-0.5c-0.3-0.3-0.4-0.5-0.4-1c0-5.9,0-14.9,0-26.8c0-10,0-24.9,0-44.8c0-0.4,0.1-0.6,0.4-1
				c0.3-0.3,0.6-0.4,1-0.4c9.4,0,23.6,0,42.5,0c0.4,0,0.6,0.1,1,0.4c0.3,0.3,0.5,0.6,0.5,1c0,0.4,0,1,0,1.8c0,0.4-0.2,0.6-0.5,1
				c-0.3,0.3-0.6,0.4-1,0.4C461,25.9,448.1,25.9,430.8,25.9z"/>
			<path class="st0" d="M480.1,22.7c0-0.4,0.1-0.7,0.4-1c0.3-0.3,0.6-0.5,1-0.5c0.5,0,1.3,0,2.3,0c0.4,0,0.7,0.2,1,0.5
				c0.3,0.3,0.5,0.5,0.5,1c0,15.9,0,39.8,0,71.6c0,0.4-0.2,0.7-0.5,1c-0.4,0.3-0.7,0.4-1,0.4c-0.5,0-1.2,0-2.2,0
				c-0.4,0-0.7-0.1-1-0.4c-0.3-0.3-0.4-0.6-0.4-1c0-5.9,0-14.9,0-26.9C480.1,57.6,480.1,42.7,480.1,22.7z"/>
			<path class="st0" d="M556.6,95.4c0,0.5-0.2,0.8-0.5,1c-0.4,0.2-0.7,0.3-1.2,0.3c-0.3,0-0.7,0-1.4,0l-0.4-0.4
				c-0.2-0.2-0.8-1-1.9-2.4c-0.5-0.5-1-1.3-1.7-2.1c-0.7-0.8-1.5-1.8-2.5-3.1c-1.3-1.6-2.9-3.7-4.8-6.2c-1.9-2.5-4.1-5.4-6.8-8.9
				c-3.7-4.9-8.3-11-13.8-18.1c-5.4-7.1-11.9-15.7-19.5-25.8c-0.1,0-0.1,0-0.2,0c0,14.4,0,35.8,0,64.5c0,0.4-0.1,0.7-0.4,1
				c-0.3,0.3-0.6,0.5-1,0.5c-0.5,0-1.1,0-2,0c-0.4,0-0.7-0.2-1-0.5c-0.3-0.3-0.4-0.5-0.4-1c0-6,0-15.1,0-27.2c0-10.1,0-25.1,0-45.3
				c0-0.5,0.2-0.8,0.5-1c0.4-0.3,0.7-0.4,1.1-0.4c0.5,0,1.1,0,1.8,0c11.3,14.7,28.2,36.8,50.9,66.4h0.2c0-12.7,0-31.7,0-57.1
				c-0.2,0.1-0.4,0.1-0.5,0.1c-0.2,0.1-0.4,0.1-0.5,0c-1.4-0.2-2.4-0.7-3-1.6c-0.5-0.9-0.8-2-0.6-3.1c0.2-1.2,0.6-2.2,1.6-2.8
				c0.9-0.6,2-0.9,3.3-0.7c1.4,0.2,2.6,0.9,3.5,2.3c1,1.4,1.5,3.5,1.4,6.1C556.6,44.4,556.6,66.3,556.6,95.4z"/>
			<path class="st0" d="M630.6,95.7c-0.6,0-1.6,0-2.8,0c-0.4,0-0.6-0.1-0.9-0.3c-0.3-0.2-0.5-0.4-0.5-0.5
				c-1.9-4.3-4.8-10.9-8.6-19.6c-6.4,0-16,0-28.9,0c-0.2,0-0.3,0-0.4,0.1c-0.2,0.1-0.3,0.1-0.4,0.1c0.2,0.3,0.3,0.5,0.3,0.9
				c0.1,0.3,0.2,0.5,0.2,0.9c-0.1,1.4-0.5,2.4-1.5,3c-0.9,0.7-1.9,1-3,1c-1.2-0.1-2.2-0.5-2.9-1.4c-0.7-0.8-1-1.9-0.9-3.3
				c0.1-1.6,0.8-2.8,2.5-3.9s4.1-1.6,7.6-1.5c5.8,0,14.3,0,25.8,0c-4-9.5-10.1-23.8-18.2-42.9c-0.1,0-0.1,0-0.2,0
				c-6.4,14.8-16,36.9-28.9,66.6c-0.1,0.2-0.3,0.4-0.5,0.5c-0.3,0.2-0.5,0.3-1,0.3c-0.6,0-1.6,0-2.9,0c-0.4,0-0.6-0.1-0.7-0.3
				c-0.1-0.1-0.2-0.2-0.2-0.4c0-0.2,0.1-0.4,0.2-0.5c7.2-16.5,18.2-41,32.7-73.9c0.1-0.3,0.3-0.5,0.5-0.5c0.3-0.2,0.5-0.2,0.7-0.2
				c0.1,0,0.2,0,0.3,0c0.3,0,0.5,0,0.8,0.1c0.3,0.1,0.5,0.4,0.5,0.6c7.2,16.5,18,41,32.4,73.9c0.1,0.2,0.1,0.4,0.1,0.5
				c0,0.2,0,0.3-0.1,0.4C631.6,95.5,631.2,95.7,630.6,95.7z"/>
		</g>
	</g>
</g>
</svg>
